<?xml version="1.0" encoding="UTF-8" standalone="no"?>
<svg
   xmlns:dc="http://purl.org/dc/elements/1.1/"
   xmlns:cc="http://creativecommons.org/ns#"
   xmlns:rdf="http://www.w3.org/1999/02/22-rdf-syntax-ns#"
   xmlns:svg="http://www.w3.org/2000/svg"
   xmlns="http://www.w3.org/2000/svg"
   viewBox="0 0 298.13333 109.50667"
   height="109.50667"
   width="298.13333"
   xml:space="preserve"
   id="svg2"
   version="1.1"><metadata
     id="metadata8"><rdf:RDF><cc:Work
         rdf:about=""><dc:format>image/svg+xml</dc:format><dc:type
           rdf:resource="http://purl.org/dc/dcmitype/StillImage" /></cc:Work></rdf:RDF></metadata><defs
     id="defs6" /><g
     transform="matrix(1.3333333,0,0,-1.3333333,0,109.50667)"
     id="g10"><g
       transform="scale(0.1)"
       id="g12"><path
         id="path14"
         style="fill:none;stroke:#545051;stroke-width:6.26478004;stroke-linecap:butt;stroke-linejoin:miter;stroke-miterlimit:4;stroke-dasharray:none;stroke-opacity:1"
         d="M 2098.19,290.066 H 3.0625" /><path
         id="path16"
         style="fill:#545051;fill-opacity:1;fill-rule:nonzero;stroke:none"
         d="m 1997.26,676.617 c 1.72,1.488 5.54,2.235 11.45,2.235 h 22.48 c 14.79,0 24.95,-0.719 30.48,-2.153 5.54,-1.433 9.21,-4.301 11.02,-8.601 1.15,-2.778 1.72,-5.692 1.72,-8.75 v -3.727 c 0,-2.965 0.93,-4.398 2.78,-4.301 1.65,0.094 2.73,0.832 3.21,2.211 0.49,1.383 0.98,4.836 1.47,10.364 l 0.57,8.425 c 0.48,6.289 0.86,10.098 1.15,11.434 0.28,1.332 0.43,2.426 0.43,3.285 0,2.762 -1.58,4.145 -4.73,4.145 -1.25,0 -3.16,-0.196 -5.74,-0.575 -1.24,-0.195 -4.68,-0.382 -10.32,-0.574 l -20.36,-1.004 c -8.99,-0.383 -19.32,-0.574 -30.98,-0.574 -19.21,0 -35.65,0.766 -49.32,2.297 -4.02,0.476 -7.22,0.715 -9.61,0.715 -4.3,0 -6.45,-1.313 -6.45,-3.93 0,-1.777 1.38,-2.668 4.16,-2.668 8.69,0 14.55,-2.367 17.56,-7.109 3.01,-4.739 4.52,-13.953 4.52,-27.645 V 528.77 l -0.15,-9.336 c 0,-11.489 -3.44,-18.192 -10.32,-20.106 l -5.45,-1.578 c -2.49,-0.656 -3.73,-1.777 -3.73,-3.367 0,-2.059 1.53,-3.086 4.59,-3.086 1.34,0 3.82,0.336 7.46,1.004 6.88,1.144 18.69,1.719 35.42,1.719 11.94,0 27.05,-0.86 45.31,-2.579 4.68,-0.382 8.41,-0.574 11.18,-0.574 12.81,0 23.42,5.145 31.83,15.434 6.98,8.57 10.47,15.953 10.47,22.148 0,2.571 -0.88,3.809 -2.65,3.711 -1.07,-0.094 -2.15,-0.953 -3.23,-2.578 -10.69,-16.922 -34.79,-25.383 -72.3,-25.383 -11.84,0 -19.22,1.004 -22.13,3.02 -2.91,2.011 -4.36,7.086 -4.36,15.222 v 52.864 l -0.15,4.734 c 0,2.875 0.79,4.789 2.36,5.75 1.58,0.957 4.7,1.434 9.38,1.434 h 31.62 c 8.2,0 14.02,-1.145 17.46,-3.442 3.43,-2.293 5.72,-6.644 6.87,-13.047 l 0.85,-4.015 c 0.39,-2.102 1.62,-3.153 3.67,-3.153 1.86,0 2.79,1.192 2.79,3.575 0,0.859 -0.1,2.242 -0.29,4.148 -0.57,5.723 -0.86,11.488 -0.86,17.305 0,7.629 0.42,16.066 1.27,25.316 0.11,1.434 0.16,2.481 0.16,3.149 0,2.476 -0.93,3.765 -2.78,3.863 -1.96,0.094 -3.18,-1.055 -3.67,-3.442 -1.24,-6.308 -2.63,-10.324 -4.16,-12.046 -1.53,-1.719 -4.87,-3.106 -10.04,-4.157 -5.83,-1.148 -13.76,-1.722 -23.8,-1.722 h -22.08 c -4.11,0 -6.57,0.457 -7.38,1.367 -0.82,0.91 -1.22,3.574 -1.22,7.988 v 57.852 c 0,5.086 0.85,8.371 2.57,9.855 z m -164.38,0 c 1.72,1.488 5.53,2.235 11.45,2.235 h 22.47 c 14.79,0 24.95,-0.719 30.49,-2.153 5.53,-1.433 9.21,-4.301 11.02,-8.601 1.14,-2.778 1.72,-5.692 1.72,-8.75 v -3.727 c 0,-2.965 0.92,-4.398 2.78,-4.301 1.65,0.094 2.72,0.832 3.21,2.211 0.49,1.383 0.97,4.836 1.46,10.364 l 0.58,8.425 c 0.47,6.289 0.86,10.098 1.14,11.434 0.29,1.332 0.43,2.426 0.43,3.285 0,2.762 -1.57,4.145 -4.73,4.145 -1.24,0 -3.15,-0.196 -5.73,-0.575 -1.25,-0.195 -4.69,-0.382 -10.33,-0.574 l -20.36,-1.004 c -8.99,-0.383 -19.31,-0.574 -30.97,-0.574 -19.22,0 -35.66,0.766 -49.33,2.297 -4.01,0.476 -7.22,0.715 -9.6,0.715 -4.31,0 -6.46,-1.313 -6.46,-3.93 0,-1.777 1.39,-2.668 4.16,-2.668 8.7,0 14.56,-2.367 17.57,-7.109 3.01,-4.739 4.51,-13.953 4.51,-27.645 V 528.77 l -0.14,-9.336 c 0,-11.489 -3.44,-18.192 -10.32,-20.106 l -5.45,-1.578 c -2.49,-0.656 -3.73,-1.777 -3.73,-3.367 0,-2.059 1.53,-3.086 4.59,-3.086 1.34,0 3.82,0.336 7.45,1.004 6.89,1.144 18.69,1.719 35.42,1.719 11.95,0 27.05,-0.86 45.31,-2.579 4.68,-0.382 8.41,-0.574 11.19,-0.574 12.81,0 23.42,5.145 31.83,15.434 6.98,8.57 10.47,15.953 10.47,22.148 0,2.571 -0.89,3.809 -2.65,3.711 -1.08,-0.094 -2.15,-0.953 -3.23,-2.578 -10.69,-16.922 -34.8,-25.383 -72.31,-25.383 -11.84,0 -19.21,1.004 -22.12,3.02 -2.91,2.011 -4.37,7.086 -4.37,15.222 v 52.864 l -0.14,4.734 c 0,2.875 0.79,4.789 2.36,5.75 1.57,0.957 4.7,1.434 9.37,1.434 h 31.63 c 8.2,0 14.02,-1.145 17.45,-3.442 3.43,-2.293 5.72,-6.644 6.87,-13.047 l 0.86,-4.015 c 0.39,-2.102 1.61,-3.153 3.66,-3.153 1.86,0 2.79,1.192 2.79,3.575 0,0.859 -0.09,2.242 -0.29,4.148 -0.57,5.723 -0.86,11.488 -0.86,17.305 0,7.629 0.43,16.066 1.28,25.316 0.1,1.434 0.16,2.481 0.16,3.149 0,2.476 -0.93,3.765 -2.79,3.863 -1.95,0.094 -3.18,-1.055 -3.66,-3.442 -1.25,-6.308 -2.63,-10.324 -4.16,-12.046 -1.53,-1.719 -4.88,-3.106 -10.04,-4.157 -5.83,-1.148 -13.76,-1.722 -23.8,-1.722 h -22.08 c -4.12,0 -6.58,0.457 -7.39,1.367 -0.81,0.91 -1.22,3.574 -1.22,7.988 v 57.852 c 0,5.086 0.86,8.371 2.58,9.855 z m -174.3,1.813 c -11.53,-9.746 -17.28,-22.356 -17.28,-37.828 0,-13.852 4.41,-25.122 13.24,-33.817 8.83,-8.691 23.85,-16.621 45.04,-23.785 20.52,-6.887 32.93,-12.199 37.23,-15.93 8.4,-7.273 12.6,-16.218 12.6,-26.84 0,-11.097 -4.55,-20.527 -13.66,-28.273 -9.1,-7.754 -20.23,-11.629 -33.38,-11.629 -12.97,0 -24.98,4.027 -36.04,12.082 -11.06,8.055 -18.3,18.024 -21.74,29.914 -1.36,4.602 -2.92,6.949 -4.67,7.043 -1.95,0.098 -2.93,-1.289 -2.93,-4.156 0,-3.633 1.25,-9.75 3.73,-18.356 2.2,-7.933 3.4,-12.281 3.59,-13.046 1.14,-5.356 2.01,-8.676 2.58,-9.965 0.57,-1.293 1.72,-2.512 3.44,-3.656 4.11,-2.774 10.59,-5.211 19.43,-7.313 8.84,-2.102 16.94,-3.156 24.3,-3.156 20.37,0 37.05,5.683 50.05,17.051 13,11.367 19.5,25.984 19.5,43.847 0,26.363 -17.66,45.324 -52.98,56.887 -18.14,6.023 -29.53,10.187 -34.16,12.488 -4.63,2.293 -8.9,5.934 -12.81,10.906 -4.49,5.84 -6.73,12.778 -6.73,20.817 0,9.09 3.45,16.676 10.36,22.75 6.91,6.078 15.51,9.117 25.8,9.117 12.96,0 24.71,-3.359 35.24,-10.07 10.53,-6.715 17.51,-15.25 20.94,-25.614 1.56,-4.601 3.12,-6.902 4.68,-6.902 2.04,0 3.06,1.481 3.06,4.445 0,0.762 -0.24,2.723 -0.71,5.879 l -2.3,14.77 c -1.24,8.027 -1.86,12.855 -1.86,14.48 0,4.782 -1.2,7.121 -3.59,7.028 -0.76,0 -1.29,-0.196 -1.57,-0.575 l -2.01,-1.718 c -1.15,-0.957 -2.3,-1.438 -3.44,-1.438 -0.86,0 -1.72,0.192 -2.58,0.574 l -9.9,4.161 c -7.07,2.96 -15.72,4.445 -25.95,4.445 -18.17,0 -33.01,-4.875 -44.52,-14.617 z m -154.43,0 c -11.53,-9.746 -17.28,-22.356 -17.28,-37.828 0,-13.852 4.41,-25.122 13.24,-33.817 8.83,-8.691 23.85,-16.621 45.04,-23.785 20.52,-6.887 32.93,-12.199 37.23,-15.93 8.4,-7.273 12.6,-16.218 12.6,-26.84 0,-11.097 -4.55,-20.527 -13.66,-28.273 -9.1,-7.754 -20.23,-11.629 -33.39,-11.629 -12.96,0 -24.97,4.027 -36.03,12.082 -11.06,8.055 -18.3,18.024 -21.74,29.914 -1.36,4.602 -2.92,6.949 -4.67,7.043 -1.95,0.098 -2.93,-1.289 -2.93,-4.156 0,-3.633 1.25,-9.75 3.73,-18.356 2.2,-7.933 3.39,-12.281 3.59,-13.046 1.14,-5.356 2.01,-8.676 2.58,-9.965 0.57,-1.293 1.72,-2.512 3.44,-3.656 4.11,-2.774 10.59,-5.211 19.43,-7.313 8.84,-2.102 16.94,-3.156 24.3,-3.156 20.37,0 37.05,5.683 50.05,17.051 13,11.367 19.5,25.984 19.5,43.847 0,26.363 -17.66,45.324 -52.98,56.887 -18.14,6.023 -29.53,10.187 -34.16,12.488 -4.63,2.293 -8.9,5.934 -12.81,10.906 -4.49,5.84 -6.73,12.778 -6.73,20.817 0,9.09 3.45,16.676 10.36,22.75 6.91,6.078 15.51,9.117 25.8,9.117 12.96,0 24.71,-3.359 35.24,-10.07 10.53,-6.715 17.51,-15.25 20.94,-25.614 1.56,-4.601 3.12,-6.902 4.67,-6.902 2.05,0 3.07,1.481 3.07,4.445 0,0.762 -0.24,2.723 -0.71,5.879 l -2.3,14.77 c -1.24,8.027 -1.86,12.855 -1.86,14.48 0,4.782 -1.2,7.121 -3.59,7.028 -0.76,0 -1.29,-0.196 -1.58,-0.575 l -2,-1.718 c -1.15,-0.957 -2.3,-1.438 -3.44,-1.438 -0.86,0 -1.72,0.192 -2.58,0.574 l -9.9,4.161 c -7.07,2.96 -15.72,4.445 -25.95,4.445 -18.17,0 -33.01,-4.875 -44.52,-14.617 z m -147.13,-1.813 c 1.72,1.488 5.53,2.235 11.45,2.235 h 22.47 c 14.79,0 24.96,-0.719 30.49,-2.153 5.53,-1.433 9.21,-4.301 11.02,-8.601 1.15,-2.778 1.72,-5.692 1.72,-8.75 v -3.727 c 0,-2.965 0.92,-4.398 2.78,-4.301 1.65,0.094 2.72,0.832 3.21,2.211 0.49,1.383 0.98,4.836 1.47,10.364 l 0.57,8.425 c 0.48,6.289 0.86,10.098 1.15,11.434 0.28,1.332 0.43,2.426 0.43,3.285 0,2.762 -1.58,4.145 -4.74,4.145 -1.24,0 -3.15,-0.196 -5.73,-0.575 -1.25,-0.195 -4.69,-0.382 -10.33,-0.574 l -20.36,-1.004 c -8.98,-0.383 -19.31,-0.574 -30.97,-0.574 -19.21,0 -35.66,0.766 -49.33,2.297 -4.01,0.476 -7.21,0.715 -9.6,0.715 -4.3,0 -6.45,-1.313 -6.45,-3.93 0,-1.777 1.38,-2.668 4.15,-2.668 8.7,0 14.56,-2.367 17.57,-7.109 3.01,-4.739 4.52,-13.953 4.52,-27.645 V 528.77 l -0.15,-9.336 c 0,-11.489 -3.44,-18.192 -10.32,-20.106 l -5.45,-1.578 c -2.49,-0.656 -3.73,-1.777 -3.73,-3.367 0,-2.059 1.53,-3.086 4.59,-3.086 1.34,0 3.82,0.336 7.46,1.004 6.88,1.144 18.68,1.719 35.41,1.719 11.95,0 27.05,-0.86 45.31,-2.579 4.69,-0.382 8.42,-0.574 11.19,-0.574 12.81,0 23.42,5.145 31.83,15.434 6.98,8.57 10.47,15.953 10.47,22.148 0,2.571 -0.88,3.809 -2.65,3.711 -1.07,-0.094 -2.15,-0.953 -3.23,-2.578 -10.69,-16.922 -34.79,-25.383 -72.31,-25.383 -11.84,0 -19.21,1.004 -22.12,3.02 -2.91,2.011 -4.37,7.086 -4.37,15.222 v 52.864 l -0.14,4.734 c 0,2.875 0.79,4.789 2.36,5.75 1.57,0.957 4.7,1.434 9.37,1.434 h 31.63 c 8.2,0 14.02,-1.145 17.45,-3.442 3.44,-2.293 5.73,-6.644 6.87,-13.047 l 0.86,-4.015 c 0.39,-2.102 1.61,-3.153 3.67,-3.153 1.85,0 2.78,1.192 2.78,3.575 0,0.859 -0.09,2.242 -0.28,4.148 -0.58,5.723 -0.86,11.488 -0.86,17.305 0,7.629 0.42,16.066 1.27,25.316 0.11,1.434 0.16,2.481 0.16,3.149 0,2.476 -0.93,3.765 -2.79,3.863 -1.95,0.094 -3.17,-1.055 -3.66,-3.442 -1.25,-6.308 -2.63,-10.324 -4.16,-12.046 -1.53,-1.719 -4.88,-3.106 -10.04,-4.157 -5.83,-1.148 -13.76,-1.722 -23.8,-1.722 h -22.08 c -4.11,0 -6.58,0.457 -7.39,1.367 -0.81,0.91 -1.22,3.574 -1.22,7.988 v 57.852 c 0,5.086 0.86,8.371 2.58,9.855 z m -78.5,-32.898 v 15.488 c 0,9.176 0.94,15.434 2.8,18.781 1.86,3.348 5.71,5.739 11.54,7.172 2.01,0.574 2.96,1.481 2.87,2.723 -0.19,2.008 -1.53,3.012 -4.01,3.012 -1.63,0 -3.97,-0.286 -7.03,-0.86 -3.54,-0.574 -8.27,-0.859 -14.2,-0.859 -11.09,0 -19.93,0.347 -26.52,1.039 -2.78,0.262 -4.78,0.394 -6.03,0.394 -2.77,0 -4.15,-0.886 -4.15,-2.664 0,-1.867 1.38,-3.035 4.15,-3.504 9.85,-1.625 16.66,-4.136 20.44,-7.527 3.77,-3.394 6.14,-9.152 7.1,-17.277 l 1.72,-32.981 -0.15,-19.355 V 536.32 c -0.09,-1.718 -0.62,-2.629 -1.57,-2.722 -0.58,-0.098 -1.92,1.05 -4.02,3.441 l -131.92,149.41 c -2.39,2.774 -4.78,4.16 -7.17,4.16 -1.24,0 -3.01,-0.05 -5.3,-0.144 l -2.3,-0.145 -9.6,0.289 -5.88,0.145 c -1.06,0.094 -1.82,0.141 -2.3,0.141 -2.1,0 -3.15,-0.887 -3.15,-2.661 0,-1.773 1.29,-2.847 3.87,-3.218 9.94,-1.34 17.54,-6.77 22.8,-16.289 5.25,-9.516 7.88,-22.551 7.88,-39.102 v -97.578 c 0,-10.332 -1.41,-17.82 -4.23,-22.461 -2.82,-4.641 -8.24,-8.348 -16.27,-11.121 -2.77,-0.934 -4.11,-2.102 -4.02,-3.504 0.2,-1.773 1.53,-2.66 4.02,-2.66 1.05,0 2.82,0.176 5.31,0.519 3.34,0.438 6.88,0.653 10.61,0.653 l 6.88,0.261 14.62,-0.718 c 7.27,-0.379 11.43,-0.668 12.48,-0.86 1.53,-0.191 2.96,-0.285 4.3,-0.285 2.01,0 3.01,0.934 3.01,2.805 0,2.054 -1.57,3.273 -4.73,3.648 -7.55,1.145 -12.62,2.914 -15.2,5.309 -2.58,2.39 -4.21,6.746 -4.87,13.062 l -0.43,10.192 0.14,6.027 v 97.32 c 0,4.305 0.91,6.461 2.72,6.461 0.77,0 1.44,-0.289 2.01,-0.863 l 1.44,-1.574 120.87,-138.231 3.16,-3.726 c 0.76,-0.766 1.86,-1.196 3.3,-1.289 2.19,-0.098 3.53,1.027 4.01,3.367 0.48,2.34 0.72,8.914 0.72,19.715 v 120.164 l 0.28,9.461 z m -207.98,0 v 15.488 c 0,9.176 0.93,15.434 2.8,18.781 1.86,3.348 5.71,5.739 11.54,7.172 2.01,0.574 2.96,1.481 2.87,2.723 -0.19,2.008 -1.53,3.012 -4.02,3.012 -1.62,0 -3.96,-0.286 -7.02,-0.86 -3.54,-0.574 -8.27,-0.859 -14.2,-0.859 -11.09,0 -19.93,0.347 -26.52,1.039 -2.78,0.262 -4.79,0.394 -6.03,0.394 -2.77,0 -4.16,-0.886 -4.16,-2.664 0,-1.867 1.39,-3.035 4.16,-3.504 9.85,-1.625 16.66,-4.136 20.44,-7.527 3.77,-3.394 6.14,-9.152 7.09,-17.277 l 1.72,-32.981 -0.14,-19.355 V 536.32 c -0.1,-1.718 -0.62,-2.629 -1.58,-2.722 -0.57,-0.098 -1.91,1.05 -4.01,3.441 l -131.921,149.41 c -2.391,2.774 -4.782,4.16 -7.168,4.16 -1.243,0 -3.012,-0.05 -5.305,-0.144 l -2.293,-0.145 -9.609,0.289 -5.879,0.145 c -1.051,0.094 -1.817,0.141 -2.293,0.141 -2.106,0 -3.157,-0.887 -3.157,-2.661 0,-1.773 1.29,-2.847 3.872,-3.218 9.941,-1.34 17.543,-6.77 22.8,-16.289 5.254,-9.516 7.887,-22.551 7.887,-39.102 v -97.578 c 0,-10.332 -1.414,-17.82 -4.23,-22.461 -2.821,-4.641 -8.246,-8.348 -16.278,-11.121 -2.773,-0.934 -4.109,-2.102 -4.011,-3.504 0.191,-1.773 1.527,-2.66 4.011,-2.66 1.055,0 2.821,0.176 5.309,0.519 3.344,0.438 6.883,0.653 10.609,0.653 l 6.883,0.261 14.625,-0.718 c 7.266,-0.379 11.422,-0.668 12.477,-0.86 1.527,-0.191 2.961,-0.285 4.3,-0.285 2.008,0 3.012,0.934 3.012,2.805 0,2.054 -1.578,3.273 -4.73,3.648 -7.555,1.145 -12.621,2.914 -15.2,5.309 -2.582,2.39 -4.211,6.746 -4.879,13.062 l -0.429,10.192 0.144,6.027 v 97.32 c 0,4.305 0.907,6.461 2.727,6.461 0.762,0 1.434,-0.289 2.004,-0.863 l 1.433,-1.574 120.879,-138.231 3.16,-3.726 c 0.76,-0.766 1.86,-1.196 3.29,-1.289 2.2,-0.098 3.54,1.027 4.02,3.367 0.48,2.34 0.72,8.914 0.72,19.715 v 120.164 l 0.28,9.461 z m -290.899,32.898 c 1.714,1.488 5.531,2.235 11.449,2.235 h 22.472 c 14.79,0 24.954,-0.719 30.485,-2.153 5.535,-1.433 9.211,-4.301 11.023,-8.601 1.145,-2.778 1.715,-5.692 1.715,-8.75 v -3.727 c 0,-2.965 0.926,-4.398 2.781,-4.301 1.657,0.094 2.727,0.832 3.215,2.211 0.489,1.383 0.973,4.836 1.461,10.364 l 0.574,8.425 c 0.477,6.289 0.86,10.098 1.149,11.434 0.285,1.332 0.43,2.426 0.43,3.285 0,2.762 -1.579,4.145 -4.735,4.145 -1.242,0 -3.152,-0.196 -5.734,-0.575 -1.242,-0.195 -4.684,-0.382 -10.324,-0.574 l -20.36,-1.004 c -8.988,-0.383 -19.312,-0.574 -30.972,-0.574 -19.215,0 -35.657,0.766 -49.329,2.297 -4.011,0.476 -7.218,0.715 -9.605,0.715 -4.301,0 -6.453,-1.313 -6.453,-3.93 0,-1.777 1.387,-2.668 4.16,-2.668 8.695,0 14.555,-2.367 17.562,-7.109 3.012,-4.739 4.52,-13.953 4.52,-27.645 V 528.77 l -0.145,-9.336 c 0,-11.489 -3.441,-18.192 -10.324,-20.106 l -5.449,-1.578 c -2.488,-0.656 -3.727,-1.777 -3.727,-3.367 0,-2.059 1.528,-3.086 4.586,-3.086 1.34,0 3.825,0.336 7.457,1.004 6.883,1.144 18.688,1.719 35.418,1.719 11.95,0 27.051,-0.86 45.313,-2.579 4.68,-0.382 8.41,-0.574 11.184,-0.574 12.808,0 23.417,5.145 31.832,15.434 6.976,8.57 10.468,15.953 10.468,22.148 0,2.571 -0.883,3.809 -2.648,3.711 -1.078,-0.094 -2.152,-0.953 -3.231,-2.578 -10.691,-16.922 -34.797,-25.383 -72.308,-25.383 -11.836,0 -19.211,1.004 -22.121,3.02 -2.914,2.011 -4.368,7.086 -4.368,15.222 v 52.864 l -0.144,4.734 c 0,2.875 0.785,4.789 2.363,5.75 1.571,0.957 4.699,1.434 9.371,1.434 h 31.625 c 8.203,0 14.02,-1.145 17.453,-3.442 3.434,-2.293 5.723,-6.644 6.872,-13.047 l 0.859,-4.015 c 0.387,-2.102 1.613,-3.153 3.664,-3.153 1.855,0 2.785,1.192 2.785,3.575 0,0.859 -0.094,2.242 -0.285,4.148 -0.574,5.723 -0.859,11.488 -0.859,17.305 0,7.629 0.422,16.066 1.273,25.316 0.106,1.434 0.16,2.481 0.16,3.149 0,2.476 -0.929,3.765 -2.789,3.863 -1.957,0.094 -3.176,-1.055 -3.664,-3.442 -1.242,-6.308 -2.629,-10.324 -4.156,-12.046 -1.531,-1.719 -4.875,-3.106 -10.039,-4.157 -5.832,-1.148 -13.766,-1.722 -23.801,-1.722 h -22.086 c -4.109,0 -6.57,0.457 -7.383,1.367 -0.812,0.91 -1.219,3.574 -1.219,7.988 v 57.852 c 0,5.086 0.86,8.371 2.579,9.855 z m -77.754,-5.437 c 2.773,-2.059 4.781,-6.477 6.023,-13.266 0.574,-3.059 1.723,-4.539 3.442,-4.445 2.101,0.187 3.105,1.715 3.011,4.57 -0.097,1.43 -0.383,3.762 -0.859,7 -0.481,2.57 -0.719,6.66 -0.719,12.281 0,5.618 -0.551,8.996 -1.648,10.141 -1.102,1.141 -4.285,1.715 -9.543,1.715 H 547.18 c -3.254,0 -5.387,-0.696 -6.391,-2.074 -1.004,-1.383 -1.504,-4.262 -1.504,-8.645 0,-4.48 -0.719,-10.148 -2.152,-17.008 -1.149,-5.336 -1.719,-9.004 -1.719,-11.004 0,-2.476 0.859,-3.761 2.578,-3.855 1.723,-0.098 3.012,1.719 3.871,5.445 1.914,8.606 4.614,14.457 8.106,17.567 3.484,3.105 9.101,4.66 16.847,4.66 h 37.996 c 3.633,0 5.954,-0.481 6.958,-1.438 1.003,-0.957 1.503,-3.16 1.503,-6.605 l 0.145,-3.735 V 520.156 c 0,-8.043 -1.293,-13.621 -3.871,-16.734 -2.582,-3.113 -7.555,-5.149 -14.914,-6.102 -3.156,-0.375 -4.731,-1.308 -4.731,-2.8 0,-2.055 1.434,-3.079 4.309,-3.079 0.957,0 4.168,0.286 9.629,0.86 2.777,0.285 6.176,0.429 10.199,0.429 l 11.207,0.145 10.488,-0.145 c 6.801,0 11.114,-0.144 12.934,-0.429 3.547,-0.574 5.891,-0.86 7.039,-0.86 2.684,0 4.023,1.028 4.023,3.082 0,1.59 -1.671,2.665 -5.015,3.227 -12.047,2.105 -18.309,8.758 -18.785,19.961 l -0.145,5.605 v 140.75 c 0,4.496 0.551,7.325 1.649,8.473 1.097,1.149 3.75,1.723 7.961,1.723 h 40.289 c 8.031,0 13.429,-1.028 16.203,-3.082 v 0" /><path
         id="path18"
         style="fill:#545051;fill-opacity:1;fill-rule:nonzero;stroke:none"
         d="m 2048.32,807.023 c 0,2.301 0.48,3.911 1.44,4.829 0.96,0.918 2.66,1.375 5.09,1.375 l 2.62,0.062 8.31,-0.062 c 9.51,0 15.13,-2.801 16.88,-8.403 0.22,-0.64 0.32,-1.383 0.32,-2.23 v -2.164 c 0,-1.188 0.45,-1.782 1.34,-1.782 1.62,0 2.43,1.75 2.43,5.258 0,0.684 -0.06,1.52 -0.19,2.504 l -0.64,4.871 c -0.04,0.43 -0.17,1.992 -0.38,4.684 -0.13,2.223 -0.7,3.336 -1.73,3.336 -1.06,0 -2.7,-0.09 -4.92,-0.27 -6.01,-0.492 -11.89,-0.738 -17.65,-0.738 l -16.82,-0.07 -11,-0.2 c -2.85,0 -5.56,0.106 -8.12,0.321 -1.74,0.125 -2.85,0.191 -3.32,0.191 -1.45,0 -2.18,-0.633 -2.18,-1.89 0,-0.957 0.56,-1.477 1.67,-1.563 4.09,-0.215 7.2,-1.258 9.33,-3.129 1.88,-1.617 2.82,-5.109 2.82,-10.473 v -52.542 c 0,-5.106 -0.45,-8.704 -1.35,-10.79 -0.89,-2.086 -2.62,-3.554 -5.18,-4.406 -1.19,-0.39 -1.79,-1 -1.79,-1.824 0,-1.129 0.71,-1.691 2.11,-1.691 1.07,0 3.16,0.214 6.27,0.64 2.3,0.297 5.05,0.445 8.25,0.445 h 7.1 c 4.64,0 7.73,-0.085 9.27,-0.253 1.62,-0.215 2.85,-0.321 3.71,-0.321 0.94,0 1.4,0.586 1.4,1.758 0,1.043 -0.68,1.629 -2.04,1.758 -4.86,0.383 -8.1,1.641 -9.72,3.769 -2.22,2.891 -3.33,7.532 -3.33,13.918 v 7.532 l -0.06,5.109 c 0,5.32 0.49,8.383 1.47,9.191 0.98,0.809 4.67,1.215 11.06,1.215 4.99,0 8.49,-0.769 10.49,-2.3 2,-1.536 3.43,-4.543 4.28,-9.02 0.22,-1.191 0.73,-1.77 1.54,-1.727 1.15,0.086 1.73,0.575 1.73,1.469 0,0.555 -0.05,1.469 -0.13,2.742 l -0.96,12.063 c -0.26,3.316 -0.39,6.211 -0.39,8.676 0,0.765 0.03,1.425 0.07,1.98 0.08,0.809 0.13,1.359 0.13,1.66 0,1.106 -0.64,1.657 -1.92,1.657 -0.56,0 -1.02,-0.489 -1.41,-1.469 -1.58,-3.965 -3.17,-6.629 -4.79,-7.992 -1.63,-1.368 -4.01,-2.047 -7.17,-2.047 l -6.97,-0.067 -2.43,-0.062 c -1.79,0 -2.99,0.406 -3.61,1.215 -0.62,0.808 -0.93,2.406 -0.93,4.796 z m -75.73,0.192 c 4.05,-3.75 7.29,-8.813 9.72,-15.188 2.43,-6.371 3.65,-12.906 3.65,-19.597 0,-11.598 -2.63,-20.856 -7.87,-27.785 -5.24,-6.926 -12.24,-10.391 -20.97,-10.391 -9.68,0 -17.55,4.187 -23.6,12.566 -6.05,8.375 -9.08,19.258 -9.08,32.645 0,11.336 2.41,20.183 7.23,26.535 4.81,6.352 11.51,9.527 20.07,9.527 8.02,0 14.97,-2.769 20.85,-8.312 z m -36.54,9.238 c -6.38,-2.582 -11.63,-6.152 -15.77,-10.719 -3.58,-3.882 -6.41,-8.691 -8.5,-14.429 -2.09,-5.739 -3.13,-11.508 -3.13,-17.309 0,-13.523 4.13,-24.328 12.4,-32.41 8.27,-8.086 19.31,-12.129 33.12,-12.129 14.46,0 25.8,4.652 34.02,13.953 8.44,9.512 12.66,21.113 12.66,34.809 0,12.586 -4.09,22.75 -12.27,30.492 -8.19,7.742 -18.93,11.613 -32.23,11.613 -7.16,0 -13.93,-1.289 -20.3,-3.871 z m -128.5,-46.672 c 0.19,0.809 0.73,1.875 1.63,3.196 4.52,7.113 9.48,15.886 14.9,26.324 3.02,5.832 5.53,9.797 7.51,11.883 1.98,2.086 4.57,3.515 7.77,4.281 1.53,0.347 2.3,0.976 2.3,1.89 0,1 -0.57,1.5 -1.73,1.5 -2.01,0 -3.69,-0.046 -5.06,-0.128 l -5.38,-0.321 c -1.71,-0.129 -3.27,-0.191 -4.68,-0.191 -2.6,0 -4.74,0.105 -6.41,0.32 l -4.22,0.574 c -0.99,0.129 -2.08,0.192 -3.27,0.192 -1.11,0 -1.67,-0.672 -1.67,-2.02 0,-0.867 0.68,-1.386 2.05,-1.562 2.68,-0.254 5.07,-1.168 7.16,-2.742 2.09,-1.575 3.13,-3.258 3.13,-5.043 0,-2.129 -2.33,-7.407 -7,-15.832 -2.29,-4.086 -3.71,-6.684 -4.26,-7.79 -2.21,-4.339 -3.99,-6.511 -5.35,-6.511 -1.37,0 -2.77,1.488 -4.22,4.469 -0.47,1.019 -1.73,3.488 -3.78,7.406 l -4.99,9.703 c -3.11,6.043 -4.67,9.957 -4.67,11.746 0,2.211 1.64,3.637 4.92,4.277 1.45,0.301 2.18,0.91 2.18,1.825 0,1.082 -0.9,1.628 -2.68,1.628 -0.9,0 -2.66,-0.128 -5.3,-0.386 -3.58,-0.383 -7.09,-0.574 -10.54,-0.574 -3.74,0 -7.91,0.257 -12.51,0.765 -2.25,0.258 -3.91,0.387 -4.98,0.387 -1.19,0 -1.78,-0.676 -1.78,-2.016 0,-1.086 0.79,-1.691 2.36,-1.824 5.2,-0.508 9.74,-4.426 13.62,-11.746 l 9.72,-18.258 c 2.69,-5.109 5.14,-9.492 7.36,-13.152 1.87,-3.067 2.81,-6.024 2.81,-8.875 V 750.98 c 0,-5.703 -0.84,-9.703 -2.53,-12 -1.68,-2.3 -4.91,-3.832 -9.68,-4.597 -1.2,-0.176 -1.8,-0.653 -1.8,-1.434 0,-1.433 0.49,-2.148 1.47,-2.148 0.81,0 2.09,0.152 3.83,0.449 2.64,0.469 7.94,0.703 15.9,0.703 3.32,0 5.81,-0.09 7.47,-0.269 l 9.07,-0.809 c 1.19,-0.133 2.3,-0.199 3.32,-0.199 1.92,0 2.87,0.625 2.87,1.886 0,1.126 -0.68,1.735 -2.04,1.821 -7.8,0.426 -12.07,3.047 -12.79,7.859 l -0.32,4.344 v 18.848 c 0,2.089 0.1,3.535 0.29,4.347 z m -100.76,40.856 c 1.6,1 5.64,1.504 12.12,1.504 4.81,0 8.49,-0.879 11.03,-2.637 2.53,-1.754 4.25,-4.625 5.14,-8.609 0.39,-1.625 1.07,-2.438 2.05,-2.438 1.15,0 1.73,0.703 1.73,2.109 0,1.364 -0.15,3.176 -0.45,5.434 -0.38,2.727 -0.6,4.453 -0.64,5.18 l -0.32,4.605 c -0.13,1.961 -1.37,2.942 -3.71,2.942 -0.64,0 -2.07,-0.043 -4.28,-0.129 -11.22,-0.555 -21.83,-0.832 -31.85,-0.832 l -15.54,0.191 -13.04,0.129 c -3.07,0 -5.44,0.066 -7.1,0.191 -1.02,0.086 -1.75,0.129 -2.17,0.129 -1.62,0 -2.52,-0.832 -2.69,-2.496 l -0.45,-3.898 -0.76,-5.692 -0.64,-5.562 c -0.39,-2.133 -0.6,-3.797 -0.64,-4.988 -0.09,-1.321 0.57,-1.981 1.98,-1.981 0.98,0 1.7,0.875 2.17,2.629 l 0.52,1.797 c 1.27,4.664 2.29,7.582 3.03,8.758 0.75,1.179 2.25,2.234 4.51,3.175 3.11,1.243 8.93,1.864 17.46,1.864 3.62,0 5.43,-1.684 5.43,-5.051 v -56.785 l 0.07,-3.004 c 0,-3.797 -0.91,-6.789 -2.72,-8.984 -1.81,-2.196 -4.38,-3.403 -7.71,-3.614 -1.28,-0.086 -2.11,-0.269 -2.49,-0.551 -0.38,-0.285 -0.6,-0.898 -0.64,-1.851 -0.04,-1.125 0.6,-1.692 1.92,-1.692 0.55,0 1.58,0.086 3.07,0.258 l 14.13,0.832 c 1.96,0.125 4.18,0.192 6.65,0.192 1.07,0 1.92,-0.024 2.56,-0.067 l 7.99,-0.511 4.8,-0.192 c 0.76,-0.039 1.3,-0.062 1.6,-0.062 1.32,0 1.98,0.5 1.98,1.496 0,1.386 -0.77,2.148 -2.3,2.277 -5.29,0.34 -8.98,2.012 -11.07,5.02 -2.09,3.004 -3.13,8.109 -3.13,15.312 v 48.153 c 0,3.964 0.8,6.445 2.4,7.449 z m -83.55,-5.203 c 0,3.664 0.44,6.089 1.31,7.281 0.87,1.195 2.85,2.047 5.92,2.558 0.85,0.129 1.38,0.325 1.59,0.586 0.22,0.258 0.32,0.778 0.32,1.559 0,1.043 -0.7,1.562 -2.11,1.562 -2.34,0 -5.71,-0.16 -10.1,-0.488 l -4.67,-0.363 c -3.54,-0.285 -6.5,-0.426 -8.89,-0.426 -3.62,0 -6.2,0.168 -7.73,0.512 -1.54,0.297 -2.69,0.469 -3.46,0.512 -1.02,0.039 -1.53,-0.543 -1.53,-1.754 0,-0.778 0.31,-1.328 0.93,-1.653 0.61,-0.324 2.01,-0.66 4.18,-1.008 3.63,-0.55 6.12,-1.66 7.49,-3.32 1.36,-1.66 2.04,-4.445 2.04,-8.363 v -50.883 l -0.06,-5.68 c 0,-3.703 -0.5,-6.351 -1.5,-7.949 -1.01,-1.597 -3.04,-2.949 -6.11,-4.055 l -1.86,-1.5 0.13,-0.519 c 0.26,-0.914 0.85,-1.367 1.79,-1.367 0.94,0 2.47,0.203 4.61,0.609 2.47,0.445 5.84,0.668 10.1,0.668 3.45,0 7.95,-0.316 13.49,-0.941 2.22,-0.227 3.92,-0.336 5.12,-0.336 2.77,0 4.15,0.625 4.15,1.883 0,1.3 -1.04,1.953 -3.13,1.953 -3.2,0 -5.79,0.871 -7.77,2.617 -1.98,1.746 -3.23,4.262 -3.74,7.539 l -0.51,6.391 z m -98.01,7.66 c -4.58,-4.735 -6.87,-10.621 -6.87,-17.66 0,-6.055 1.64,-10.907 4.93,-14.555 3.29,-3.645 9.52,-7.52 18.7,-11.613 l 9.73,-4.344 c 4.35,-1.914 7.42,-3.953 9.19,-6.121 1.77,-2.168 2.66,-4.93 2.66,-8.289 0,-4.25 -1.7,-8.024 -5.1,-11.317 -3.39,-3.293 -7.24,-4.941 -11.55,-4.941 -5.55,0 -10.91,2.488 -16.08,7.465 -5.16,4.976 -8.79,11.121 -10.88,18.437 -0.26,1.02 -0.69,1.532 -1.28,1.532 -1.33,0 -1.99,-1.024 -1.99,-3.071 0,-1.621 0.81,-5.328 2.43,-11.125 1.07,-3.797 1.71,-6.695 1.92,-8.699 0.22,-1.832 0.48,-2.93 0.8,-3.293 0.32,-0.359 1.46,-0.734 3.42,-1.117 1.41,-0.297 3.6,-0.938 6.59,-1.918 6.39,-2.004 11.06,-3.008 14,-3.008 7.21,0 13.5,2.754 18.87,8.254 5.37,5.5 8.05,11.961 8.05,19.383 0,6.738 -1.94,12.496 -5.82,17.273 -3.29,3.965 -9.99,8.02 -20.11,12.156 -8.5,3.45 -13.55,5.942 -15.18,7.477 -2.52,2.379 -3.78,5.199 -3.78,8.473 0,3.523 1.43,6.578 4.3,9.172 2.86,2.589 6.21,3.882 10.05,3.882 5.59,0 10.89,-2.168 15.89,-6.504 4.99,-4.335 8.11,-9.48 9.35,-15.433 0.34,-1.617 0.89,-2.426 1.66,-2.426 1.06,0 1.6,0.918 1.6,2.75 0,0.34 -0.05,0.77 -0.13,1.281 l -0.64,5.817 -0.83,6.269 c -0.09,0.723 -0.13,1.492 -0.13,2.301 l 0.13,5.18 c 0,1.406 -0.45,2.109 -1.35,2.109 -0.34,0 -0.68,-0.086 -1.02,-0.254 l -2.43,-1.215 c -0.65,-0.3 -1.26,-0.449 -1.86,-0.449 -0.81,0 -2.18,0.383 -4.09,1.152 l -4.29,1.79 c -3.83,1.535 -7.75,2.3 -11.76,2.3 -6.82,0 -12.52,-2.367 -17.1,-7.101 z m -87.61,-0.41 c 1.09,1.214 3.09,1.82 6,1.82 6.49,0 11.84,-2.098 16.05,-6.297 4.21,-4.199 6.31,-9.519 6.31,-15.953 0,-4.945 -1.56,-8.824 -4.68,-11.641 -1.58,-1.449 -3.28,-2.312 -5.09,-2.59 -1.82,-0.277 -6.53,-0.414 -14.13,-0.414 -2.65,0 -4.33,0.36 -5.03,1.086 -0.71,0.727 -1.06,2.453 -1.06,5.18 V 806 c 0,3.238 0.55,5.469 1.63,6.684 z m -1.63,-43.637 c 0,1.703 0.32,2.723 0.96,3.062 l 2.88,0.512 h 3.96 c 3.37,0 5.8,-0.629 7.29,-1.887 1.49,-1.257 3.39,-4.25 5.69,-8.984 5.91,-11.977 10.72,-20.121 14.42,-24.426 3.7,-4.304 7.74,-6.457 12.12,-6.457 2.7,0 5.79,0.785 9.28,2.363 3.49,1.579 5.24,2.985 5.24,4.219 0,0.981 -0.39,1.469 -1.16,1.469 -0.42,0 -0.89,-0.063 -1.4,-0.191 -0.86,-0.168 -1.77,-0.254 -2.75,-0.254 -2.39,0 -4.47,0.765 -6.24,2.3 -1.77,1.532 -3.78,4.278 -6.04,8.243 l -6.59,11.691 -5.69,10.094 c -0.76,1.402 -1.34,2.406 -1.72,3 -0.39,0.597 -0.6,1.109 -0.64,1.535 -0.05,0.512 0.36,0.937 1.21,1.281 4.14,1.789 7.39,4.414 9.75,7.871 2.37,3.453 3.55,7.293 3.55,11.52 0,6.695 -2.66,12.254 -7.99,16.668 -5.33,4.418 -12.04,6.625 -20.14,6.625 -2.73,0 -7.7,-0.278 -14.9,-0.832 -6.14,-0.469 -11.36,-0.703 -15.67,-0.703 -3.92,0 -7.52,0.172 -10.81,0.511 -1.06,0.129 -1.83,0.192 -2.3,0.192 -1.19,0 -1.79,-0.606 -1.79,-1.817 0,-1.214 0.88,-1.949 2.62,-2.211 4.74,-0.593 8.15,-2.316 10.23,-5.168 1.28,-1.742 1.92,-5.164 1.92,-10.269 v -46.188 l -0.06,-2.488 v -6.058 c 0,-3.106 -0.56,-5.415 -1.66,-6.922 -1.11,-1.512 -3.12,-2.711 -6.01,-3.606 -0.86,-0.258 -1.28,-0.867 -1.28,-1.824 0,-1.168 0.76,-1.758 2.3,-1.758 0.47,0 1.3,0.063 2.49,0.184 l 4.29,0.367 5.37,0.488 c 2.21,0.16 4.75,0.242 7.61,0.242 3.41,0 6.95,-0.148 10.61,-0.449 1.28,-0.125 2.16,-0.191 2.62,-0.191 1.45,0 2.18,0.605 2.18,1.82 0,1.215 -0.9,1.906 -2.69,2.082 -4.39,0.426 -7.33,2.074 -8.82,4.945 -1.49,2.875 -2.24,8.352 -2.24,16.438 z m -92.32,37.465 c 0,3.625 1.08,5.777 3.26,6.457 l 4.35,0.511 h 7.8 c 6.9,0 11.9,-0.953 14.99,-2.855 3.09,-1.906 4.64,-4.977 4.64,-9.215 0,-1.93 0.4,-2.871 1.21,-2.828 1.67,0.086 2.5,1.75 2.5,4.988 0,1.621 -0.17,4.285 -0.51,7.992 -0.26,2.516 -0.39,4.266 -0.39,5.247 0,1.406 -0.62,2.109 -1.85,2.109 -0.26,0 -0.56,-0.023 -0.9,-0.063 -3.24,-0.386 -11.83,-0.578 -25.77,-0.578 l -24.23,0.258 -6.46,0.254 c -1.32,0 -2.37,0.02 -3.13,0.066 -0.98,0.083 -1.62,0.125 -1.92,0.125 -1.41,0 -2.11,-0.5 -2.11,-1.496 0,-1.089 0.57,-1.718 1.72,-1.89 4.91,-0.684 8.14,-1.875 9.69,-3.574 1.56,-1.704 2.34,-4.942 2.34,-9.708 v -50.628 c 0,-3.875 -0.24,-6.938 -0.71,-9.192 -0.51,-2.683 -1.2,-4.547 -2.08,-5.59 -0.87,-1.043 -2.52,-2.031 -4.95,-2.968 -0.98,-0.391 -1.45,-0.977 -1.41,-1.762 0.09,-0.957 0.64,-1.434 1.66,-1.434 0.77,0 2.03,0.063 3.78,0.192 6.35,0.382 11.08,0.574 14.19,0.574 4.65,0 8.34,-0.125 11.07,-0.383 l 7.41,-0.703 c 3.33,-0.34 6.35,-0.512 9.08,-0.512 4.65,0 8.38,0.715 11.19,2.149 2.82,1.433 5.16,3.816 7.04,7.148 2.26,3.934 3.39,7.996 3.39,12.184 0,0.554 -0.19,1.015 -0.55,1.379 -0.36,0.363 -0.75,0.5 -1.18,0.418 -0.21,-0.043 -0.47,-0.321 -0.77,-0.832 -5.33,-10.532 -16.64,-15.793 -33.95,-15.793 -2.05,0 -3.56,0.339 -4.54,1.019 -0.98,0.68 -1.84,1.981 -2.56,3.895 -0.94,2.636 -1.41,6.957 -1.41,12.957 v 5.746 c 0,4.597 0.13,7.961 0.39,10.09 0.25,1.871 0.75,3.113 1.5,3.73 0.75,0.617 2.14,0.926 4.19,0.926 h 4.35 c 4.39,0 7.38,-0.149 8.98,-0.445 1.6,-0.301 2.95,-0.961 4.06,-1.985 2,-1.875 3.28,-4.625 3.84,-8.246 0.25,-1.707 0.91,-2.516 1.98,-2.43 0.51,0.039 0.85,0.192 1.02,0.446 0.13,0.215 0.2,0.621 0.2,1.218 l -0.07,3.27 c 0,2.434 -0.13,5.297 -0.38,8.586 -0.39,5.039 -0.58,8.246 -0.58,9.613 0,0.766 0.04,1.707 0.13,2.817 0.13,1.539 0.19,2.48 0.19,2.82 0,1.195 -0.47,1.773 -1.41,1.73 -0.89,-0.043 -1.53,-0.449 -1.91,-1.214 l -1.47,-3.133 C 1366.3,783.32 1363.04,781 1358.82,781 h -5.43 l -2.82,-0.066 -1.91,-0.063 c -2.22,0 -3.62,0.531 -4.19,1.598 -0.58,1.066 -0.87,3.582 -0.87,7.547 v 13.875 l 0.07,2.621 z m -109.95,3.332 c 0,3.109 1.58,4.937 4.74,5.492 1.79,0.348 2.68,1.019 2.68,2.016 0,1.171 -0.59,1.757 -1.79,1.757 -0.85,0 -2.7,-0.086 -5.55,-0.254 l -6.7,-0.32 -10.72,0.32 c -2.9,0 -5.43,0.125 -7.6,0.383 -0.94,0.086 -1.58,0.129 -1.92,0.129 -1.19,0 -1.78,-0.586 -1.78,-1.758 0,-1.082 0.85,-1.797 2.56,-2.144 2.98,-0.641 5.33,-2.215 7.06,-4.731 1.73,-2.511 4.06,-7.687 7,-15.523 2.47,-6.691 5.57,-14.25 9.28,-22.684 l 15.15,-34.379 1.6,-3.898 1.47,-3.258 c 0.47,-1.023 1.12,-1.535 1.94,-1.535 1.21,0 2.23,0.961 3.05,2.879 0.29,0.723 1.6,3.449 3.9,8.176 0.3,0.554 2.21,4.769 5.75,12.652 l 10.94,24.09 9.52,22.043 c 2.9,6.519 5.13,10.812 6.69,12.879 1.55,2.066 3.57,3.332 6.04,3.801 1.28,0.257 1.92,0.89 1.92,1.886 0,1.086 -0.39,1.629 -1.15,1.629 -0.6,0 -1.45,-0.086 -2.55,-0.254 -2.85,-0.511 -6.22,-0.769 -10.09,-0.769 -1.27,0 -3.42,0.086 -6.44,0.258 l -6.7,0.382 c -1.83,0.086 -3.02,0.129 -3.58,0.129 -1.06,0 -1.59,-0.5 -1.59,-1.5 0,-1 0.74,-1.59 2.24,-1.761 3.45,-0.512 6.1,-1.61 7.96,-3.289 1.85,-1.684 2.78,-3.844 2.78,-6.485 0,-4.644 -2.38,-12.203 -7.12,-22.68 l -14.44,-31.941 c -0.55,-1.234 -1.07,-1.832 -1.54,-1.789 -0.51,0.043 -1.09,0.832 -1.73,2.363 l -14.27,34.946 c -4.67,11.328 -7.01,18.906 -7.01,22.742 z m -60.25,-4.41 c 0,3.664 0.44,6.089 1.31,7.281 0.88,1.195 2.85,2.047 5.92,2.558 0.85,0.129 1.38,0.325 1.6,0.586 0.21,0.258 0.32,0.778 0.32,1.559 0,1.043 -0.71,1.562 -2.11,1.562 -2.35,0 -5.72,-0.16 -10.11,-0.488 l -4.67,-0.363 c -3.54,-0.285 -6.5,-0.426 -8.88,-0.426 -3.63,0 -6.21,0.168 -7.74,0.512 -1.54,0.297 -2.69,0.469 -3.45,0.512 -1.03,0.039 -1.54,-0.543 -1.54,-1.754 0,-0.778 0.31,-1.328 0.93,-1.653 0.62,-0.324 2.01,-0.66 4.19,-1.008 3.62,-0.55 6.11,-1.66 7.48,-3.32 1.36,-1.66 2.04,-4.445 2.04,-8.363 v -50.883 l -0.06,-5.68 c 0,-3.703 -0.5,-6.351 -1.5,-7.949 -1,-1.597 -3.04,-2.949 -6.11,-4.055 l -1.85,-1.5 0.12,-0.519 c 0.26,-0.914 0.86,-1.367 1.79,-1.367 0.94,0 2.48,0.203 4.61,0.609 2.47,0.445 5.84,0.668 10.1,0.668 3.45,0 7.95,-0.316 13.49,-0.941 2.22,-0.227 3.93,-0.336 5.12,-0.336 2.77,0 4.16,0.625 4.16,1.883 0,1.3 -1.05,1.953 -3.14,1.953 -3.19,0 -5.78,0.871 -7.77,2.617 -1.98,1.746 -3.23,4.262 -3.74,7.539 l -0.51,6.391 z m -113.54,2.359 -4.4,5.176 c -2.47,2.941 -4.09,4.703 -4.85,5.277 -0.77,0.574 -1.81,0.863 -3.13,0.863 -0.94,0 -2.12,-0.062 -3.53,-0.191 -3.8,-0.383 -7.37,-0.574 -10.7,-0.574 l -2.7,-0.067 -4.42,0.192 c -1.45,0 -2.18,-0.606 -2.18,-1.824 0,-1 0.66,-1.543 1.98,-1.629 9.68,-0.68 14.52,-7.571 14.52,-20.668 V 766.66 l -0.45,-15.183 c 0,-5.231 -0.71,-9.239 -2.14,-12.024 -1.43,-2.785 -3.7,-4.625 -6.81,-5.519 -1.24,-0.348 -1.86,-0.954 -1.86,-1.825 0,-1.043 0.58,-1.562 1.73,-1.562 0.69,0 1.77,0.121 3.27,0.363 3.37,0.61 7.22,0.914 11.53,0.914 4.36,0 8.33,-0.297 11.92,-0.894 1.15,-0.172 1.99,-0.254 2.5,-0.254 1.32,0 1.98,0.648 1.98,1.949 0,0.957 -0.64,1.5 -1.91,1.629 -6.91,0.641 -11.07,3.344 -12.47,8.113 -1.33,4.473 -1.99,13.332 -1.99,26.574 v 24.786 l 0.07,1.855 c 0,1.914 0.51,2.875 1.53,2.875 0.38,0 1.09,-0.555 2.11,-1.664 l 58.17,-64.648 c 0.81,-0.895 1.6,-1.364 2.36,-1.407 0.87,-0.043 1.3,0.532 1.3,1.727 l -0.26,7.984 -0.07,4.856 0.07,7.093 0.26,5.497 0.9,39.933 v 3.133 c 0,8.73 2.75,13.609 8.25,14.633 1.37,0.215 2.05,0.867 2.05,1.949 0,1.215 -0.69,1.824 -2.05,1.824 -0.39,0 -1.01,-0.043 -1.86,-0.129 -6.41,-0.812 -11.08,-1.215 -14.03,-1.215 -1.45,0 -3.29,0.129 -5.51,0.383 -3.42,0.426 -5.9,0.641 -7.43,0.641 -1.24,0 -1.86,-0.567 -1.86,-1.699 0,-0.91 0.7,-1.414 2.11,-1.5 5.92,-0.426 9.9,-2.407 11.92,-5.938 2.03,-3.535 3.04,-10.308 3.04,-20.316 0,-8.516 -0.19,-17.477 -0.57,-26.887 -0.09,-2.598 -0.58,-3.898 -1.47,-3.898 -0.98,0 -2.91,1.621 -5.81,4.859 l -2.17,2.43 -33.81,37.984 c -0.34,0.426 -1.39,1.664 -3.13,3.711 z m -86.313,9.945 c 0,-1.261 0.832,-1.89 2.496,-1.89 3.793,0 6.797,-1.098 9.016,-3.293 2.215,-2.196 3.453,-5.274 3.711,-9.239 l 0.316,-13.109 v -5.18 c 0,-11.808 -0.715,-20.867 -2.14,-27.175 -1.43,-6.313 -3.848,-11.106 -7.258,-14.391 -5.074,-4.859 -11.723,-7.289 -19.949,-7.289 -8.059,0 -14.668,2.367 -19.825,7.098 -3.41,3.113 -5.66,6.855 -6.746,11.222 -1.086,4.371 -1.629,11.715 -1.629,22.031 l -0.129,11.317 1.024,16.113 c 0.211,4.137 0.766,6.918 1.66,8.348 0.898,1.426 2.645,2.398 5.246,2.906 1.278,0.262 2.086,0.52 2.43,0.781 0.34,0.258 0.512,0.735 0.512,1.43 0,1.254 -1.11,1.883 -3.321,1.883 -0.894,0 -2.363,-0.086 -4.406,-0.254 -5.066,-0.473 -9.684,-0.703 -13.852,-0.703 -2.937,0 -7.109,0.254 -12.511,0.765 -1.278,0.129 -2.153,0.192 -2.621,0.192 -1.446,0 -2.168,-0.563 -2.168,-1.692 0,-1.043 0.832,-1.691 2.492,-1.953 2.601,-0.383 4.945,-1.066 7.035,-2.043 1.789,-0.855 2.973,-1.875 3.547,-3.07 0.578,-1.191 0.863,-3.238 0.863,-6.133 l 0.195,-11.629 -0.707,-24.726 c 0,-16.063 4.075,-26.883 12.215,-32.461 6.012,-4.09 14.453,-6.137 25.325,-6.137 15.386,0 26.3,4.965 32.738,14.891 2.683,4.086 4.636,9.902 5.851,17.445 1.215,7.539 1.821,17.461 1.821,29.773 l 0.129,7.86 -0.063,5.558 c 0,6.563 1.66,10.118 4.988,10.672 l 2.428,0.449 c 1.07,0.172 1.6,0.696 1.6,1.563 0,1.133 -0.58,1.699 -1.73,1.699 -0.64,0 -1.35,-0.043 -2.12,-0.129 -1.619,-0.215 -3.498,-0.406 -5.635,-0.578 l -6.281,-0.254 -6.793,0.321 c -2.648,0.128 -4.336,0.253 -5.059,0.382 -0.683,0.168 -1.175,0.235 -1.476,0.192 -0.813,-0.043 -1.219,-0.563 -1.219,-1.563 z M 792.176,806.512 c 0,3.625 1.086,5.777 3.262,6.457 l 4.347,0.511 h 7.801 c 6.906,0 11.902,-0.953 14.996,-2.855 3.09,-1.906 4.633,-4.977 4.633,-9.215 0,-1.93 0.406,-2.871 1.215,-2.828 1.664,0.086 2.496,1.75 2.496,4.988 0,1.621 -0.172,4.285 -0.512,7.992 -0.258,2.516 -0.383,4.266 -0.383,5.247 0,1.406 -0.621,2.109 -1.855,2.109 -0.254,0 -0.555,-0.023 -0.895,-0.063 -3.242,-0.386 -11.832,-0.578 -25.769,-0.578 l -24.235,0.258 -6.461,0.254 c -1.32,0 -2.367,0.02 -3.132,0.066 -0.981,0.083 -1.622,0.125 -1.918,0.125 -1.407,0 -2.11,-0.5 -2.11,-1.496 0,-1.089 0.574,-1.718 1.727,-1.89 4.902,-0.684 8.129,-1.875 9.687,-3.574 1.555,-1.704 2.332,-4.942 2.332,-9.708 v -50.628 c 0,-3.875 -0.234,-6.938 -0.703,-9.192 -0.511,-2.683 -1.203,-4.547 -2.078,-5.59 -0.871,-1.043 -2.523,-2.031 -4.953,-2.968 -0.984,-0.391 -1.453,-0.977 -1.41,-1.762 0.086,-0.957 0.64,-1.434 1.664,-1.434 0.766,0 2.023,0.063 3.773,0.192 6.352,0.382 11.082,0.574 14.196,0.574 4.644,0 8.332,-0.125 11.062,-0.383 l 7.418,-0.703 c 3.324,-0.34 6.352,-0.512 9.078,-0.512 4.649,0 8.379,0.715 11.192,2.149 2.812,1.433 5.156,3.816 7.035,7.148 2.258,3.934 3.386,7.996 3.386,12.184 0,0.554 -0.179,1.015 -0.542,1.379 -0.364,0.363 -0.758,0.5 -1.184,0.418 -0.211,-0.043 -0.469,-0.321 -0.766,-0.832 -5.328,-10.532 -16.648,-15.793 -33.957,-15.793 -2.043,0 -3.558,0.339 -4.539,1.019 -0.98,0.68 -1.832,1.981 -2.554,3.895 -0.942,2.636 -1.411,6.957 -1.411,12.957 v 5.746 c 0,4.597 0.129,7.961 0.383,10.09 0.258,1.871 0.758,3.113 1.504,3.73 0.746,0.617 2.145,0.926 4.188,0.926 h 4.351 c 4.391,0 7.383,-0.149 8.985,-0.445 1.597,-0.301 2.949,-0.961 4.058,-1.985 2.004,-1.875 3.281,-4.625 3.836,-8.246 0.258,-1.707 0.918,-2.516 1.984,-2.43 0.512,0.039 0.852,0.192 1.024,0.446 0.125,0.215 0.191,0.621 0.191,1.218 l -0.066,3.27 c 0,2.434 -0.125,5.297 -0.383,8.586 -0.383,5.039 -0.574,8.246 -0.574,9.613 0,0.766 0.043,1.707 0.129,2.817 0.125,1.539 0.191,2.48 0.191,2.82 0,1.195 -0.472,1.773 -1.406,1.73 -0.899,-0.043 -1.535,-0.449 -1.918,-1.214 l -1.473,-3.133 C 814.812,783.32 811.551,781 807.328,781 h -5.433 l -2.813,-0.066 -1.922,-0.063 c -2.215,0 -3.609,0.531 -4.187,1.598 -0.575,1.066 -0.864,3.582 -0.864,7.547 v 13.875 l 0.067,2.621 z m -78.051,-33.09 c 0.555,-0.871 0.828,-3.395 0.828,-7.567 v -14.043 l -0.062,-3.449 c 0,-4.425 -0.629,-7.722 -1.887,-9.894 -1.258,-2.172 -3.336,-3.492 -6.234,-3.957 -1.067,-0.133 -1.598,-0.653 -1.598,-1.563 0,-1.433 0.68,-2.148 2.047,-2.148 0.679,0 2.324,0.152 4.922,0.449 4.39,0.469 7.929,0.703 10.617,0.703 4.176,0 8.801,-0.301 13.875,-0.894 2.215,-0.258 3.707,-0.383 4.476,-0.383 2.215,0 3.325,0.672 3.325,2.015 0,1.125 -0.789,1.692 -2.368,1.692 -4.39,0 -7.554,1.328 -9.496,3.988 -1.937,2.66 -2.906,7.012 -2.906,13.059 v 54.843 c 0,5.489 2.516,8.661 7.543,9.512 1.238,0.215 1.855,0.801 1.855,1.758 0,1.172 -0.765,1.758 -2.3,1.758 -1.578,0 -3.903,-0.149 -6.969,-0.446 -5.117,-0.554 -8.484,-0.832 -10.105,-0.832 -4.649,0 -8.719,0.27 -12.215,0.805 -2.043,0.317 -3.453,0.473 -4.219,0.473 -1.363,0 -2.047,-0.629 -2.047,-1.887 0,-1.039 0.598,-1.668 1.789,-1.887 l 2.942,-0.574 c 6.011,-1.109 9.015,-4.391 9.015,-9.848 v -13.746 c 0,-4.734 -0.285,-7.621 -0.859,-8.668 -0.578,-1.043 -2.164,-1.566 -4.766,-1.566 h -29.863 c -3.496,0 -5.551,0.371 -6.168,1.117 -0.621,0.746 -0.93,3.289 -0.93,7.629 v 16.402 c 0,5.489 2.516,8.661 7.547,9.512 1.234,0.215 1.856,0.801 1.856,1.758 0,1.172 -0.77,1.758 -2.305,1.758 -1.578,0 -3.899,-0.149 -6.969,-0.446 -5.16,-0.554 -8.527,-0.832 -10.101,-0.832 -4.649,0 -8.7,0.27 -12.153,0.805 -2.047,0.317 -3.453,0.473 -4.219,0.473 -1.367,0 -2.046,-0.629 -2.046,-1.887 0,-0.996 0.597,-1.625 1.789,-1.887 4.562,-0.894 7.683,-2.074 9.371,-3.543 1.683,-1.472 2.523,-3.761 2.523,-6.871 v -53.289 l -0.062,-3.449 c 0,-4.43 -0.629,-7.73 -1.887,-9.902 -1.258,-2.172 -3.336,-3.496 -6.234,-3.961 -1.067,-0.133 -1.598,-0.653 -1.598,-1.563 0,-1.433 0.68,-2.148 2.047,-2.148 0.679,0 2.32,0.152 4.922,0.449 4.39,0.469 7.906,0.703 10.55,0.703 4.219,0 8.844,-0.301 13.875,-0.894 2.258,-0.258 3.774,-0.383 4.539,-0.383 2.219,0 3.329,0.672 3.329,2.015 0,1.125 -0.727,1.692 -2.176,1.692 -4.477,0 -7.695,1.328 -9.656,3.988 -1.961,2.66 -2.942,7.012 -2.942,13.059 v 15.898 c 0,3.36 0.352,5.434 1.055,6.223 0.707,0.789 2.57,1.179 5.598,1.179 h 30.308 c 2.645,0 4.242,-0.433 4.797,-1.308 z m -122.496,37.215 c 1.598,1 5.637,1.504 12.113,1.504 4.82,0 8.496,-0.879 11.031,-2.637 2.536,-1.754 4.254,-4.625 5.149,-8.609 0.383,-1.625 1.066,-2.438 2.047,-2.438 1.152,0 1.726,0.703 1.726,2.109 0,1.364 -0.148,3.176 -0.449,5.434 -0.383,2.727 -0.598,4.453 -0.637,5.18 l -0.32,4.605 c -0.129,1.961 -1.367,2.942 -3.711,2.942 -0.637,0 -2.066,-0.043 -4.281,-0.129 -11.215,-0.555 -21.828,-0.832 -31.848,-0.832 l -15.539,0.191 -13.043,0.129 c -3.07,0 -5.433,0.066 -7.097,0.191 -1.024,0.086 -1.75,0.129 -2.176,0.129 -1.617,0 -2.516,-0.832 -2.684,-2.496 l -0.449,-3.898 -0.766,-5.692 -0.64,-5.562 c -0.383,-2.133 -0.598,-3.797 -0.637,-4.988 -0.09,-1.321 0.574,-1.981 1.98,-1.981 0.981,0 1.704,0.875 2.172,2.629 l 0.516,1.797 c 1.277,4.664 2.289,7.582 3.035,8.758 0.746,1.179 2.246,2.234 4.508,3.175 3.113,1.243 8.93,1.864 17.457,1.864 3.625,0 5.434,-1.684 5.434,-5.051 v -56.785 l 0.066,-3.004 c 0,-3.797 -0.906,-6.789 -2.719,-8.984 -1.812,-2.196 -4.379,-3.403 -7.707,-3.614 -1.277,-0.086 -2.109,-0.269 -2.492,-0.551 -0.383,-0.285 -0.598,-0.898 -0.641,-1.851 -0.043,-1.125 0.598,-1.692 1.922,-1.692 0.551,0 1.574,0.086 3.067,0.258 l 14.132,0.832 c 1.961,0.125 4.176,0.192 6.653,0.192 1.062,0 1.918,-0.024 2.554,-0.067 l 7.997,-0.511 4.793,-0.192 c 0.769,-0.039 1.3,-0.062 1.597,-0.062 1.324,0 1.985,0.5 1.985,1.496 0,1.386 -0.766,2.148 -2.301,2.277 -5.289,0.34 -8.977,2.012 -11.063,5.02 -2.09,3.004 -3.133,8.109 -3.133,15.312 v 48.153 c 0,3.964 0.797,6.445 2.399,7.449 v 0" /><path
         id="path20"
         style="fill:#545051;fill-opacity:1;fill-rule:nonzero;stroke:none"
         d="m 1356.2,430.074 c 0,3.625 1.09,5.778 3.26,6.461 l 4.35,0.512 h 7.8 c 6.91,0 11.9,-0.953 14.99,-2.859 3.09,-1.907 4.64,-4.977 4.64,-9.215 0,-1.926 0.41,-2.868 1.22,-2.825 1.66,0.082 2.49,1.747 2.49,4.985 0,1.621 -0.17,4.285 -0.51,7.996 -0.26,2.516 -0.39,4.262 -0.39,5.242 0,1.406 -0.61,2.109 -1.85,2.109 -0.26,0 -0.55,-0.019 -0.9,-0.062 -3.24,-0.387 -11.83,-0.574 -25.77,-0.574 l -24.23,0.254 -6.46,0.254 c -1.32,0 -2.36,0.023 -3.13,0.066 -0.98,0.086 -1.62,0.129 -1.92,0.129 -1.41,0 -2.11,-0.5 -2.11,-1.5 0,-1.086 0.57,-1.719 1.73,-1.891 4.9,-0.679 8.13,-1.871 9.68,-3.574 1.56,-1.703 2.34,-4.937 2.34,-9.703 v -50.633 c 0,-3.871 -0.24,-6.937 -0.71,-9.191 -0.51,-2.684 -1.2,-4.543 -2.07,-5.586 -0.88,-1.043 -2.53,-2.035 -4.96,-2.969 -0.98,-0.395 -1.45,-0.98 -1.41,-1.762 0.09,-0.957 0.64,-1.437 1.67,-1.437 0.76,0 2.02,0.062 3.77,0.191 6.35,0.387 11.08,0.578 14.19,0.578 4.65,0 8.34,-0.129 11.07,-0.386 l 7.41,-0.704 c 3.33,-0.339 6.36,-0.511 9.08,-0.511 4.65,0 8.38,0.719 11.19,2.148 2.82,1.434 5.16,3.817 7.04,7.153 2.26,3.929 3.39,7.992 3.39,12.179 0,0.559 -0.18,1.016 -0.55,1.379 -0.36,0.363 -0.75,0.504 -1.18,0.418 -0.21,-0.043 -0.47,-0.32 -0.77,-0.832 -5.33,-10.527 -16.64,-15.793 -33.95,-15.793 -2.05,0 -3.56,0.34 -4.54,1.02 -0.98,0.683 -1.83,1.98 -2.56,3.894 -0.94,2.641 -1.41,6.957 -1.41,12.961 v 5.746 c 0,4.594 0.13,7.957 0.39,10.086 0.25,1.871 0.75,3.113 1.5,3.734 0.75,0.618 2.14,0.926 4.19,0.926 h 4.35 c 4.39,0 7.38,-0.152 8.98,-0.449 1.6,-0.297 2.95,-0.961 4.06,-1.98 2.01,-1.879 3.28,-4.629 3.84,-8.25 0.25,-1.707 0.92,-2.516 1.98,-2.43 0.51,0.043 0.85,0.191 1.02,0.449 0.13,0.211 0.2,0.617 0.2,1.215 l -0.07,3.269 c 0,2.434 -0.13,5.297 -0.38,8.586 -0.38,5.04 -0.58,8.247 -0.58,9.614 0,0.769 0.05,1.707 0.13,2.816 0.13,1.539 0.19,2.481 0.19,2.82 0,1.2 -0.47,1.774 -1.4,1.731 -0.9,-0.043 -1.54,-0.445 -1.92,-1.215 l -1.47,-3.133 c -2.31,-4.644 -5.57,-6.969 -9.79,-6.969 h -5.43 l -2.82,-0.066 -1.91,-0.062 c -2.22,0 -3.62,0.535 -4.19,1.597 -0.58,1.067 -0.87,3.582 -0.87,7.547 v 13.875 l 0.07,2.621 z m -87.98,0.078 c 0,5.621 2.15,8.578 6.45,8.875 1.84,0.086 2.75,0.653 2.75,1.696 0,1.215 -1.28,1.824 -3.84,1.824 -3.46,0 -6.85,-0.172 -10.18,-0.516 -4.49,-0.508 -7.75,-0.765 -9.8,-0.765 -1.29,0 -3.23,0.129 -5.83,0.382 l -2.76,0.196 c -1.06,0.125 -1.9,0.211 -2.49,0.254 -0.82,0.129 -1.44,0.191 -1.86,0.191 -1.28,0 -1.92,-0.648 -1.92,-1.949 0,-1.043 0.81,-1.692 2.43,-1.949 l 3.83,-0.641 c 5.67,-0.891 8.51,-4.742 8.51,-11.547 v -53.332 c 0,-4.973 -0.52,-8.559 -1.57,-10.746 -1.04,-2.191 -2.93,-3.668 -5.66,-4.434 -1.11,-0.304 -1.66,-0.847 -1.66,-1.629 0,-1.132 0.62,-1.699 1.85,-1.699 0.6,0 1.77,0.106 3.52,0.309 5.71,0.648 11.04,0.973 15.99,0.973 2.98,0 5.65,-0.067 7.99,-0.192 l 6.97,-0.32 c 4.35,-0.254 6.91,-0.406 7.67,-0.449 2.94,-0.211 4.97,-0.321 6.08,-0.321 5.37,0 9.61,1.879 12.72,5.629 3.54,4.262 5.31,9.102 5.31,14.516 0,1.746 -0.39,2.621 -1.17,2.621 -0.47,0 -1.64,-1.297 -3.5,-3.887 -6.03,-8.492 -16.27,-12.738 -30.72,-12.738 -3.1,0 -5.18,0.277 -6.25,0.828 -1.91,0.98 -2.86,5.449 -2.86,13.41 z m -87.99,0 c 0,5.621 2.15,8.578 6.46,8.875 1.83,0.086 2.75,0.653 2.75,1.696 0,1.215 -1.28,1.824 -3.84,1.824 -3.46,0 -6.86,-0.172 -10.19,-0.516 -4.48,-0.508 -7.75,-0.765 -9.8,-0.765 -1.28,0 -3.22,0.129 -5.83,0.382 l -2.75,0.196 c -1.07,0.125 -1.9,0.211 -2.5,0.254 -0.81,0.129 -1.43,0.191 -1.86,0.191 -1.28,0 -1.92,-0.648 -1.92,-1.949 0,-1.043 0.81,-1.692 2.43,-1.949 l 3.84,-0.641 c 5.67,-0.891 8.5,-4.742 8.5,-11.547 v -53.332 c 0,-4.973 -0.52,-8.559 -1.56,-10.746 -1.05,-2.191 -2.93,-3.668 -5.66,-4.434 -1.11,-0.304 -1.66,-0.847 -1.66,-1.629 0,-1.132 0.61,-1.699 1.85,-1.699 0.6,0 1.77,0.106 3.52,0.309 5.71,0.648 11.04,0.973 15.98,0.973 2.99,0 5.65,-0.067 8,-0.192 l 6.97,-0.32 c 4.34,-0.254 6.9,-0.406 7.67,-0.449 2.94,-0.211 4.97,-0.321 6.07,-0.321 5.38,0 9.62,1.879 12.73,5.629 3.54,4.262 5.31,9.102 5.31,14.516 0,1.746 -0.39,2.621 -1.17,2.621 -0.48,0 -1.64,-1.297 -3.5,-3.887 -6.04,-8.492 -16.28,-12.738 -30.72,-12.738 -3.11,0 -5.19,0.277 -6.25,0.828 -1.91,0.98 -2.87,5.449 -2.87,13.41 z m -62.51,-1.156 c 0,3.664 0.44,6.09 1.31,7.285 0.87,1.192 2.85,2.043 5.92,2.555 0.85,0.129 1.38,0.324 1.59,0.586 0.22,0.258 0.32,0.781 0.32,1.562 0,1.039 -0.7,1.563 -2.11,1.563 -2.34,0 -5.71,-0.164 -10.1,-0.488 l -4.67,-0.368 c -3.54,-0.285 -6.5,-0.425 -8.89,-0.425 -3.62,0 -6.2,0.172 -7.73,0.511 -1.54,0.297 -2.69,0.469 -3.46,0.512 -1.02,0.043 -1.53,-0.543 -1.53,-1.75 0,-0.781 0.31,-1.332 0.93,-1.656 0.61,-0.324 2.01,-0.66 4.18,-1.004 3.63,-0.555 6.12,-1.66 7.49,-3.32 1.36,-1.661 2.04,-4.45 2.04,-8.364 v -50.883 l -0.06,-5.683 c 0,-3.703 -0.5,-6.352 -1.5,-7.949 -1.01,-1.598 -3.04,-2.95 -6.11,-4.055 l -1.86,-1.496 0.13,-0.524 c 0.26,-0.91 0.85,-1.367 1.79,-1.367 0.94,0 2.47,0.203 4.61,0.61 2.47,0.445 5.84,0.668 10.1,0.668 3.45,0 7.95,-0.313 13.49,-0.942 2.22,-0.222 3.92,-0.336 5.12,-0.336 2.77,0 4.15,0.629 4.15,1.883 0,1.305 -1.04,1.953 -3.13,1.953 -3.2,0 -5.79,0.871 -7.77,2.621 -1.98,1.746 -3.23,4.258 -3.74,7.539 l -0.51,6.387 z m -109.04,4.41 c 0,3.11 1.58,4.942 4.73,5.492 1.79,0.348 2.69,1.024 2.69,2.02 0,1.172 -0.6,1.754 -1.79,1.754 -0.85,0 -2.7,-0.086 -5.55,-0.254 l -6.7,-0.32 -10.728,0.32 c -2.894,0 -5.426,0.129 -7.598,0.383 -0.933,0.086 -1.574,0.129 -1.914,0.129 -1.191,0 -1.789,-0.586 -1.789,-1.754 0,-1.086 0.856,-1.801 2.559,-2.149 2.984,-0.636 5.34,-2.215 7.066,-4.726 1.727,-2.516 4.063,-7.692 7.004,-15.528 2.473,-6.691 5.56,-14.25 9.27,-22.683 l 15.16,-34.375 1.59,-3.903 1.48,-3.257 c 0.47,-1.02 1.12,-1.532 1.94,-1.532 1.21,0 2.22,0.957 3.04,2.875 0.3,0.723 1.6,3.45 3.9,8.18 0.3,0.555 2.22,4.77 5.76,12.649 l 10.93,24.089 9.53,22.047 c 2.9,6.516 5.13,10.809 6.68,12.875 1.56,2.067 3.57,3.332 6.05,3.801 1.27,0.262 1.91,0.891 1.91,1.891 0,1.082 -0.38,1.625 -1.14,1.625 -0.6,0 -1.45,-0.082 -2.56,-0.254 -2.85,-0.512 -6.21,-0.77 -10.08,-0.77 -1.28,0 -3.43,0.086 -6.45,0.258 l -6.7,0.383 c -1.83,0.086 -3.02,0.129 -3.57,0.129 -1.06,0 -1.6,-0.5 -1.6,-1.5 0,-1 0.75,-1.586 2.24,-1.762 3.45,-0.512 6.11,-1.605 7.96,-3.289 1.86,-1.684 2.78,-3.844 2.78,-6.484 0,-4.645 -2.37,-12.204 -7.12,-22.68 l -14.43,-31.941 c -0.56,-1.235 -1.07,-1.833 -1.54,-1.79 -0.52,0.043 -1.09,0.833 -1.74,2.368 l -14.26,34.941 c -4.67,11.328 -7.01,18.91 -7.01,22.742 z m -79.977,7.321 c -0.086,-1.129 0.637,-1.801 2.172,-2.02 l 2.879,-0.445 c 3.539,-0.469 5.308,-2.106 5.308,-4.918 0,-1.489 -0.441,-2.938 -1.316,-4.34 -0.875,-1.406 -3.066,-4.129 -6.57,-8.172 l -6.672,-7.918 -2.949,-3.445 c -0.684,-0.77 -1.239,-1.172 -1.668,-1.215 -0.727,-0.043 -1.754,0.894 -3.082,2.808 l -4.625,6.704 -4.43,6.066 c -2.914,4.598 -4.477,8.129 -4.691,10.598 -0.086,1.066 0.386,2.066 1.41,3 1.019,0.937 2.277,1.511 3.769,1.726 1.535,0.172 2.305,0.844 2.305,2.02 0,1.125 -0.66,1.687 -1.981,1.687 -0.937,0 -2.3,-0.086 -4.085,-0.254 l -5.938,-0.64 c -2.344,-0.254 -5.109,-0.383 -8.301,-0.383 -3.363,0 -8.535,0.258 -15.515,0.766 -1.661,0.128 -2.852,0.195 -3.575,0.195 -1.363,0 -2.043,-0.629 -2.043,-1.887 0,-1.129 0.809,-1.84 2.43,-2.144 4.008,-0.766 7.246,-2.364 9.719,-4.789 2.473,-2.426 7.687,-9.192 15.648,-20.301 2.809,-3.957 5.258,-7.297 7.344,-10.024 3.192,-4.172 4.789,-6.703 4.789,-7.597 0,-0.895 -1.578,-3.043 -4.726,-6.45 -2.086,-2.21 -5.579,-6.257 -10.469,-12.128 -5.621,-6.77 -10.07,-11.516 -13.352,-14.239 -3.285,-2.722 -6.586,-4.426 -9.914,-5.105 -1.148,-0.262 -1.703,-0.828 -1.66,-1.699 0.043,-0.567 0.234,-0.934 0.574,-1.11 l 1.731,-0.324 2.883,0.129 5.703,0.191 c 2.433,0.125 4.375,0.192 5.828,0.192 5.211,0 10.398,-0.258 15.566,-0.77 1.153,-0.129 1.965,-0.191 2.434,-0.191 0.898,0 1.344,0.543 1.344,1.629 0,1.086 -0.704,1.675 -2.11,1.761 -6.648,0.508 -9.972,2.508 -9.972,6 0,3.235 4.859,10.364 14.582,21.387 1.527,1.789 2.839,3.301 3.945,4.535 0.68,0.766 1.191,1.149 1.527,1.149 0.301,0 0.731,-0.383 1.285,-1.149 l 3.215,-4.152 c 5.438,-7.023 9.203,-12.172 11.305,-15.449 2.098,-3.278 3.144,-5.68 3.144,-7.215 0,-2.938 -1.726,-4.531 -5.179,-4.785 -1.578,-0.133 -2.367,-0.805 -2.367,-2.02 0,-1.043 0.726,-1.562 2.171,-1.562 1.067,0 2.789,0.062 5.172,0.191 l 7.024,0.449 c 1.789,0.125 3.66,0.192 5.621,0.192 2.851,0 6.215,-0.153 10.086,-0.45 l 8.047,-0.64 c 1.191,-0.082 2.129,-0.125 2.808,-0.125 1.531,0 2.297,0.586 2.297,1.754 0,1.301 -0.742,2.015 -2.234,2.144 -4.692,0.34 -8.594,2.043 -11.703,5.11 -4.942,4.89 -10.926,12.363 -17.953,22.406 -4.43,6.387 -7.219,10.301 -8.368,11.746 -2.472,3.152 -3.707,5.109 -3.707,5.875 0,0.727 0.957,2.129 2.875,4.215 0.469,0.512 3.258,3.808 8.367,9.894 6.903,8.258 13.079,14.536 18.528,18.836 1.879,1.489 4.711,2.532 8.508,3.129 1.406,0.215 2.109,0.891 2.109,2.02 0,1.125 -0.598,1.687 -1.789,1.687 -1.063,0 -2.402,-0.062 -4.02,-0.191 l -7.851,-0.574 c -2.043,-0.129 -3.981,-0.192 -5.809,-0.192 -3.488,0 -7.254,0.149 -11.297,0.446 -1.062,0.086 -1.832,0.128 -2.296,0.128 -1.364,0 -2.11,-0.585 -2.235,-1.753 z m -95.812,-9.946 c 4.05,-3.754 7.289,-8.816 9.718,-15.187 2.43,-6.375 3.645,-12.91 3.645,-19.602 0,-11.594 -2.621,-20.855 -7.863,-27.785 -5.246,-6.926 -12.239,-10.391 -20.973,-10.391 -9.68,0 -17.547,4.192 -23.598,12.567 -6.054,8.379 -9.082,19.258 -9.082,32.644 0,11.34 2.41,20.184 7.227,26.535 4.816,6.352 11.512,9.532 20.082,9.532 8.012,0 14.961,-2.774 20.844,-8.313 z m -36.543,9.235 c -6.375,-2.578 -11.629,-6.153 -15.762,-10.715 -3.582,-3.887 -6.418,-8.696 -8.508,-14.434 -2.09,-5.734 -3.133,-11.508 -3.133,-17.308 0,-13.524 4.133,-24.329 12.407,-32.411 8.269,-8.086 19.308,-12.125 33.121,-12.125 14.453,0 25.793,4.649 34.019,13.95 8.442,9.511 12.66,21.117 12.66,34.808 0,12.586 -4.09,22.75 -12.273,30.492 -8.188,7.743 -18.93,11.614 -32.231,11.614 -7.16,0 -13.929,-1.289 -20.3,-3.871 z m -105.145,-8.661 -4.402,5.18 c -2.469,2.942 -4.082,4.699 -4.848,5.274 -0.765,0.578 -1.808,0.863 -3.129,0.863 -0.941,0 -2.113,-0.063 -3.527,-0.192 -3.805,-0.382 -7.371,-0.574 -10.707,-0.574 l -2.692,-0.062 -4.425,0.187 c -1.453,0 -2.18,-0.605 -2.18,-1.824 0,-0.996 0.66,-1.543 1.984,-1.625 9.676,-0.684 14.516,-7.57 14.516,-20.672 v -27.683 l -0.449,-15.184 c 0,-5.234 -0.715,-9.242 -2.141,-12.027 -1.43,-2.786 -3.699,-4.625 -6.812,-5.516 -1.239,-0.348 -1.856,-0.957 -1.856,-1.824 0,-1.043 0.578,-1.567 1.731,-1.567 0.683,0 1.773,0.121 3.269,0.368 3.375,0.605 7.219,0.91 11.531,0.91 4.356,0 8.329,-0.297 11.918,-0.895 1.153,-0.168 1.985,-0.254 2.496,-0.254 1.325,0 1.989,0.649 1.989,1.95 0,0.957 -0.641,1.5 -1.918,1.628 -6.906,0.641 -11.063,3.344 -12.469,8.114 -1.324,4.472 -1.984,13.332 -1.984,26.574 v 24.789 l 0.066,1.852 c 0,1.917 0.508,2.875 1.531,2.875 0.383,0 1.086,-0.555 2.106,-1.665 l 58.172,-64.648 c 0.808,-0.895 1.597,-1.363 2.363,-1.406 0.863,-0.043 1.297,0.535 1.297,1.726 l -0.262,7.989 -0.062,4.855 0.062,7.094 0.262,5.492 0.902,39.934 v 3.132 c 0,8.735 2.75,13.61 8.25,14.633 1.363,0.215 2.047,0.867 2.047,1.953 0,1.211 -0.684,1.821 -2.051,1.821 -0.383,0 -1.004,-0.043 -1.855,-0.129 -6.41,-0.809 -11.086,-1.215 -14.031,-1.215 -1.454,0 -3.29,0.129 -5.512,0.383 -3.418,0.426 -5.895,0.64 -7.434,0.64 -1.238,0 -1.855,-0.566 -1.855,-1.695 0,-0.914 0.703,-1.414 2.109,-1.504 5.926,-0.426 9.899,-2.402 11.926,-5.937 2.023,-3.535 3.035,-10.305 3.035,-20.313 0,-8.515 -0.191,-17.48 -0.574,-26.89 -0.082,-2.598 -0.574,-3.899 -1.465,-3.899 -0.98,0 -2.914,1.621 -5.809,4.863 l -2.168,2.43 -33.816,37.981 c -0.344,0.425 -1.383,1.664 -3.129,3.71 z m -114.949,-5.628 c 0,4.945 0.445,8.156 1.34,9.625 0.894,1.468 3.176,2.695 6.844,3.675 1.062,0.262 1.597,0.785 1.597,1.567 0,1.172 -0.617,1.738 -1.855,1.695 -0.766,-0.043 -1.703,-0.129 -2.813,-0.258 -4.008,-0.426 -8.504,-0.636 -13.492,-0.636 -5.84,0 -10.977,0.234 -15.41,0.703 -1.067,0.129 -2.133,0.191 -3.199,0.191 -1.192,0 -1.789,-0.5 -1.789,-1.492 0,-1 0.117,-1.629 0.351,-1.887 0.234,-0.262 0.863,-0.457 1.887,-0.586 3.324,-0.34 5.871,-1.105 7.64,-2.297 1.77,-1.191 2.973,-2.937 3.614,-5.238 l 0.574,-3.637 -0.063,-2.488 v -51.269 c 0,-5.407 -0.585,-9.223 -1.757,-11.457 -1.172,-2.235 -3.293,-3.586 -6.364,-4.055 -1.109,-0.223 -1.664,-0.746 -1.664,-1.578 0,-1.25 0.832,-1.875 2.496,-1.875 1.661,0 3.856,0.129 6.586,0.382 4.262,0.426 8.782,0.641 13.555,0.641 3.582,0 6.523,-0.191 8.824,-0.574 1.875,-0.344 3.219,-0.516 4.032,-0.516 1.406,0 2.109,0.653 2.109,1.953 0,1.125 -1.172,1.778 -3.52,1.95 -3.539,0.254 -6.019,1.839 -7.449,4.754 -1.426,2.914 -2.14,7.82 -2.14,14.71 v 2.747 c 0,3.699 0.136,6.136 0.414,7.304 0.277,1.172 0.968,2.309 2.078,3.418 l 2.75,2.684 1.918,1.855 c 0.769,0.766 1.41,1.153 1.922,1.153 0.765,0 1.746,-0.985 2.941,-2.946 1.363,-2.343 4.945,-7.363 10.734,-15.058 5.793,-7.696 10.528,-13.739 14.203,-18.125 1.446,-1.793 2.254,-2.793 2.422,-3.008 1.789,-2.215 3.789,-3.324 6,-3.324 0.641,0 2.34,0.172 5.106,0.511 1.492,0.168 2.914,0.254 4.277,0.254 2.895,0 6.426,-0.211 10.594,-0.636 0.765,-0.086 1.383,-0.129 1.851,-0.129 1.274,0 1.934,0.519 1.977,1.558 0.043,1.082 -0.469,1.778 -1.535,2.078 l -1.34,0.391 c -6.141,1.703 -10.895,4.258 -14.262,7.66 -4.785,4.856 -12.515,14.602 -23.195,29.242 l -4.613,6.254 c -1.922,2.684 -2.883,4.535 -2.883,5.559 0,1.445 1.793,3.68 5.383,6.703 1.199,1.02 3.422,3.063 6.672,6.129 7.007,6.594 12.414,11.234 16.207,13.914 3.793,2.684 7.183,4.258 10.168,4.727 1.875,0.304 2.812,0.933 2.812,1.886 0,1.258 -0.746,1.887 -2.242,1.887 -1.707,0 -4.742,-0.258 -9.098,-0.77 -2.008,-0.21 -3.695,-0.32 -5.062,-0.32 -1.836,0 -5.039,0.258 -9.61,0.77 -1.836,0.211 -3.629,0.32 -5.382,0.32 -1.579,0 -2.368,-0.543 -2.368,-1.629 0,-1.176 0.68,-1.762 2.047,-1.762 1.832,0 3.301,-0.382 4.41,-1.148 1.11,-0.77 1.664,-1.793 1.664,-3.07 0,-3.836 -5.875,-11.024 -17.617,-21.551 l -8.937,-7.93 -6.258,-5.625 c -1.66,-1.281 -2.68,-1.918 -3.063,-1.918 -0.722,0.039 -1.085,0.852 -1.085,2.43 v 23.211 l 0.066,2.301 v 0" /><path
         id="path22"
         style="fill:#f68712;fill-opacity:1;fill-rule:nonzero;stroke:none"
         d="M 468.902,355.473 V 821.309 H 3.06641 V 355.473 H 468.902 v 0" /><path
         id="path24"
         style="fill:#ffffff;fill-opacity:1;fill-rule:nonzero;stroke:none"
         d="M 410.105,762.559 V 645.02 h -43.527 c 0,21.644 -21.433,39.179 -47.883,39.179 -19.324,0 -35.965,-9.371 -43.531,-22.859 V 514.438 c 0,-31.208 24.289,-56.516 54.277,-56.586 h 0.133 V 414.32 H 142.395 v 43.532 h 0.128 c 29.993,0.07 54.289,25.378 54.289,56.586 V 661.34 c -7.574,13.488 -24.207,22.859 -43.535,22.859 -26.441,0 -47.882,-17.535 -47.882,-39.179 H 61.8594 V 762.559 H 410.105 v 0" /><path
         id="path26"
         style="fill:#545051;fill-opacity:1;fill-rule:nonzero;stroke:none"
         d="m 81.4258,168.535 v 0.254 c 0,21.672 -15.7813,39.465 -37.457,39.465 -21.668,0 -37.20708,-17.539 -37.20708,-39.211 v -0.254 c 0,-21.668 15.78518,-39.461 37.46098,-39.461 21.6718,0 37.2031,17.539 37.2031,39.207 z M 0,168.535 v 0.254 c 0,23.926 17.6602,45.352 44.2227,45.352 26.5585,0 43.9726,-21.172 43.9726,-45.098 v -0.254 c 0,-23.926 -17.668,-45.351 -44.2265,-45.351 C 17.4102,123.438 0,144.609 0,168.535" /><path
         id="path28"
         style="fill:#545051;fill-opacity:1;fill-rule:nonzero;stroke:none"
         d="m 110.004,212.637 h 61.766 v -6.016 h -55.25 v -35.957 h 49.609 V 164.66 H 116.52 v -39.719 h -6.516 v 87.696" /><path
         id="path30"
         style="fill:#545051;fill-opacity:1;fill-rule:nonzero;stroke:none"
         d="m 189.879,212.637 h 61.762 v -6.016 h -55.25 V 170.664 H 246 v -6.004 h -49.609 v -39.719 h -6.512 v 87.696" /><path
         id="path32"
         style="fill:#545051;fill-opacity:1;fill-rule:nonzero;stroke:none"
         d="m 270.195,124.941 h 6.51562 v 87.6953 H 270.195 Z" /><path
         id="path34"
         style="fill:#545051;fill-opacity:1;fill-rule:nonzero;stroke:none"
         d="m 298.887,168.535 v 0.254 c 0,24.805 18.539,45.352 43.847,45.352 15.661,0 25.055,-5.762 34.075,-14.032 l -4.637,-4.765 c -7.641,7.39 -16.41,12.91 -29.567,12.91 -21.043,0 -36.957,-17.168 -36.957,-39.211 v -0.254 c 0,-22.176 16.164,-39.461 37.086,-39.461 12.653,0 21.293,4.883 30.192,13.652 l 4.383,-4.257 c -9.274,-9.145 -19.289,-15.285 -34.829,-15.285 -25.054,0 -43.593,19.921 -43.593,45.097" /><path
         id="path36"
         style="fill:#545051;fill-opacity:1;fill-rule:nonzero;stroke:none"
         d="m 394.859,212.637 h 62.387 v -6.016 h -55.875 v -34.453 h 50.238 v -6.016 h -50.238 v -35.195 h 56.5 v -6.016 h -63.012 v 87.696" /><path
         id="path38"
         style="fill:#545051;fill-opacity:1;fill-rule:nonzero;stroke:none"
         d="m 588.926,168.535 v 0.254 c 0,21.672 -15.781,39.465 -37.457,39.465 -21.668,0 -37.207,-17.539 -37.207,-39.211 v -0.254 c 0,-21.668 15.789,-39.461 37.461,-39.461 21.672,0 37.203,17.539 37.203,39.207 z m -81.426,0 v 0.254 c 0,23.926 17.66,45.352 44.223,45.352 26.558,0 43.968,-21.172 43.968,-45.098 v -0.254 c 0,-23.926 -17.664,-45.351 -44.222,-45.351 -26.559,0 -43.969,21.171 -43.969,45.097" /><path
         id="path40"
         style="fill:#545051;fill-opacity:1;fill-rule:nonzero;stroke:none"
         d="m 617.504,212.637 h 61.766 v -6.016 h -55.25 v -35.957 h 49.609 V 164.66 H 624.02 v -39.719 h -6.516 v 87.696" /><path
         id="path42"
         style="fill:#545051;fill-opacity:1;fill-rule:nonzero;stroke:none"
         d="m 757.031,206.621 h -30.57 v 6.016 h 67.648 v -6.016 h -30.562 v -81.68 h -6.516 v 81.68" /><path
         id="path44"
         style="fill:#545051;fill-opacity:1;fill-rule:nonzero;stroke:none"
         d="m 811.914,212.637 h 6.516 v -40.598 h 56.121 v 40.598 h 6.519 v -87.696 h -6.519 v 41.094 H 818.43 v -41.094 h -6.516 v 87.696" /><path
         id="path46"
         style="fill:#545051;fill-opacity:1;fill-rule:nonzero;stroke:none"
         d="m 906.754,212.637 h 62.387 v -6.016 h -55.875 v -34.453 h 50.242 v -6.016 h -50.242 v -35.195 h 56.5 v -6.016 h -63.012 v 87.696" /><path
         id="path48"
         style="fill:#545051;fill-opacity:1;fill-rule:nonzero;stroke:none"
         d="m 1016.51,212.637 h 7.27 l 34.33,-80.684 34.44,80.684 h 6.9 l -38.59,-88.321 h -5.76 l -38.59,88.321" /><path
         id="path50"
         style="fill:#545051;fill-opacity:1;fill-rule:nonzero;stroke:none"
         d="m 1116.75,124.941 h 6.5195 v 87.6953 h -6.5195 z" /><path
         id="path52"
         style="fill:#545051;fill-opacity:1;fill-rule:nonzero;stroke:none"
         d="m 1144.98,168.535 v 0.254 c 0,24.805 18.54,45.352 43.84,45.352 15.67,0 25.06,-5.762 34.09,-14.032 l -4.64,-4.765 c -7.65,7.39 -16.42,12.91 -29.57,12.91 -21.05,0 -36.96,-17.168 -36.96,-39.211 v -0.254 c 0,-22.176 16.17,-39.461 37.08,-39.461 12.66,0 21.3,4.883 30.2,13.652 l 4.38,-4.257 c -9.26,-9.145 -19.29,-15.285 -34.82,-15.285 -25.06,0 -43.6,19.921 -43.6,45.097" /><path
         id="path54"
         style="fill:#545051;fill-opacity:1;fill-rule:nonzero;stroke:none"
         d="m 1240.95,212.637 h 62.39 v -6.016 h -55.87 v -34.453 h 50.23 v -6.016 h -50.23 v -35.195 h 56.5 v -6.016 h -63.02 v 87.696" /><path
         id="path56"
         style="fill:#545051;fill-opacity:1;fill-rule:nonzero;stroke:none"
         d="m 1353.57,168.535 v 0.254 c 0,24.805 18.54,45.352 43.85,45.352 15.66,0 25.06,-5.762 34.08,-14.032 l -4.64,-4.765 c -7.65,7.39 -16.42,12.91 -29.57,12.91 -21.04,0 -36.95,-17.168 -36.95,-39.211 v -0.254 c 0,-22.176 16.16,-39.461 37.08,-39.461 12.65,0 21.3,4.883 30.19,13.652 l 4.39,-4.257 c -9.27,-9.145 -19.3,-15.285 -34.83,-15.285 -25.06,0 -43.6,19.921 -43.6,45.097" /><path
         id="path58"
         style="fill:#545051;fill-opacity:1;fill-rule:nonzero;stroke:none"
         d="m 1449.17,212.637 h 6.52 v -40.598 h 56.12 v 40.598 h 6.52 v -87.696 h -6.52 v 41.094 h -56.12 v -41.094 h -6.52 v 87.696" /><path
         id="path60"
         style="fill:#545051;fill-opacity:1;fill-rule:nonzero;stroke:none"
         d="m 1603.03,155.383 -23.05,50.738 -23.18,-50.738 z m -26.06,57.879 h 6.27 l 40.84,-88.321 h -7.14 l -11.15,24.551 h -51.74 l -11.15,-24.551 h -6.77 l 40.84,88.321" /><path
         id="path62"
         style="fill:#545051;fill-opacity:1;fill-rule:nonzero;stroke:none"
         d="m 1641.87,212.637 h 6.14 l 60.51,-76.297 v 76.297 h 6.26 v -87.696 h -4.88 l -61.76,77.922 v -77.922 h -6.27 v 87.696" /><path
         id="path64"
         style="fill:#545051;fill-opacity:1;fill-rule:nonzero;stroke:none"
         d="m 1736.22,168.535 v 0.254 c 0,24.805 18.54,45.352 43.84,45.352 15.67,0 25.06,-5.762 34.09,-14.032 l -4.64,-4.765 c -7.65,7.39 -16.42,12.91 -29.57,12.91 -21.05,0 -36.96,-17.168 -36.96,-39.211 v -0.254 c 0,-22.176 16.17,-39.461 37.08,-39.461 12.66,0 21.3,4.883 30.2,13.652 l 4.38,-4.257 c -9.26,-9.145 -19.29,-15.285 -34.82,-15.285 -25.06,0 -43.6,19.921 -43.6,45.097" /><path
         id="path66"
         style="fill:#545051;fill-opacity:1;fill-rule:nonzero;stroke:none"
         d="m 1831.82,212.637 h 62.39 v -6.016 h -55.88 v -34.453 h 50.24 v -6.016 h -50.24 v -35.195 h 56.51 v -6.016 h -63.02 v 87.696" /><path
         id="path68"
         style="fill:#545051;fill-opacity:1;fill-rule:nonzero;stroke:none"
         d="m 1913.08,212.637 h 6.51 v -81.68 h 51.5 v -6.016 h -58.01 v 87.696" /><path
         id="path70"
         style="fill:#545051;fill-opacity:1;fill-rule:nonzero;stroke:none"
         d="m 1988.75,212.637 h 6.52 v -81.68 h 51.49 v -6.016 h -58.01 v 87.696" /><path
         id="path72"
         style="fill:#545051;fill-opacity:1;fill-rule:nonzero;stroke:none"
         d="m 2136.04,168.535 v 0.254 c 0,21.672 -15.79,39.465 -37.46,39.465 -21.67,0 -37.21,-17.539 -37.21,-39.211 v -0.254 c 0,-21.668 15.79,-39.461 37.46,-39.461 21.67,0 37.21,17.539 37.21,39.207 z m -81.44,0 v 0.254 c 0,23.926 17.67,45.352 44.23,45.352 26.56,0 43.97,-21.172 43.97,-45.098 v -0.254 c 0,-23.926 -17.66,-45.351 -44.22,-45.351 -26.55,0 -43.98,21.171 -43.98,45.097" /><path
         id="path74"
         style="fill:#545051;fill-opacity:1;fill-rule:nonzero;stroke:none"
         d="m 2200.7,167.16 c 14.66,0 25.55,7.391 25.55,20.047 v 0.246 c 0,11.777 -9.27,19.168 -25.18,19.168 h -29.94 V 167.16 Z m -36.09,45.477 h 36.84 c 10.77,0 19.41,-3.391 24.68,-8.641 4.13,-4.141 6.64,-10.031 6.64,-16.293 v -0.25 c 0,-14.66 -10.9,-23.047 -25.69,-25.051 l 28.94,-37.461 h -8.27 l -27.93,36.329 h -28.69 v -36.329 h -6.52 v 87.696" /><path
         id="path76"
         style="fill:#545051;fill-opacity:1;fill-rule:nonzero;stroke:none"
         d="M 3.88281,89.1992 H 65.6445 v -6.0156 h -55.25 V 47.2266 H 60.0039 V 41.2227 H 10.3945 V 1.50391 H 3.88281 V 89.1992" /><path
         id="path78"
         style="fill:#545051;fill-opacity:1;fill-rule:nonzero;stroke:none"
         d="m 160.359,45.0977 v 0.2539 c 0,21.6718 -15.781,39.4648 -37.453,39.4648 -21.672,0 -37.2068,-17.5391 -37.2068,-39.2109 v -0.2539 c 0,-21.668 15.7848,-39.46098 37.4608,-39.46098 21.668,0 37.199,17.53908 37.199,39.20708 z m -81.4254,0 v 0.2539 c 0,23.9257 17.6641,45.3515 44.2264,45.3515 26.559,0 43.969,-21.1719 43.969,-45.0976 V 45.3516 C 167.129,21.4258 149.465,0 122.906,0 96.3477,0 78.9336,21.1719 78.9336,45.0977" /><path
         id="path80"
         style="fill:#545051;fill-opacity:1;fill-rule:nonzero;stroke:none"
         d="m 225.098,43.7227 c 14.66,0 25.554,7.3906 25.554,20.0468 v 0.2461 c 0,11.7735 -9.265,19.168 -25.179,19.168 H 195.531 V 43.7227 Z M 189.02,89.1992 h 36.832 c 10.773,0 19.418,-3.3867 24.675,-8.6406 4.137,-4.1445 6.641,-10.0313 6.641,-16.2891 v -0.2539 c 0,-14.6601 -10.898,-23.0468 -25.68,-25.0508 L 260.426,1.50391 h -8.27 L 224.223,37.832 H 195.531 V 1.50391 H 189.02 V 89.1992" /><path
         id="path82"
         style="fill:#545051;fill-opacity:1;fill-rule:nonzero;stroke:none"
         d="M 318.656,83.1836 V 7.51953 h 22.676 c 24.43,0 39.84,16.66017 39.84,37.57817 v 0.2539 c 0,20.7929 -15.41,37.832 -39.84,37.832 z m -6.511,6.0156 h 29.187 c 27.563,0 46.602,-18.914 46.602,-43.5937 v -0.2539 c 0,-24.6758 -19.039,-43.84769 -46.602,-43.84769 H 312.145 V 89.1992" /><path
         id="path84"
         style="fill:#545051;fill-opacity:1;fill-rule:nonzero;stroke:none"
         d="m 409.75,1.50391 h 6.51562 v 87.6953 H 409.75 Z" /><path
         id="path86"
         style="fill:#545051;fill-opacity:1;fill-rule:nonzero;stroke:none"
         d="m 434.434,89.1992 h 7.265 l 34.324,-80.68358 34.45,80.68358 h 6.89 L 478.777,0.878906 H 473.02 L 434.434,89.1992" /><path
         id="path88"
         style="fill:#545051;fill-opacity:1;fill-rule:nonzero;stroke:none"
         d="m 534.668,89.1992 h 62.387 V 83.1836 H 541.184 V 48.7305 h 50.238 V 42.7148 H 541.184 V 7.51953 H 597.68 V 1.50391 H 534.668 V 89.1992" /><path
         id="path90"
         style="fill:#545051;fill-opacity:1;fill-rule:nonzero;stroke:none"
         d="m 651.426,43.7227 c 14.66,0 25.554,7.3906 25.554,20.0468 v 0.2461 c 0,11.7735 -9.265,19.168 -25.179,19.168 H 621.859 V 43.7227 Z m -36.078,45.4765 h 36.832 c 10.773,0 19.418,-3.3867 24.675,-8.6406 4.137,-4.1445 6.641,-10.0313 6.641,-16.2891 v -0.2539 c 0,-14.6601 -10.898,-23.0468 -25.68,-25.0508 L 686.754,1.50391 h -8.27 L 650.551,37.832 H 621.859 V 1.50391 h -6.511 V 89.1992" /><path
         id="path92"
         style="fill:#545051;fill-opacity:1;fill-rule:nonzero;stroke:none"
         d="m 698.043,14.2773 4.258,4.8946 c 9.648,-8.8985 18.539,-13.02737 31.445,-13.02737 13.152,0 22.172,7.39067 22.172,17.41017 v 0.2461 c 0,9.2773 -4.887,14.6562 -24.805,18.6719 -21.047,4.2578 -29.566,11.3945 -29.566,24.6757 v 0.2539 c 0,13.0274 11.898,23.0469 28.187,23.0469 12.782,0 21.172,-3.5039 30.067,-10.6445 l -4.133,-5.1367 c -8.27,7.1406 -16.535,9.8945 -26.188,9.8945 -12.898,0 -21.418,-7.3945 -21.418,-16.5352 v -0.2539 c 0,-9.2656 4.758,-14.9023 25.555,-19.1679 20.293,-4.1328 28.817,-11.3985 28.817,-24.1719 v -0.2539 c 0,-14.1602 -12.157,-23.925794 -29.067,-23.925794 -14.031,0 -24.805,4.628904 -35.324,14.023394" /><path
         id="path94"
         style="fill:#545051;fill-opacity:1;fill-rule:nonzero;stroke:none"
         d="m 782.488,1.50391 h 6.51562 v 87.6953 H 782.488 Z" /><path
         id="path96"
         style="fill:#545051;fill-opacity:1;fill-rule:nonzero;stroke:none"
         d="m 837.992,83.1836 h -30.57 v 6.0156 h 67.652 V 83.1836 H 844.508 V 1.50391 h -6.516 V 83.1836" /><path
         id="path98"
         style="fill:#545051;fill-opacity:1;fill-rule:nonzero;stroke:none"
         d="m 927.133,36.2031 -37.582,52.9961 h 8.144 l 32.825,-47.1094 32.941,47.1094 h 7.769 L 933.648,36.3281 V 1.50391 h -6.515 V 36.2031" /></g></g></svg>