<?xml version="1.0" encoding="UTF-8" standalone="no"?>
<svg
   xmlns:dc="http://purl.org/dc/elements/1.1/"
   xmlns:cc="http://creativecommons.org/ns#"
   xmlns:rdf="http://www.w3.org/1999/02/22-rdf-syntax-ns#"
   xmlns:svg="http://www.w3.org/2000/svg"
   xmlns="http://www.w3.org/2000/svg"
   viewBox="0 0 280.38666 109.52"
   height="109.52"
   width="280.38666"
   xml:space="preserve"
   id="svg2"
   version="1.1"><metadata
     id="metadata8"><rdf:RDF><cc:Work
         rdf:about=""><dc:format>image/svg+xml</dc:format><dc:type
           rdf:resource="http://purl.org/dc/dcmitype/StillImage" /></cc:Work></rdf:RDF></metadata><defs
     id="defs6"><clipPath
       id="clipPath20"
       clipPathUnits="userSpaceOnUse"><path
         id="path18"
         d="M 0,0 H 2102.94 V 821 H 0 Z" /></clipPath></defs><g
     transform="matrix(1.3333333,0,0,-1.3333333,0,109.52)"
     id="g10"><g
       transform="scale(0.1)"
       id="g12"><g
         id="g14"><g
           clip-path="url(#clipPath20)"
           id="g16"><path
             id="path22"
             style="fill:none;stroke:#545051;stroke-width:6.26478004;stroke-linecap:butt;stroke-linejoin:miter;stroke-miterlimit:4;stroke-dasharray:none;stroke-opacity:1"
             d="M 2101.77,290.145 H 6.63672" /><path
             id="path24"
             style="fill:#545051;fill-opacity:1;fill-rule:nonzero;stroke:none"
             d="m 2000.84,676.695 c 1.71,1.489 5.53,2.235 11.45,2.235 h 22.47 c 14.79,0 24.95,-0.719 30.49,-2.153 5.53,-1.433 9.21,-4.3 11.02,-8.601 1.14,-2.778 1.72,-5.692 1.72,-8.75 v -3.727 c 0,-2.965 0.92,-4.398 2.77,-4.301 1.66,0.094 2.73,0.832 3.22,2.211 0.49,1.383 0.97,4.836 1.46,10.364 l 0.58,8.425 c 0.47,6.29 0.86,10.098 1.14,11.43 0.29,1.336 0.43,2.43 0.43,3.289 0,2.762 -1.57,4.145 -4.73,4.145 -1.24,0 -3.15,-0.196 -5.73,-0.574 -1.25,-0.196 -4.69,-0.383 -10.33,-0.575 l -20.36,-1.004 c -8.99,-0.382 -19.31,-0.574 -30.97,-0.574 -19.22,0 -35.66,0.766 -49.33,2.293 -4.01,0.481 -7.22,0.719 -9.6,0.719 -4.31,0 -6.46,-1.313 -6.46,-3.93 0,-1.777 1.39,-2.668 4.16,-2.668 8.7,0 14.55,-2.371 17.57,-7.105 3.01,-4.742 4.51,-13.957 4.51,-27.649 V 528.848 l -0.14,-9.336 c 0,-11.489 -3.44,-18.192 -10.32,-20.106 l -5.45,-1.578 c -2.49,-0.656 -3.73,-1.777 -3.73,-3.367 0,-2.059 1.53,-3.086 4.59,-3.086 1.33,0 3.82,0.336 7.45,1.004 6.89,1.144 18.69,1.719 35.42,1.719 11.95,0 27.05,-0.86 45.31,-2.578 4.68,-0.383 8.41,-0.575 11.19,-0.575 12.8,0 23.42,5.145 31.83,15.43 6.98,8.574 10.47,15.957 10.47,22.152 0,2.571 -0.89,3.809 -2.65,3.711 -1.08,-0.093 -2.16,-0.953 -3.23,-2.578 -10.69,-16.922 -34.8,-25.383 -72.31,-25.383 -11.84,0 -19.21,1.004 -22.12,3.02 -2.91,2.012 -4.37,7.086 -4.37,15.223 v 52.863 l -0.14,4.734 c 0,2.875 0.78,4.789 2.36,5.75 1.57,0.953 4.7,1.434 9.37,1.434 h 31.63 c 8.2,0 14.02,-1.145 17.45,-3.442 3.43,-2.293 5.72,-6.644 6.87,-13.047 l 0.86,-4.015 c 0.39,-2.102 1.61,-3.152 3.66,-3.152 1.86,0 2.79,1.191 2.79,3.574 0,0.859 -0.1,2.242 -0.29,4.148 -0.57,5.723 -0.86,11.488 -0.86,17.305 0,7.629 0.43,16.066 1.28,25.32 0.1,1.43 0.16,2.477 0.16,3.145 0,2.476 -0.93,3.765 -2.79,3.863 -1.96,0.094 -3.18,-1.055 -3.66,-3.441 -1.25,-6.309 -2.64,-10.325 -4.16,-12.047 -1.53,-1.719 -4.88,-3.106 -10.04,-4.157 -5.83,-1.148 -13.77,-1.722 -23.8,-1.722 h -22.08 c -4.12,0 -6.58,0.457 -7.39,1.367 -0.81,0.91 -1.22,3.574 -1.22,7.988 v 57.852 c 0,5.086 0.86,8.371 2.58,9.855 z m -164.39,0 c 1.72,1.489 5.54,2.235 11.46,2.235 h 22.47 c 14.79,0 24.95,-0.719 30.48,-2.153 5.54,-1.433 9.21,-4.3 11.02,-8.601 1.15,-2.778 1.72,-5.692 1.72,-8.75 v -3.727 c 0,-2.965 0.93,-4.398 2.78,-4.301 1.66,0.094 2.73,0.832 3.22,2.211 0.48,1.383 0.97,4.836 1.46,10.364 l 0.57,8.425 c 0.48,6.29 0.86,10.098 1.15,11.43 0.29,1.336 0.43,2.43 0.43,3.289 0,2.762 -1.58,4.145 -4.73,4.145 -1.25,0 -3.16,-0.196 -5.74,-0.574 -1.24,-0.196 -4.68,-0.383 -10.32,-0.575 l -20.36,-1.004 c -8.99,-0.382 -19.31,-0.574 -30.98,-0.574 -19.21,0 -35.65,0.766 -49.32,2.293 -4.02,0.481 -7.22,0.719 -9.61,0.719 -4.3,0 -6.45,-1.313 -6.45,-3.93 0,-1.777 1.38,-2.668 4.16,-2.668 8.69,0 14.55,-2.371 17.56,-7.105 3.01,-4.742 4.52,-13.957 4.52,-27.649 V 528.848 l -0.14,-9.336 c 0,-11.489 -3.45,-18.192 -10.33,-20.106 l -5.45,-1.578 c -2.48,-0.656 -3.73,-1.777 -3.73,-3.367 0,-2.059 1.53,-3.086 4.59,-3.086 1.34,0 3.83,0.336 7.46,1.004 6.88,1.144 18.69,1.719 35.42,1.719 11.94,0 27.05,-0.86 45.31,-2.578 4.68,-0.383 8.41,-0.575 11.18,-0.575 12.81,0 23.42,5.145 31.83,15.43 6.98,8.574 10.47,15.957 10.47,22.152 0,2.571 -0.88,3.809 -2.64,3.711 -1.08,-0.093 -2.16,-0.953 -3.24,-2.578 -10.69,-16.922 -34.79,-25.383 -72.3,-25.383 -11.84,0 -19.22,1.004 -22.13,3.02 -2.91,2.012 -4.36,7.086 -4.36,15.223 v 52.863 l -0.15,4.734 c 0,2.875 0.79,4.789 2.37,5.75 1.57,0.953 4.69,1.434 9.37,1.434 h 31.62 c 8.2,0 14.02,-1.145 17.46,-3.442 3.43,-2.293 5.72,-6.644 6.87,-13.047 l 0.85,-4.015 c 0.39,-2.102 1.62,-3.152 3.67,-3.152 1.86,0 2.79,1.191 2.79,3.574 0,0.859 -0.1,2.242 -0.29,4.148 -0.57,5.723 -0.86,11.488 -0.86,17.305 0,7.629 0.42,16.066 1.27,25.32 0.11,1.43 0.16,2.477 0.16,3.145 0,2.476 -0.93,3.765 -2.78,3.863 -1.96,0.094 -3.18,-1.055 -3.67,-3.441 -1.24,-6.309 -2.63,-10.325 -4.16,-12.047 -1.53,-1.719 -4.87,-3.106 -10.03,-4.157 -5.84,-1.148 -13.77,-1.722 -23.81,-1.722 h -22.08 c -4.11,0 -6.57,0.457 -7.38,1.367 -0.82,0.91 -1.22,3.574 -1.22,7.988 v 57.852 c 0,5.086 0.86,8.371 2.57,9.855 z m -174.3,1.813 c -11.52,-9.746 -17.28,-22.356 -17.28,-37.828 0,-13.852 4.42,-25.121 13.25,-33.817 8.83,-8.691 23.84,-16.621 45.04,-23.785 20.52,-6.89 32.93,-12.199 37.23,-15.93 8.4,-7.273 12.6,-16.218 12.6,-26.839 0,-11.098 -4.55,-20.528 -13.66,-28.274 -9.11,-7.754 -20.23,-11.629 -33.39,-11.629 -12.97,0 -24.98,4.028 -36.04,12.082 -11.05,8.055 -18.3,18.024 -21.73,29.914 -1.36,4.602 -2.92,6.95 -4.68,7.043 -1.95,0.098 -2.92,-1.289 -2.92,-4.156 0,-3.633 1.24,-9.75 3.73,-18.355 2.2,-7.934 3.39,-12.286 3.58,-13.047 1.15,-5.356 2.01,-8.676 2.58,-9.965 0.58,-1.293 1.72,-2.512 3.45,-3.656 4.1,-2.774 10.58,-5.211 19.42,-7.313 8.85,-2.101 16.95,-3.156 24.31,-3.156 20.36,0 37.04,5.683 50.04,17.051 13,11.367 19.5,25.98 19.5,43.847 0,26.364 -17.66,45.325 -52.98,56.887 -18.14,6.023 -29.52,10.188 -34.15,12.488 -4.63,2.293 -8.91,5.934 -12.82,10.907 -4.49,5.839 -6.73,12.777 -6.73,20.816 0,9.09 3.45,16.676 10.36,22.75 6.91,6.078 15.51,9.117 25.81,9.117 12.96,0 24.7,-3.359 35.23,-10.07 10.53,-6.715 17.51,-15.25 20.94,-25.613 1.56,-4.602 3.12,-6.903 4.68,-6.903 2.04,0 3.07,1.481 3.07,4.446 0,0.761 -0.24,2.722 -0.72,5.878 l -2.29,14.77 c -1.25,8.027 -1.87,12.855 -1.87,14.48 0,4.782 -1.19,7.122 -3.58,7.028 -0.77,0 -1.29,-0.196 -1.58,-0.574 l -2.01,-1.719 c -1.14,-0.957 -2.29,-1.438 -3.44,-1.438 -0.86,0 -1.72,0.192 -2.58,0.575 l -9.89,4.16 c -7.08,2.961 -15.73,4.445 -25.96,4.445 -18.16,0 -33,-4.875 -44.52,-14.617 z m -154.43,0 c -11.52,-9.746 -17.28,-22.356 -17.28,-37.828 0,-13.852 4.42,-25.121 13.25,-33.817 8.83,-8.691 23.84,-16.621 45.04,-23.785 20.52,-6.89 32.93,-12.199 37.22,-15.93 8.41,-7.273 12.61,-16.218 12.61,-26.839 0,-11.098 -4.55,-20.528 -13.66,-28.274 -9.11,-7.754 -20.23,-11.629 -33.39,-11.629 -12.97,0 -24.98,4.028 -36.04,12.082 -11.05,8.055 -18.3,18.024 -21.73,29.914 -1.36,4.602 -2.92,6.95 -4.68,7.043 -1.95,0.098 -2.92,-1.289 -2.92,-4.156 0,-3.633 1.24,-9.75 3.73,-18.355 2.2,-7.934 3.39,-12.286 3.58,-13.047 1.15,-5.356 2.01,-8.676 2.58,-9.965 0.58,-1.293 1.72,-2.512 3.45,-3.656 4.1,-2.774 10.58,-5.211 19.42,-7.313 8.85,-2.101 16.95,-3.156 24.31,-3.156 20.36,0 37.04,5.683 50.04,17.051 13,11.367 19.5,25.98 19.5,43.847 0,26.364 -17.66,45.325 -52.98,56.887 -18.14,6.023 -29.52,10.188 -34.15,12.488 -4.63,2.293 -8.91,5.934 -12.82,10.907 -4.49,5.839 -6.73,12.777 -6.73,20.816 0,9.09 3.45,16.676 10.36,22.75 6.91,6.078 15.51,9.117 25.81,9.117 12.96,0 24.7,-3.359 35.23,-10.07 10.53,-6.715 17.51,-15.25 20.94,-25.613 1.56,-4.602 3.12,-6.903 4.68,-6.903 2.04,0 3.07,1.481 3.07,4.446 0,0.761 -0.24,2.722 -0.72,5.878 l -2.29,14.77 c -1.25,8.027 -1.87,12.855 -1.87,14.48 0,4.782 -1.19,7.122 -3.58,7.028 -0.77,0 -1.29,-0.196 -1.58,-0.574 l -2.01,-1.719 c -1.14,-0.957 -2.29,-1.438 -3.44,-1.438 -0.86,0 -1.72,0.192 -2.58,0.575 l -9.89,4.16 c -7.08,2.961 -15.73,4.445 -25.96,4.445 -18.16,0 -33,-4.875 -44.52,-14.617 z m -147.12,-1.813 c 1.71,1.489 5.53,2.235 11.45,2.235 h 22.47 c 14.79,0 24.95,-0.719 30.48,-2.153 5.54,-1.433 9.21,-4.3 11.03,-8.601 1.14,-2.778 1.71,-5.692 1.71,-8.75 v -3.727 c 0,-2.965 0.93,-4.398 2.78,-4.301 1.66,0.094 2.73,0.832 3.22,2.211 0.49,1.383 0.97,4.836 1.46,10.364 l 0.57,8.425 c 0.48,6.29 0.86,10.098 1.15,11.43 0.29,1.336 0.43,2.43 0.43,3.289 0,2.762 -1.58,4.145 -4.73,4.145 -1.24,0 -3.16,-0.196 -5.74,-0.574 -1.24,-0.196 -4.68,-0.383 -10.32,-0.575 l -20.36,-1.004 c -8.99,-0.382 -19.31,-0.574 -30.97,-0.574 -19.22,0 -35.66,0.766 -49.33,2.293 -4.01,0.481 -7.22,0.719 -9.61,0.719 -4.3,0 -6.45,-1.313 -6.45,-3.93 0,-1.777 1.38,-2.668 4.16,-2.668 8.7,0 14.55,-2.371 17.56,-7.105 3.01,-4.742 4.52,-13.957 4.52,-27.649 V 528.848 l -0.14,-9.336 c 0,-11.489 -3.44,-18.192 -10.33,-20.106 l -5.45,-1.578 c -2.48,-0.656 -3.72,-1.777 -3.72,-3.367 0,-2.059 1.52,-3.086 4.58,-3.086 1.34,0 3.83,0.336 7.46,1.004 6.88,1.144 18.69,1.719 35.42,1.719 11.95,0 27.05,-0.86 45.31,-2.578 4.68,-0.383 8.41,-0.575 11.18,-0.575 12.81,0 23.42,5.145 31.84,15.43 6.97,8.574 10.46,15.957 10.46,22.152 0,2.571 -0.88,3.809 -2.64,3.711 -1.08,-0.093 -2.16,-0.953 -3.24,-2.578 -10.69,-16.922 -34.79,-25.383 -72.3,-25.383 -11.84,0 -19.21,1.004 -22.12,3.02 -2.92,2.012 -4.37,7.086 -4.37,15.223 v 52.863 l -0.14,4.734 c 0,2.875 0.78,4.789 2.36,5.75 1.57,0.953 4.7,1.434 9.37,1.434 h 31.62 c 8.21,0 14.02,-1.145 17.46,-3.442 3.43,-2.293 5.72,-6.644 6.87,-13.047 l 0.86,-4.015 c 0.39,-2.102 1.61,-3.152 3.66,-3.152 1.86,0 2.79,1.191 2.79,3.574 0,0.859 -0.1,2.242 -0.29,4.148 -0.57,5.723 -0.86,11.488 -0.86,17.305 0,7.629 0.43,16.066 1.28,25.32 0.1,1.43 0.16,2.477 0.16,3.145 0,2.476 -0.93,3.765 -2.79,3.863 -1.96,0.094 -3.18,-1.055 -3.67,-3.441 -1.24,-6.309 -2.63,-10.325 -4.16,-12.047 -1.53,-1.719 -4.87,-3.106 -10.03,-4.157 -5.83,-1.148 -13.77,-1.722 -23.81,-1.722 h -22.08 c -4.11,0 -6.57,0.457 -7.38,1.367 -0.82,0.91 -1.22,3.574 -1.22,7.988 v 57.852 c 0,5.086 0.86,8.371 2.58,9.855 z m -78.5,-32.898 v 15.488 c 0,9.176 0.93,15.438 2.8,18.781 1.86,3.348 5.71,5.739 11.54,7.172 2.01,0.574 2.96,1.481 2.87,2.723 -0.2,2.008 -1.53,3.012 -4.02,3.012 -1.63,0 -3.97,-0.285 -7.03,-0.86 -3.53,-0.574 -8.26,-0.859 -14.19,-0.859 -11.09,0 -19.93,0.348 -26.53,1.039 -2.77,0.262 -4.78,0.395 -6.02,0.395 -2.77,0 -4.16,-0.887 -4.16,-2.665 0,-1.867 1.39,-3.039 4.16,-3.503 9.84,-1.625 16.66,-4.137 20.43,-7.528 3.78,-3.394 6.14,-9.152 7.1,-17.277 l 1.72,-32.981 -0.14,-19.355 v -70.981 c -0.1,-1.718 -0.62,-2.628 -1.58,-2.722 -0.57,-0.098 -1.91,1.051 -4.01,3.441 l -131.92,149.41 c -2.39,2.774 -4.78,4.161 -7.17,4.161 -1.25,0 -3.01,-0.051 -5.31,-0.145 l -2.29,-0.145 -9.61,0.29 -5.88,0.14 c -1.05,0.098 -1.82,0.145 -2.29,0.145 -2.11,0 -3.16,-0.887 -3.16,-2.661 0,-1.773 1.29,-2.847 3.87,-3.218 9.95,-1.34 17.55,-6.77 22.8,-16.289 5.26,-9.516 7.89,-22.551 7.89,-39.102 v -97.578 c 0,-10.332 -1.41,-17.82 -4.23,-22.461 -2.82,-4.641 -8.24,-8.348 -16.27,-11.121 -2.78,-0.934 -4.12,-2.102 -4.02,-3.504 0.19,-1.773 1.53,-2.66 4.02,-2.66 1.05,0 2.81,0.176 5.3,0.519 3.35,0.438 6.88,0.653 10.61,0.653 l 6.88,0.261 14.63,-0.718 c 7.26,-0.379 11.42,-0.668 12.47,-0.86 1.53,-0.191 2.97,-0.285 4.31,-0.285 2,0 3.01,0.934 3.01,2.805 0,2.055 -1.58,3.273 -4.73,3.644 -7.56,1.149 -12.62,2.918 -15.2,5.313 -2.58,2.391 -4.21,6.746 -4.88,13.062 l -0.43,10.192 0.14,6.027 v 97.32 c 0,4.305 0.91,6.461 2.73,6.461 0.76,0 1.43,-0.289 2.01,-0.863 l 1.43,-1.574 120.88,-138.231 3.15,-3.726 c 0.77,-0.766 1.87,-1.195 3.3,-1.293 2.2,-0.094 3.54,1.031 4.02,3.371 0.47,2.34 0.71,8.914 0.71,19.715 v 120.164 l 0.29,9.461 z m -207.98,0 v 15.488 c 0,9.176 0.93,15.438 2.79,18.781 1.87,3.348 5.71,5.739 11.55,7.172 2,0.574 2.96,1.481 2.86,2.723 -0.19,2.008 -1.53,3.012 -4.01,3.012 -1.63,0 -3.97,-0.285 -7.03,-0.86 -3.53,-0.574 -8.27,-0.859 -14.19,-0.859 -11.09,0 -19.93,0.348 -26.53,1.039 -2.77,0.262 -4.78,0.395 -6.02,0.395 -2.78,0 -4.16,-0.887 -4.16,-2.665 0,-1.867 1.38,-3.039 4.16,-3.503 9.84,-1.625 16.65,-4.137 20.43,-7.528 3.78,-3.394 6.14,-9.152 7.1,-17.277 l 1.72,-32.981 -0.14,-19.355 v -70.981 c -0.1,-1.718 -0.63,-2.628 -1.58,-2.722 -0.57,-0.098 -1.91,1.051 -4.02,3.441 l -131.909,149.41 c -2.403,2.774 -4.793,4.161 -7.172,4.161 -1.25,0 -3.02,-0.051 -5.309,-0.145 l -2.293,-0.145 -9.609,0.29 -5.879,0.14 c -1.051,0.098 -1.82,0.145 -2.289,0.145 -2.11,0 -3.16,-0.887 -3.16,-2.661 0,-1.773 1.289,-2.847 3.871,-3.218 9.937,-1.34 17.539,-6.77 22.797,-16.289 5.261,-9.516 7.89,-22.551 7.89,-39.102 v -97.578 c 0,-10.332 -1.41,-17.82 -4.23,-22.461 -2.82,-4.641 -8.25,-8.348 -16.278,-11.121 -2.769,-0.934 -4.113,-2.102 -4.011,-3.504 0.191,-1.773 1.531,-2.66 4.011,-2.66 1.047,0 2.821,0.176 5.309,0.519 3.34,0.438 6.879,0.653 10.609,0.653 l 6.879,0.261 14.633,-0.718 c 7.258,-0.379 11.418,-0.668 12.469,-0.86 1.531,-0.191 2.969,-0.285 4.301,-0.285 2.008,0 3.019,0.934 3.019,2.805 0,2.055 -1.582,3.273 -4.738,3.644 -7.551,1.149 -12.613,2.918 -15.203,5.313 -2.578,2.391 -4.199,6.746 -4.867,13.062 l -0.43,10.192 0.137,6.027 v 97.32 c 0,4.305 0.91,6.461 2.73,6.461 0.762,0 1.43,-0.289 2,-0.863 l 1.442,-1.574 120.88,-138.231 3.15,-3.726 c 0.76,-0.766 1.86,-1.195 3.3,-1.293 2.2,-0.094 3.53,1.031 4.01,3.371 0.48,2.34 0.72,8.914 0.72,19.715 v 120.164 l 0.29,9.461 z m -290.909,32.898 c 1.719,1.489 5.539,2.235 11.457,2.235 h 22.473 c 14.789,0 24.949,-0.719 30.476,-2.153 5.543,-1.433 9.211,-4.3 11.024,-8.601 1.148,-2.778 1.718,-5.692 1.718,-8.75 v -3.727 c 0,-2.965 0.93,-4.398 2.782,-4.301 1.66,0.094 2.726,0.832 3.218,2.211 0.481,1.383 0.969,4.836 1.461,10.364 l 0.571,8.425 c 0.476,6.29 0.859,10.098 1.148,11.43 0.289,1.336 0.43,2.43 0.43,3.289 0,2.762 -1.578,4.145 -4.731,4.145 -1.25,0 -3.16,-0.196 -5.738,-0.574 -1.242,-0.196 -4.68,-0.383 -10.32,-0.575 l -20.36,-1.004 c -8.992,-0.382 -19.312,-0.574 -30.98,-0.574 -19.211,0 -35.652,0.766 -49.32,2.293 -4.02,0.481 -7.219,0.719 -9.61,0.719 -4.301,0 -6.449,-1.313 -6.449,-3.93 0,-1.777 1.379,-2.668 4.156,-2.668 8.692,0 14.551,-2.371 17.563,-7.105 3.008,-4.742 4.519,-13.957 4.519,-27.649 V 528.848 l -0.14,-9.336 c 0,-11.489 -3.45,-18.192 -10.329,-20.106 l -5.453,-1.578 c -2.476,-0.656 -3.726,-1.777 -3.726,-3.367 0,-2.059 1.527,-3.086 4.59,-3.086 1.339,0 3.828,0.336 7.457,1.004 6.882,1.144 18.691,1.719 35.422,1.719 11.941,0 27.05,-0.86 45.308,-2.578 4.68,-0.383 8.41,-0.575 11.18,-0.575 12.812,0 23.422,5.145 31.832,15.43 6.98,8.574 10.469,15.957 10.469,22.152 0,2.571 -0.879,3.809 -2.641,3.711 -1.078,-0.093 -2.16,-0.953 -3.238,-2.578 -10.692,-16.922 -34.789,-25.383 -72.301,-25.383 -11.84,0 -19.219,1.004 -22.129,3.02 -2.91,2.012 -4.359,7.086 -4.359,15.223 v 52.863 l -0.153,4.734 c 0,2.875 0.789,4.789 2.371,5.75 1.571,0.953 4.692,1.434 9.371,1.434 h 31.618 c 8.203,0 14.019,-1.145 17.461,-3.442 3.429,-2.293 5.718,-6.644 6.871,-13.047 l 0.847,-4.015 c 0.391,-2.102 1.621,-3.152 3.672,-3.152 1.86,0 2.789,1.191 2.789,3.574 0,0.859 -0.097,2.242 -0.289,4.148 -0.57,5.723 -0.859,11.488 -0.859,17.305 0,7.629 0.418,16.066 1.269,25.32 0.11,1.43 0.161,2.477 0.161,3.145 0,2.476 -0.93,3.765 -2.782,3.863 -1.961,0.094 -3.179,-1.055 -3.668,-3.441 -1.242,-6.309 -2.632,-10.325 -4.16,-12.047 -1.531,-1.719 -4.871,-3.106 -10.031,-4.157 -5.84,-1.148 -13.77,-1.722 -23.809,-1.722 h -22.082 c -4.109,0 -6.57,0.457 -7.379,1.367 -0.82,0.91 -1.218,3.574 -1.218,7.988 v 57.852 c 0,5.086 0.859,8.371 2.57,9.855 z m -77.75,-5.437 c 2.777,-2.059 4.777,-6.477 6.027,-13.266 0.571,-3.058 1.723,-4.539 3.442,-4.445 2.097,0.187 3.097,1.715 3.008,4.57 -0.098,1.43 -0.379,3.762 -0.86,7 -0.48,2.571 -0.719,6.66 -0.719,12.281 0,5.618 -0.55,8.997 -1.648,10.141 -1.102,1.141 -4.281,1.715 -9.543,1.715 H 550.75 c -3.25,0 -5.383,-0.695 -6.383,-2.074 -1.008,-1.383 -1.508,-4.262 -1.508,-8.645 0,-4.48 -0.718,-10.148 -2.148,-17.008 -1.149,-5.336 -1.723,-9.004 -1.723,-11.004 0,-2.476 0.86,-3.761 2.582,-3.859 1.719,-0.094 3.008,1.723 3.868,5.449 1.91,8.606 4.613,14.457 8.101,17.567 3.488,3.105 9.109,4.66 16.852,4.66 h 38 c 3.629,0 5.949,-0.481 6.949,-1.438 1.008,-0.957 1.508,-3.16 1.508,-6.605 l 0.14,-3.735 V 520.234 c 0,-8.043 -1.289,-13.621 -3.871,-16.734 -2.578,-3.113 -7.547,-5.148 -14.906,-6.102 -3.16,-0.375 -4.731,-1.308 -4.731,-2.8 0,-2.055 1.43,-3.078 4.309,-3.078 0.949,0 4.16,0.285 9.621,0.859 2.778,0.285 6.18,0.43 10.199,0.43 l 11.211,0.144 10.489,-0.144 c 6.8,0 11.109,-0.145 12.929,-0.43 3.551,-0.574 5.891,-0.859 7.039,-0.859 2.692,0 4.032,1.027 4.032,3.082 0,1.589 -1.68,2.664 -5.02,3.226 -12.051,2.106 -18.309,8.758 -18.789,19.961 l -0.141,5.606 v 140.75 c 0,4.496 0.551,7.324 1.649,8.472 1.101,1.149 3.75,1.723 7.961,1.723 h 40.289 c 8.031,0 13.43,-1.028 16.203,-3.082 v 0" /><path
             id="path26"
             style="fill:#545051;fill-opacity:1;fill-rule:nonzero;stroke:none"
             d="m 2051.9,807.102 c 0,2.3 0.48,3.91 1.44,4.828 0.96,0.918 2.65,1.375 5.08,1.375 l 2.62,0.062 8.32,-0.062 c 9.5,0 15.13,-2.801 16.88,-8.403 0.21,-0.64 0.32,-1.382 0.32,-2.23 v -2.164 c 0,-1.188 0.44,-1.781 1.34,-1.781 1.62,0 2.43,1.75 2.43,5.257 0,0.684 -0.06,1.516 -0.19,2.5 l -0.64,4.875 c -0.04,0.43 -0.17,1.989 -0.39,4.684 -0.12,2.223 -0.7,3.336 -1.72,3.336 -1.07,0 -2.71,-0.09 -4.93,-0.27 -6.01,-0.492 -11.89,-0.742 -17.64,-0.742 l -16.82,-0.066 -11,-0.199 c -2.86,0 -5.56,0.105 -8.12,0.316 -1.75,0.129 -2.86,0.195 -3.33,0.195 -1.45,0 -2.17,-0.633 -2.17,-1.89 0,-0.957 0.55,-1.477 1.66,-1.563 4.09,-0.215 7.21,-1.258 9.34,-3.129 1.87,-1.617 2.81,-5.109 2.81,-10.472 v -52.543 c 0,-5.11 -0.45,-8.704 -1.34,-10.789 -0.9,-2.086 -2.62,-3.555 -5.18,-4.407 -1.19,-0.39 -1.79,-1 -1.79,-1.824 0,-1.129 0.7,-1.691 2.11,-1.691 1.06,0 3.15,0.215 6.27,0.64 2.3,0.297 5.05,0.446 8.24,0.446 h 7.1 c 4.65,0 7.74,-0.086 9.27,-0.254 1.62,-0.215 2.86,-0.321 3.71,-0.321 0.94,0 1.41,0.586 1.41,1.758 0,1.039 -0.68,1.629 -2.05,1.758 -4.86,0.383 -8.1,1.641 -9.72,3.766 -2.21,2.894 -3.32,7.535 -3.32,13.918 v 7.535 l -0.06,5.109 c 0,5.32 0.48,8.383 1.47,9.192 0.98,0.808 4.66,1.214 11.06,1.214 4.99,0 8.48,-0.769 10.49,-2.304 2,-1.532 3.43,-4.539 4.28,-9.016 0.21,-1.191 0.72,-1.769 1.53,-1.726 1.16,0.085 1.73,0.574 1.73,1.468 0,0.551 -0.04,1.465 -0.13,2.742 l -0.96,12.063 c -0.25,3.316 -0.38,6.211 -0.38,8.676 0,0.765 0.02,1.426 0.06,1.98 0.09,0.805 0.13,1.36 0.13,1.66 0,1.102 -0.64,1.657 -1.92,1.657 -0.55,0 -1.02,-0.489 -1.4,-1.469 -1.58,-3.965 -3.18,-6.629 -4.8,-7.992 -1.62,-1.367 -4.01,-2.047 -7.16,-2.047 l -6.97,-0.067 -2.43,-0.062 c -1.79,0 -3,0.402 -3.61,1.215 -0.62,0.808 -0.93,2.41 -0.93,4.797 z m -75.73,0.191 c 4.05,-3.75 7.29,-8.813 9.72,-15.188 2.43,-6.371 3.64,-12.906 3.64,-19.597 0,-11.598 -2.62,-20.856 -7.87,-27.785 -5.24,-6.926 -12.23,-10.391 -20.97,-10.391 -9.68,0 -17.54,4.188 -23.59,12.566 -6.06,8.375 -9.08,19.258 -9.08,32.645 0,11.34 2.4,20.184 7.22,26.535 4.82,6.352 11.51,9.527 20.08,9.527 8.01,0 14.96,-2.769 20.85,-8.312 z m -36.55,9.238 c -6.37,-2.582 -11.63,-6.152 -15.76,-10.719 -3.58,-3.882 -6.42,-8.691 -8.51,-14.429 -2.08,-5.738 -3.13,-11.508 -3.13,-17.309 0,-13.523 4.14,-24.328 12.41,-32.414 8.27,-8.082 19.31,-12.125 33.12,-12.125 14.45,0 25.79,4.653 34.02,13.953 8.44,9.512 12.66,21.114 12.66,34.809 0,12.586 -4.09,22.75 -12.28,30.492 -8.18,7.742 -18.93,11.613 -32.23,11.613 -7.16,0 -13.93,-1.289 -20.3,-3.871 z m -128.5,-46.672 c 0.19,0.809 0.74,1.871 1.63,3.196 4.52,7.113 9.49,15.886 14.9,26.324 3.03,5.832 5.53,9.797 7.52,11.883 1.98,2.086 4.57,3.511 7.77,4.281 1.53,0.348 2.3,0.977 2.3,1.891 0,1 -0.58,1.5 -1.73,1.5 -2.01,0 -3.7,-0.043 -5.06,-0.129 l -5.39,-0.321 c -1.7,-0.129 -3.26,-0.191 -4.67,-0.191 -2.61,0 -4.74,0.105 -6.41,0.32 l -4.23,0.575 c -0.98,0.128 -2.07,0.191 -3.27,0.191 -1.11,0 -1.66,-0.672 -1.66,-2.02 0,-0.867 0.68,-1.386 2.04,-1.562 2.69,-0.254 5.08,-1.168 7.17,-2.742 2.08,-1.575 3.13,-3.258 3.13,-5.043 0,-2.129 -2.34,-7.407 -7,-15.832 -2.3,-4.09 -3.72,-6.684 -4.27,-7.789 -2.21,-4.34 -3.99,-6.512 -5.35,-6.512 -1.36,0 -2.77,1.488 -4.22,4.469 -0.47,1.019 -1.73,3.488 -3.77,7.406 l -4.99,9.699 c -3.12,6.043 -4.68,9.961 -4.68,11.746 0,2.215 1.64,3.641 4.93,4.281 1.45,0.301 2.17,0.911 2.17,1.825 0,1.082 -0.89,1.629 -2.68,1.629 -0.89,0 -2.66,-0.129 -5.3,-0.387 -3.57,-0.383 -7.08,-0.574 -10.53,-0.574 -3.75,0 -7.92,0.254 -12.51,0.765 -2.26,0.258 -3.92,0.383 -4.98,0.383 -1.19,0 -1.79,-0.672 -1.79,-2.016 0,-1.082 0.79,-1.687 2.37,-1.82 5.2,-0.512 9.74,-4.426 13.62,-11.746 l 9.72,-18.258 c 2.68,-5.109 5.13,-9.492 7.35,-13.152 1.88,-3.067 2.81,-6.024 2.81,-8.875 v -12.195 c 0,-5.704 -0.84,-9.704 -2.52,-12 -1.69,-2.301 -4.92,-3.832 -9.69,-4.598 -1.19,-0.176 -1.79,-0.652 -1.79,-1.434 0,-1.433 0.49,-2.148 1.47,-2.148 0.81,0 2.08,0.152 3.83,0.449 2.64,0.469 7.94,0.703 15.9,0.703 3.32,0 5.81,-0.09 7.47,-0.269 l 9.07,-0.809 c 1.19,-0.133 2.29,-0.203 3.32,-0.203 1.91,0 2.87,0.629 2.87,1.891 0,1.125 -0.68,1.734 -2.05,1.82 -7.8,0.426 -12.06,3.047 -12.79,7.859 l -0.31,4.344 v 18.848 c 0,2.09 0.09,3.535 0.28,4.347 z m -100.76,40.856 c 1.6,1 5.64,1.504 12.12,1.504 4.82,0 8.49,-0.879 11.03,-2.637 2.54,-1.758 4.25,-4.625 5.15,-8.609 0.38,-1.625 1.06,-2.442 2.05,-2.442 1.15,0 1.72,0.707 1.72,2.114 0,1.363 -0.15,3.175 -0.45,5.433 -0.38,2.727 -0.59,4.453 -0.64,5.18 l -0.32,4.605 c -0.12,1.961 -1.36,2.942 -3.7,2.942 -0.64,0 -2.07,-0.043 -4.29,-0.129 -11.21,-0.555 -21.83,-0.832 -31.84,-0.832 l -15.54,0.191 -13.05,0.129 c -3.07,0 -5.43,0.063 -7.09,0.191 -1.03,0.086 -1.75,0.129 -2.18,0.129 -1.62,0 -2.51,-0.832 -2.68,-2.496 l -0.45,-3.898 -0.77,-5.692 -0.64,-5.562 c -0.38,-2.133 -0.6,-3.793 -0.64,-4.988 -0.08,-1.321 0.58,-1.985 1.98,-1.985 0.98,0 1.71,0.879 2.18,2.633 l 0.51,1.797 c 1.28,4.66 2.29,7.582 3.04,8.758 0.74,1.179 2.25,2.234 4.51,3.176 3.11,1.242 8.93,1.863 17.45,1.863 3.63,0 5.44,-1.684 5.44,-5.051 v -56.785 l 0.06,-3.004 c 0,-3.797 -0.9,-6.789 -2.72,-8.984 -1.81,-2.196 -4.38,-3.403 -7.7,-3.614 -1.28,-0.086 -2.11,-0.269 -2.49,-0.55 -0.39,-0.286 -0.6,-0.899 -0.64,-1.856 -0.05,-1.121 0.59,-1.687 1.91,-1.687 0.56,0 1.58,0.086 3.07,0.257 l 14.14,0.832 c 1.96,0.125 4.17,0.192 6.65,0.192 1.06,0 1.91,-0.024 2.55,-0.067 l 8,-0.511 4.79,-0.192 c 0.77,-0.039 1.3,-0.062 1.6,-0.062 1.32,0 1.98,0.496 1.98,1.496 0,1.387 -0.76,2.144 -2.3,2.277 -5.29,0.34 -8.97,2.012 -11.06,5.02 -2.09,3.004 -3.13,8.109 -3.13,15.312 v 48.153 c 0,3.964 0.79,6.445 2.39,7.449 z m -83.55,-5.203 c 0,3.664 0.44,6.09 1.32,7.281 0.87,1.195 2.84,2.047 5.91,2.559 0.85,0.128 1.39,0.324 1.6,0.586 0.21,0.257 0.32,0.777 0.32,1.558 0,1.043 -0.7,1.563 -2.11,1.563 -2.35,0 -5.71,-0.161 -10.1,-0.489 l -4.67,-0.363 c -3.54,-0.285 -6.5,-0.426 -8.89,-0.426 -3.62,0 -6.2,0.168 -7.74,0.512 -1.53,0.297 -2.68,0.469 -3.45,0.512 -1.02,0.043 -1.54,-0.543 -1.54,-1.754 0,-0.778 0.31,-1.328 0.93,-1.653 0.62,-0.324 2.02,-0.66 4.19,-1.007 3.62,-0.555 6.12,-1.661 7.48,-3.321 1.37,-1.66 2.05,-4.449 2.05,-8.359 v -50.887 l -0.07,-5.679 c 0,-3.704 -0.5,-6.356 -1.5,-7.95 -1,-1.597 -3.04,-2.949 -6.11,-4.054 l -1.85,-1.5 0.13,-0.52 c 0.25,-0.914 0.85,-1.371 1.79,-1.371 0.94,0 2.47,0.207 4.6,0.609 2.47,0.45 5.84,0.672 10.11,0.672 3.45,0 7.95,-0.316 13.49,-0.945 2.21,-0.223 3.92,-0.336 5.11,-0.336 2.77,0 4.16,0.629 4.16,1.887 0,1.301 -1.05,1.953 -3.13,1.953 -3.2,0 -5.79,0.871 -7.77,2.617 -1.99,1.746 -3.23,4.262 -3.74,7.539 l -0.52,6.391 z m -98.01,7.66 c -4.58,-4.734 -6.87,-10.621 -6.87,-17.66 0,-6.055 1.65,-10.907 4.93,-14.555 3.29,-3.645 9.52,-7.519 18.7,-11.613 l 9.73,-4.344 c 4.36,-1.914 7.42,-3.953 9.19,-6.121 1.77,-2.168 2.66,-4.93 2.66,-8.289 0,-4.25 -1.7,-8.024 -5.09,-11.317 -3.39,-3.293 -7.25,-4.941 -11.56,-4.941 -5.55,0 -10.91,2.488 -16.07,7.465 -5.17,4.976 -8.8,11.121 -10.89,18.437 -0.26,1.02 -0.68,1.532 -1.28,1.532 -1.32,0 -1.98,-1.024 -1.98,-3.071 0,-1.621 0.81,-5.328 2.43,-11.125 1.06,-3.797 1.7,-6.695 1.92,-8.695 0.21,-1.836 0.48,-2.934 0.8,-3.297 0.32,-0.359 1.46,-0.734 3.42,-1.117 1.4,-0.301 3.6,-0.938 6.58,-1.918 6.4,-2.004 11.07,-3.008 14.01,-3.008 7.2,0 13.49,2.75 18.86,8.254 5.37,5.5 8.06,11.961 8.06,19.383 0,6.738 -1.94,12.496 -5.83,17.273 -3.28,3.965 -9.99,8.016 -20.11,12.157 -8.49,3.449 -13.55,5.941 -15.17,7.476 -2.52,2.375 -3.78,5.199 -3.78,8.473 0,3.523 1.43,6.578 4.29,9.168 2.86,2.593 6.21,3.886 10.06,3.886 5.59,0 10.89,-2.167 15.88,-6.503 5,-4.336 8.11,-9.485 9.35,-15.434 0.34,-1.617 0.9,-2.426 1.66,-2.426 1.07,0 1.6,0.918 1.6,2.75 0,0.34 -0.04,0.77 -0.12,1.281 l -0.64,5.817 -0.84,6.269 c -0.08,0.723 -0.12,1.489 -0.12,2.301 l 0.12,5.18 c 0,1.406 -0.44,2.109 -1.34,2.109 -0.34,0 -0.68,-0.086 -1.03,-0.254 l -2.43,-1.215 c -0.64,-0.3 -1.26,-0.449 -1.86,-0.449 -0.81,0 -2.17,0.383 -4.09,1.153 l -4.28,1.789 c -3.84,1.535 -7.76,2.3 -11.76,2.3 -6.82,0 -12.52,-2.367 -17.11,-7.101 z m -87.6,-0.41 c 1.09,1.215 3.09,1.82 5.99,1.82 6.49,0 11.85,-2.098 16.05,-6.297 4.21,-4.199 6.32,-9.519 6.32,-15.953 0,-4.945 -1.56,-8.828 -4.68,-11.641 -1.58,-1.449 -3.28,-2.312 -5.1,-2.589 -1.81,-0.278 -6.52,-0.414 -14.13,-0.414 -2.64,0 -4.32,0.363 -5.03,1.085 -0.7,0.727 -1.05,2.454 -1.05,5.18 v 22.125 c 0,3.238 0.54,5.469 1.63,6.684 z m -1.63,-43.637 c 0,1.703 0.32,2.723 0.95,3.063 l 2.88,0.511 h 3.97 c 3.36,0 5.79,-0.629 7.29,-1.887 1.49,-1.257 3.38,-4.25 5.68,-8.984 5.91,-11.98 10.72,-20.121 14.42,-24.426 3.7,-4.304 7.74,-6.457 12.13,-6.457 2.69,0 5.79,0.785 9.28,2.364 3.48,1.578 5.23,2.984 5.23,4.218 0,0.981 -0.38,1.469 -1.15,1.469 -0.43,0 -0.9,-0.062 -1.41,-0.191 -0.85,-0.168 -1.77,-0.254 -2.75,-0.254 -2.38,0 -4.46,0.765 -6.23,2.301 -1.77,1.531 -3.79,4.277 -6.04,8.242 l -6.59,11.691 -5.69,10.094 c -0.77,1.402 -1.34,2.406 -1.73,3.004 -0.38,0.594 -0.6,1.105 -0.64,1.531 -0.04,0.512 0.36,0.938 1.22,1.281 4.13,1.789 7.38,4.414 9.75,7.871 2.36,3.454 3.55,7.293 3.55,11.516 0,6.699 -2.67,12.258 -8,16.672 -5.32,4.418 -12.04,6.625 -20.14,6.625 -2.73,0 -7.69,-0.277 -14.9,-0.832 -6.14,-0.469 -11.36,-0.703 -15.66,-0.703 -3.93,0 -7.53,0.168 -10.81,0.511 -1.07,0.129 -1.83,0.192 -2.3,0.192 -1.2,0 -1.79,-0.606 -1.79,-1.817 0,-1.214 0.87,-1.953 2.62,-2.21 4.73,-0.594 8.14,-2.321 10.23,-5.168 1.28,-1.743 1.92,-5.168 1.92,-10.27 v -46.187 l -0.07,-2.489 v -6.058 c 0,-3.106 -0.55,-5.414 -1.66,-6.922 -1.11,-1.512 -3.11,-2.711 -6.01,-3.606 -0.85,-0.261 -1.28,-0.867 -1.28,-1.824 0,-1.168 0.77,-1.758 2.3,-1.758 0.47,0 1.3,0.063 2.5,0.184 l 4.28,0.367 5.37,0.484 c 2.22,0.165 4.76,0.247 7.61,0.247 3.41,0 6.95,-0.153 10.62,-0.45 1.28,-0.125 2.15,-0.191 2.62,-0.191 1.45,0 2.17,0.605 2.17,1.82 0,1.215 -0.89,1.906 -2.68,2.082 -4.39,0.426 -7.33,2.074 -8.83,4.946 -1.49,2.875 -2.23,8.351 -2.23,16.437 z m -92.33,37.465 c 0,3.621 1.09,5.777 3.26,6.457 l 4.35,0.512 h 7.8 c 6.91,0 11.91,-0.954 15,-2.856 3.09,-1.906 4.63,-4.976 4.63,-9.215 0,-1.929 0.41,-2.871 1.22,-2.828 1.66,0.086 2.49,1.75 2.49,4.988 0,1.622 -0.17,4.286 -0.51,7.993 -0.25,2.515 -0.38,4.261 -0.38,5.246 0,1.406 -0.62,2.109 -1.86,2.109 -0.25,0 -0.55,-0.023 -0.89,-0.062 -3.24,-0.387 -11.83,-0.579 -25.77,-0.579 l -24.24,0.258 -6.46,0.254 c -1.32,0 -2.36,0.024 -3.13,0.067 -0.98,0.082 -1.62,0.125 -1.92,0.125 -1.4,0 -2.11,-0.5 -2.11,-1.497 0,-1.089 0.58,-1.718 1.73,-1.894 4.9,-0.68 8.13,-1.871 9.69,-3.574 1.55,-1.699 2.33,-4.938 2.33,-9.703 v -50.629 c 0,-3.875 -0.23,-6.938 -0.7,-9.192 -0.51,-2.683 -1.21,-4.547 -2.08,-5.59 -0.87,-1.042 -2.53,-2.031 -4.96,-2.968 -0.98,-0.391 -1.45,-0.977 -1.4,-1.762 0.08,-0.957 0.64,-1.434 1.66,-1.434 0.77,0 2.02,0.063 3.77,0.192 6.35,0.383 11.09,0.574 14.2,0.574 4.64,0 8.33,-0.129 11.06,-0.383 l 7.42,-0.703 c 3.32,-0.34 6.35,-0.512 9.08,-0.512 4.64,0 8.38,0.715 11.19,2.149 2.81,1.429 5.16,3.812 7.03,7.148 2.26,3.934 3.39,7.996 3.39,12.184 0,0.555 -0.18,1.015 -0.54,1.379 -0.36,0.363 -0.76,0.5 -1.18,0.418 -0.22,-0.043 -0.47,-0.321 -0.77,-0.832 -5.33,-10.532 -16.65,-15.793 -33.96,-15.793 -2.04,0 -3.56,0.336 -4.54,1.019 -0.98,0.68 -1.83,1.977 -2.55,3.895 -0.94,2.637 -1.41,6.957 -1.41,12.957 v 5.746 c 0,4.598 0.13,7.961 0.38,10.09 0.26,1.871 0.76,3.113 1.51,3.73 0.74,0.617 2.14,0.926 4.18,0.926 h 4.35 c 4.39,0 7.39,-0.148 8.99,-0.445 1.59,-0.301 2.95,-0.961 4.06,-1.985 2,-1.875 3.28,-4.625 3.83,-8.246 0.26,-1.707 0.92,-2.515 1.99,-2.429 0.51,0.039 0.85,0.191 1.02,0.445 0.13,0.215 0.19,0.621 0.19,1.219 l -0.06,3.269 c 0,2.434 -0.13,5.297 -0.39,8.586 -0.38,5.039 -0.57,8.242 -0.57,9.613 0,0.766 0.04,1.707 0.13,2.817 0.12,1.539 0.19,2.476 0.19,2.82 0,1.195 -0.47,1.774 -1.41,1.731 -0.9,-0.043 -1.53,-0.45 -1.92,-1.215 l -1.47,-3.133 c -2.3,-4.649 -5.56,-6.973 -9.78,-6.973 h -5.44 l -2.81,-0.062 -1.92,-0.063 c -2.22,0 -3.61,0.531 -4.19,1.598 -0.57,1.066 -0.86,3.582 -0.86,7.547 v 13.875 l 0.06,2.621 z m -109.94,3.328 c 0,3.113 1.58,4.941 4.73,5.496 1.79,0.348 2.69,1.02 2.69,2.016 0,1.172 -0.6,1.758 -1.79,1.758 -0.85,0 -2.7,-0.086 -5.55,-0.254 l -6.71,-0.321 -10.72,0.321 c -2.89,0 -5.43,0.125 -7.6,0.382 -0.93,0.082 -1.57,0.125 -1.91,0.125 -1.19,0 -1.79,-0.582 -1.79,-1.753 0,-1.083 0.86,-1.797 2.56,-2.145 2.98,-0.641 5.34,-2.215 7.07,-4.731 1.72,-2.511 4.06,-7.687 7,-15.527 2.47,-6.687 5.56,-14.246 9.27,-22.68 l 15.16,-34.378 1.59,-3.899 1.47,-3.258 c 0.48,-1.023 1.13,-1.535 1.95,-1.535 1.21,0 2.22,0.961 3.04,2.875 0.3,0.727 1.6,3.453 3.9,8.18 0.3,0.555 2.22,4.769 5.76,12.652 l 10.93,24.09 9.53,22.043 c 2.9,6.52 5.13,10.813 6.68,12.875 1.56,2.07 3.57,3.336 6.05,3.805 1.27,0.257 1.91,0.886 1.91,1.886 0,1.086 -0.38,1.629 -1.15,1.629 -0.59,0 -1.44,-0.086 -2.55,-0.254 -2.85,-0.511 -6.21,-0.769 -10.08,-0.769 -1.28,0 -3.43,0.086 -6.45,0.258 l -6.7,0.383 c -1.83,0.085 -3.02,0.128 -3.57,0.128 -1.07,0 -1.6,-0.5 -1.6,-1.5 0,-1.004 0.75,-1.589 2.24,-1.761 3.45,-0.512 6.11,-1.61 7.96,-3.289 1.86,-1.684 2.78,-3.844 2.78,-6.485 0,-4.644 -2.37,-12.203 -7.12,-22.679 l -14.43,-31.942 c -0.56,-1.234 -1.07,-1.832 -1.54,-1.789 -0.52,0.043 -1.09,0.832 -1.74,2.363 l -14.27,34.946 c -4.67,11.328 -7,18.906 -7,22.738 z m -60.25,-4.406 c 0,3.664 0.43,6.09 1.31,7.281 0.87,1.195 2.84,2.047 5.91,2.559 0.85,0.128 1.39,0.324 1.6,0.586 0.21,0.257 0.32,0.777 0.32,1.558 0,1.043 -0.7,1.563 -2.11,1.563 -2.34,0 -5.71,-0.161 -10.1,-0.489 l -4.67,-0.363 c -3.54,-0.285 -6.5,-0.426 -8.89,-0.426 -3.62,0 -6.2,0.168 -7.74,0.512 -1.53,0.297 -2.68,0.469 -3.45,0.512 -1.02,0.043 -1.53,-0.543 -1.53,-1.754 0,-0.778 0.3,-1.328 0.92,-1.653 0.62,-0.324 2.02,-0.66 4.19,-1.007 3.62,-0.555 6.12,-1.661 7.48,-3.321 1.37,-1.66 2.05,-4.449 2.05,-8.359 v -50.887 l -0.06,-5.679 c 0,-3.704 -0.51,-6.356 -1.51,-7.95 -1,-1.597 -3.04,-2.949 -6.1,-4.054 l -1.86,-1.5 0.13,-0.52 c 0.25,-0.914 0.85,-1.371 1.79,-1.371 0.94,0 2.47,0.207 4.6,0.609 2.48,0.45 5.84,0.672 10.11,0.672 3.45,0 7.95,-0.316 13.49,-0.945 2.22,-0.223 3.92,-0.336 5.11,-0.336 2.78,0 4.16,0.629 4.16,1.887 0,1.301 -1.04,1.953 -3.13,1.953 -3.2,0 -5.79,0.871 -7.77,2.617 -1.98,1.746 -3.23,4.262 -3.74,7.539 l -0.51,6.391 z m -113.55,2.355 -4.4,5.18 c -2.47,2.941 -4.08,4.703 -4.85,5.277 -0.76,0.574 -1.8,0.864 -3.12,0.864 -0.95,0 -2.12,-0.067 -3.53,-0.192 -3.81,-0.383 -7.37,-0.578 -10.71,-0.578 l -2.69,-0.063 -4.43,0.192 c -1.45,0 -2.18,-0.606 -2.18,-1.824 0,-1 0.67,-1.543 1.99,-1.629 9.67,-0.68 14.51,-7.571 14.51,-20.668 v -27.688 l -0.45,-15.183 c 0,-5.231 -0.71,-9.239 -2.14,-12.024 -1.43,-2.785 -3.7,-4.625 -6.81,-5.519 -1.23,-0.348 -1.85,-0.953 -1.85,-1.824 0,-1.043 0.57,-1.563 1.73,-1.563 0.68,0 1.77,0.121 3.27,0.363 3.37,0.61 7.21,0.914 11.53,0.914 4.35,0 8.33,-0.297 11.91,-0.894 1.16,-0.168 1.99,-0.258 2.5,-0.258 1.33,0 1.99,0.652 1.99,1.953 0,0.953 -0.64,1.5 -1.92,1.629 -6.9,0.641 -11.06,3.344 -12.47,8.113 -1.32,4.473 -1.98,13.328 -1.98,26.575 v 24.785 l 0.06,1.855 c 0,1.914 0.51,2.871 1.54,2.871 0.38,0 1.08,-0.551 2.1,-1.66 l 58.18,-64.648 c 0.8,-0.895 1.59,-1.364 2.36,-1.407 0.86,-0.043 1.29,0.532 1.29,1.723 l -0.26,7.988 -0.06,4.856 0.06,7.094 0.26,5.496 0.91,39.933 v 3.133 c 0,8.731 2.75,13.609 8.25,14.629 1.36,0.219 2.04,0.871 2.04,1.953 0,1.215 -0.68,1.82 -2.05,1.82 -0.38,0 -1,-0.043 -1.86,-0.125 -6.4,-0.812 -11.08,-1.214 -14.03,-1.214 -1.45,0 -3.29,0.125 -5.51,0.382 -3.41,0.426 -5.89,0.637 -7.43,0.637 -1.24,0 -1.86,-0.562 -1.86,-1.695 0,-0.91 0.71,-1.414 2.11,-1.5 5.93,-0.426 9.9,-2.406 11.93,-5.942 2.02,-3.535 3.04,-10.304 3.04,-20.312 0,-8.516 -0.19,-17.477 -0.58,-26.887 -0.08,-2.597 -0.57,-3.898 -1.47,-3.898 -0.97,0 -2.91,1.621 -5.8,4.859 l -2.17,2.43 -33.82,37.984 c -0.34,0.426 -1.38,1.664 -3.13,3.707 z m -86.312,9.949 c 0,-1.261 0.839,-1.89 2.5,-1.89 3.792,0 6.8,-1.098 9.011,-3.293 2.219,-2.195 3.461,-5.274 3.711,-9.238 l 0.32,-13.11 v -5.18 c 0,-11.808 -0.71,-20.867 -2.14,-27.175 -1.43,-6.313 -3.852,-11.106 -7.262,-14.391 -5.07,-4.859 -11.719,-7.289 -19.949,-7.289 -8.051,0 -14.66,2.367 -19.82,7.098 -3.411,3.113 -5.661,6.851 -6.75,11.222 -1.079,4.371 -1.629,11.711 -1.629,22.032 l -0.129,11.316 1.027,16.113 c 0.211,4.137 0.77,6.918 1.66,8.348 0.903,1.426 2.641,2.394 5.242,2.906 1.278,0.262 2.09,0.52 2.43,0.781 0.34,0.258 0.52,0.735 0.52,1.43 0,1.254 -1.11,1.883 -3.321,1.883 -0.898,0 -2.371,-0.086 -4.41,-0.258 -5.058,-0.469 -9.679,-0.703 -13.851,-0.703 -2.938,0 -7.11,0.258 -12.52,0.77 -1.269,0.128 -2.148,0.191 -2.609,0.191 -1.449,0 -2.168,-0.563 -2.168,-1.691 0,-1.043 0.828,-1.696 2.488,-1.954 2.602,-0.382 4.949,-1.066 7.031,-2.043 1.797,-0.855 2.981,-1.875 3.547,-3.07 0.582,-1.191 0.871,-3.238 0.871,-6.133 l 0.192,-11.629 -0.7,-24.73 c 0,-16.059 4.071,-26.879 12.208,-32.457 6.011,-4.09 14.453,-6.137 25.32,-6.137 15.39,0 26.301,4.965 32.742,14.891 2.688,4.086 4.641,9.902 5.848,17.441 1.222,7.539 1.82,17.465 1.82,29.778 l 0.133,7.859 -0.063,5.558 c 0,6.563 1.662,10.118 4.992,10.672 l 2.43,0.45 c 1.06,0.171 1.59,0.691 1.59,1.562 0,1.133 -0.57,1.695 -1.73,1.695 -0.64,0 -1.34,-0.043 -2.11,-0.125 -1.62,-0.214 -3.5,-0.406 -5.64,-0.578 l -6.282,-0.254 -6.789,0.321 c -2.648,0.129 -4.34,0.254 -5.058,0.383 -0.692,0.167 -1.18,0.234 -1.481,0.191 -0.812,-0.043 -1.222,-0.563 -1.222,-1.563 z M 795.75,806.59 c 0,3.621 1.09,5.777 3.258,6.457 l 4.351,0.512 h 7.801 c 6.91,0 11.899,-0.954 15,-2.856 3.09,-1.906 4.629,-4.976 4.629,-9.215 0,-1.929 0.41,-2.871 1.219,-2.828 1.66,0.086 2.492,1.75 2.492,4.988 0,1.622 -0.172,4.286 -0.512,7.993 -0.258,2.515 -0.379,4.261 -0.379,5.246 0,1.406 -0.621,2.109 -1.859,2.109 -0.25,0 -0.551,-0.023 -0.891,-0.062 -3.242,-0.387 -11.832,-0.579 -25.769,-0.579 l -24.242,0.258 -6.457,0.254 c -1.321,0 -2.364,0.024 -3.133,0.067 -0.981,0.082 -1.617,0.125 -1.918,0.125 -1.41,0 -2.11,-0.5 -2.11,-1.497 0,-1.089 0.579,-1.718 1.731,-1.894 4.898,-0.68 8.129,-1.871 9.68,-3.574 1.558,-1.699 2.339,-4.938 2.339,-9.703 v -50.629 c 0,-3.875 -0.242,-6.938 -0.703,-9.192 -0.519,-2.683 -1.207,-4.547 -2.078,-5.59 -0.879,-1.042 -2.531,-2.031 -4.961,-2.968 -0.98,-0.391 -1.449,-0.977 -1.41,-1.762 0.09,-0.957 0.641,-1.434 1.672,-1.434 0.758,0 2.02,0.063 3.77,0.192 6.347,0.383 11.078,0.574 14.199,0.574 4.64,0 8.332,-0.129 11.058,-0.383 l 7.422,-0.703 c 3.321,-0.34 6.352,-0.512 9.078,-0.512 4.641,0 8.371,0.715 11.192,2.149 2.808,1.429 5.148,3.812 7.031,7.148 2.258,3.934 3.391,7.996 3.391,12.184 0,0.555 -0.18,1.015 -0.543,1.379 -0.368,0.363 -0.758,0.5 -1.188,0.418 -0.211,-0.043 -0.472,-0.321 -0.762,-0.832 -5.328,-10.532 -16.648,-15.793 -33.96,-15.793 -2.047,0 -3.559,0.336 -4.54,1.019 -0.98,0.68 -1.828,1.977 -2.558,3.895 -0.942,2.637 -1.402,6.957 -1.402,12.957 v 5.746 c 0,4.598 0.121,7.961 0.382,10.09 0.258,1.871 0.758,3.113 1.5,3.73 0.75,0.617 2.141,0.926 4.188,0.926 h 4.351 c 4.391,0 7.379,-0.148 8.981,-0.445 1.598,-0.301 2.949,-0.961 4.058,-1.985 2.012,-1.875 3.29,-4.625 3.84,-8.246 0.262,-1.707 0.922,-2.515 1.981,-2.429 0.511,0.039 0.851,0.191 1.031,0.445 0.117,0.215 0.188,0.621 0.188,1.219 l -0.071,3.269 c 0,2.434 -0.117,5.297 -0.379,8.586 -0.379,5.039 -0.578,8.242 -0.578,9.613 0,0.766 0.051,1.707 0.129,2.817 0.129,1.539 0.191,2.476 0.191,2.82 0,1.195 -0.472,1.774 -1.402,1.731 -0.898,-0.043 -1.539,-0.45 -1.918,-1.215 l -1.472,-3.133 c -2.297,-4.649 -5.559,-6.973 -9.79,-6.973 h -5.429 l -2.809,-0.062 -1.922,-0.063 c -2.218,0 -3.621,0.531 -4.187,1.598 -0.582,1.066 -0.863,3.582 -0.863,7.547 v 13.875 l 0.062,2.621 z M 717.699,773.5 c 0.551,-0.871 0.828,-3.395 0.828,-7.566 v -14.043 l -0.058,-3.45 c 0,-4.425 -0.629,-7.722 -1.891,-9.894 -1.258,-2.172 -3.34,-3.492 -6.23,-3.957 -1.071,-0.133 -1.598,-0.652 -1.598,-1.563 0,-1.433 0.68,-2.148 2.039,-2.148 0.68,0 2.328,0.152 4.93,0.449 4.39,0.469 7.929,0.703 10.609,0.703 4.18,0 8.801,-0.301 13.883,-0.894 2.207,-0.258 3.707,-0.387 4.469,-0.387 2.218,0 3.328,0.676 3.328,2.02 0,1.125 -0.789,1.691 -2.367,1.691 -4.391,0 -7.551,1.328 -9.493,3.988 -1.937,2.66 -2.91,7.012 -2.91,13.059 v 54.844 c 0,5.488 2.512,8.66 7.539,9.511 1.243,0.215 1.864,0.801 1.864,1.758 0,1.172 -0.774,1.758 -2.301,1.758 -1.582,0 -3.902,-0.149 -6.973,-0.445 -5.117,-0.555 -8.488,-0.832 -10.109,-0.832 -4.641,0 -8.719,0.265 -12.207,0.804 -2.051,0.313 -3.453,0.473 -4.223,0.473 -1.367,0 -2.051,-0.629 -2.051,-1.887 0,-1.039 0.602,-1.668 1.793,-1.887 l 2.938,-0.574 c 6.019,-1.109 9.019,-4.39 9.019,-9.847 v -13.75 c 0,-4.731 -0.289,-7.618 -0.859,-8.664 -0.578,-1.043 -2.168,-1.567 -4.77,-1.567 h -29.859 c -3.488,0 -5.551,0.371 -6.172,1.117 -0.617,0.746 -0.929,3.289 -0.929,7.629 v 16.403 c 0,5.488 2.523,8.66 7.55,9.511 1.231,0.215 1.852,0.801 1.852,1.758 0,1.172 -0.762,1.758 -2.301,1.758 -1.578,0 -3.898,-0.149 -6.969,-0.445 -5.16,-0.555 -8.531,-0.832 -10.101,-0.832 -4.649,0 -8.699,0.265 -12.149,0.804 -2.05,0.313 -3.453,0.473 -4.222,0.473 -1.368,0 -2.047,-0.629 -2.047,-1.887 0,-0.996 0.597,-1.625 1.789,-1.887 4.558,-0.894 7.687,-2.078 9.371,-3.543 1.68,-1.472 2.527,-3.761 2.527,-6.871 v -53.289 l -0.07,-3.449 c 0,-4.43 -0.629,-7.73 -1.879,-9.902 -1.262,-2.176 -3.34,-3.496 -6.238,-3.961 -1.063,-0.133 -1.602,-0.652 -1.602,-1.563 0,-1.433 0.68,-2.148 2.051,-2.148 0.68,0 2.32,0.152 4.918,0.449 4.391,0.469 7.91,0.703 10.551,0.703 4.219,0 8.851,-0.301 13.879,-0.894 2.261,-0.258 3.769,-0.387 4.543,-0.387 2.218,0 3.32,0.676 3.32,2.02 0,1.125 -0.723,1.691 -2.172,1.691 -4.48,0 -7.691,1.328 -9.66,3.988 -1.961,2.66 -2.941,7.012 -2.941,13.059 v 15.894 c 0,3.364 0.363,5.438 1.062,6.227 0.699,0.785 2.57,1.18 5.59,1.18 h 30.308 c 2.653,0 4.243,-0.438 4.801,-1.309 z m -122.5,37.215 c 1.602,1 5.641,1.504 12.121,1.504 4.821,0 8.489,-0.879 11.028,-2.637 2.543,-1.758 4.25,-4.625 5.152,-8.609 0.379,-1.625 1.059,-2.442 2.039,-2.442 1.149,0 1.731,0.707 1.731,2.114 0,1.363 -0.153,3.175 -0.45,5.433 -0.382,2.727 -0.59,4.453 -0.64,5.18 l -0.321,4.605 c -0.121,1.961 -1.359,2.942 -3.711,2.942 -0.628,0 -2.058,-0.043 -4.281,-0.129 -11.207,-0.555 -21.828,-0.832 -31.84,-0.832 l -15.539,0.191 -13.05,0.129 c -3.071,0 -5.43,0.063 -7.098,0.191 -1.02,0.086 -1.742,0.129 -2.172,0.129 -1.617,0 -2.52,-0.832 -2.688,-2.496 l -0.441,-3.898 -0.769,-5.692 -0.641,-5.562 c -0.379,-2.133 -0.602,-3.793 -0.641,-4.988 -0.09,-1.321 0.582,-1.985 1.981,-1.985 0.98,0 1.711,0.879 2.179,2.633 l 0.512,1.797 c 1.278,4.66 2.289,7.582 3.039,8.758 0.739,1.179 2.239,2.234 4.5,3.176 3.121,1.242 8.93,1.863 17.461,1.863 3.617,0 5.438,-1.684 5.438,-5.051 v -56.785 l 0.062,-3.004 c 0,-3.797 -0.91,-6.789 -2.722,-8.984 -1.809,-2.196 -4.379,-3.403 -7.7,-3.614 -1.277,-0.086 -2.109,-0.269 -2.5,-0.55 -0.379,-0.286 -0.59,-0.899 -0.64,-1.856 -0.039,-1.121 0.601,-1.687 1.922,-1.687 0.558,0 1.578,0.086 3.07,0.257 l 14.129,0.832 c 1.961,0.125 4.179,0.192 6.648,0.192 1.071,0 1.922,-0.024 2.563,-0.067 l 7.988,-0.511 4.801,-0.192 c 0.769,-0.039 1.301,-0.062 1.601,-0.062 1.321,0 1.981,0.496 1.981,1.496 0,1.387 -0.774,2.144 -2.301,2.277 -5.289,0.34 -8.973,2.012 -11.062,5.02 -2.09,3.004 -3.137,8.109 -3.137,15.312 v 48.153 c 0,3.964 0.797,6.445 2.398,7.449 v 0" /><path
             id="path28"
             style="fill:#545051;fill-opacity:1;fill-rule:nonzero;stroke:none"
             d="m 1359.77,430.152 c 0,3.625 1.09,5.778 3.27,6.461 l 4.34,0.512 h 7.8 c 6.91,0 11.91,-0.953 15,-2.859 3.09,-1.907 4.64,-4.977 4.64,-9.215 0,-1.926 0.4,-2.867 1.21,-2.824 1.66,0.082 2.49,1.746 2.49,4.984 0,1.621 -0.17,4.285 -0.51,7.996 -0.25,2.512 -0.38,4.262 -0.38,5.242 0,1.406 -0.62,2.11 -1.86,2.11 -0.25,0 -0.55,-0.024 -0.89,-0.063 -3.24,-0.383 -11.83,-0.574 -25.77,-0.574 l -24.24,0.254 -6.45,0.254 c -1.33,0 -2.37,0.023 -3.14,0.066 -0.98,0.082 -1.62,0.125 -1.92,0.125 -1.4,0 -2.11,-0.496 -2.11,-1.496 0,-1.09 0.58,-1.719 1.73,-1.891 4.9,-0.679 8.13,-1.871 9.69,-3.574 1.55,-1.703 2.33,-4.937 2.33,-9.707 v -50.629 c 0,-3.871 -0.23,-6.937 -0.7,-9.191 -0.51,-2.684 -1.21,-4.543 -2.08,-5.586 -0.87,-1.043 -2.52,-2.035 -4.95,-2.969 -0.99,-0.394 -1.45,-0.98 -1.41,-1.762 0.08,-0.957 0.64,-1.437 1.66,-1.437 0.77,0 2.03,0.062 3.77,0.191 6.36,0.383 11.09,0.578 14.2,0.578 4.65,0 8.33,-0.128 11.06,-0.386 l 7.42,-0.703 c 3.32,-0.34 6.35,-0.512 9.08,-0.512 4.65,0 8.38,0.719 11.19,2.148 2.81,1.434 5.16,3.817 7.03,7.153 2.26,3.929 3.39,7.992 3.39,12.179 0,0.559 -0.18,1.016 -0.54,1.379 -0.36,0.364 -0.76,0.504 -1.18,0.418 -0.22,-0.043 -0.47,-0.32 -0.77,-0.832 -5.33,-10.527 -16.65,-15.793 -33.96,-15.793 -2.04,0 -3.56,0.34 -4.54,1.02 -0.98,0.683 -1.83,1.98 -2.55,3.894 -0.94,2.641 -1.41,6.957 -1.41,12.961 v 5.746 c 0,4.594 0.13,7.957 0.38,10.086 0.26,1.871 0.76,3.114 1.51,3.735 0.74,0.617 2.14,0.925 4.18,0.925 h 4.35 c 4.39,0 7.39,-0.152 8.99,-0.449 1.6,-0.297 2.95,-0.961 4.06,-1.98 2,-1.879 3.28,-4.629 3.83,-8.25 0.26,-1.707 0.92,-2.516 1.99,-2.43 0.51,0.039 0.85,0.191 1.02,0.449 0.13,0.211 0.19,0.617 0.19,1.215 l -0.06,3.27 c 0,2.433 -0.13,5.297 -0.39,8.586 -0.38,5.039 -0.57,8.246 -0.57,9.613 0,0.769 0.04,1.707 0.13,2.816 0.12,1.539 0.19,2.481 0.19,2.821 0,1.199 -0.47,1.773 -1.41,1.73 -0.89,-0.043 -1.53,-0.445 -1.92,-1.215 l -1.47,-3.133 c -2.3,-4.644 -5.56,-6.968 -9.78,-6.968 h -5.44 l -2.81,-0.067 -1.92,-0.062 c -2.22,0 -3.61,0.535 -4.19,1.597 -0.57,1.067 -0.86,3.582 -0.86,7.547 v 13.875 l 0.06,2.621 z m -87.98,0.078 c 0,5.622 2.15,8.579 6.46,8.875 1.83,0.086 2.75,0.653 2.75,1.696 0,1.215 -1.28,1.82 -3.84,1.82 -3.46,0 -6.86,-0.168 -10.19,-0.508 -4.48,-0.511 -7.75,-0.769 -9.8,-0.769 -1.28,0 -3.22,0.129 -5.83,0.383 l -2.75,0.195 c -1.07,0.125 -1.9,0.211 -2.5,0.254 -0.81,0.129 -1.43,0.191 -1.86,0.191 -1.28,0 -1.92,-0.648 -1.92,-1.949 0,-1.043 0.81,-1.691 2.43,-1.949 l 3.84,-0.641 c 5.67,-0.89 8.5,-4.742 8.5,-11.547 v -53.332 c 0,-4.972 -0.52,-8.558 -1.56,-10.746 -1.05,-2.191 -2.94,-3.668 -5.66,-4.433 -1.11,-0.305 -1.67,-0.848 -1.67,-1.629 0,-1.133 0.62,-1.7 1.86,-1.7 0.6,0 1.77,0.106 3.52,0.309 5.71,0.648 11.04,0.973 15.98,0.973 2.99,0 5.65,-0.067 8,-0.192 l 6.97,-0.32 c 4.34,-0.258 6.9,-0.406 7.67,-0.449 2.94,-0.211 4.96,-0.321 6.07,-0.321 5.37,0 9.62,1.879 12.73,5.629 3.54,4.262 5.31,9.102 5.31,14.516 0,1.746 -0.39,2.621 -1.17,2.621 -0.48,0 -1.64,-1.297 -3.5,-3.887 -6.04,-8.492 -16.28,-12.738 -30.72,-12.738 -3.11,0 -5.19,0.277 -6.25,0.828 -1.91,0.981 -2.87,5.449 -2.87,13.41 z m -87.98,0 c 0,5.622 2.15,8.579 6.45,8.875 1.84,0.086 2.75,0.653 2.75,1.696 0,1.215 -1.28,1.82 -3.84,1.82 -3.46,0 -6.85,-0.168 -10.18,-0.508 -4.49,-0.511 -7.75,-0.769 -9.8,-0.769 -1.28,0 -3.23,0.129 -5.83,0.383 l -2.76,0.195 c -1.06,0.125 -1.9,0.211 -2.49,0.254 -0.81,0.129 -1.43,0.191 -1.86,0.191 -1.28,0 -1.92,-0.648 -1.92,-1.949 0,-1.043 0.81,-1.691 2.43,-1.949 l 3.83,-0.641 c 5.67,-0.89 8.51,-4.742 8.51,-11.547 v -53.332 c 0,-4.972 -0.52,-8.558 -1.57,-10.746 -1.04,-2.191 -2.93,-3.668 -5.66,-4.433 -1.11,-0.305 -1.66,-0.848 -1.66,-1.629 0,-1.133 0.62,-1.7 1.86,-1.7 0.59,0 1.76,0.106 3.51,0.309 5.71,0.648 11.04,0.973 15.99,0.973 2.98,0 5.65,-0.067 7.99,-0.192 l 6.97,-0.32 c 4.35,-0.258 6.91,-0.406 7.67,-0.449 2.95,-0.211 4.97,-0.321 6.08,-0.321 5.37,0 9.61,1.879 12.72,5.629 3.54,4.262 5.31,9.102 5.31,14.516 0,1.746 -0.39,2.621 -1.16,2.621 -0.48,0 -1.65,-1.297 -3.51,-3.887 -6.03,-8.492 -16.27,-12.738 -30.72,-12.738 -3.1,0 -5.18,0.277 -6.24,0.828 -1.92,0.981 -2.87,5.449 -2.87,13.41 z m -62.52,-1.156 c 0,3.664 0.44,6.094 1.32,7.285 0.87,1.192 2.84,2.043 5.91,2.555 0.85,0.129 1.39,0.324 1.6,0.586 0.21,0.262 0.32,0.781 0.32,1.562 0,1.04 -0.7,1.559 -2.11,1.559 -2.35,0 -5.71,-0.16 -10.1,-0.484 l -4.67,-0.367 c -3.54,-0.286 -6.5,-0.426 -8.89,-0.426 -3.62,0 -6.2,0.172 -7.74,0.511 -1.53,0.297 -2.68,0.469 -3.45,0.512 -1.02,0.043 -1.54,-0.543 -1.54,-1.75 0,-0.781 0.31,-1.332 0.93,-1.656 0.62,-0.324 2.02,-0.66 4.19,-1.008 3.62,-0.551 6.12,-1.656 7.48,-3.316 1.36,-1.664 2.05,-4.449 2.05,-8.364 v -50.882 l -0.07,-5.684 c 0,-3.703 -0.5,-6.352 -1.5,-7.949 -1,-1.598 -3.04,-2.949 -6.11,-4.055 l -1.85,-1.496 0.13,-0.523 c 0.25,-0.911 0.85,-1.368 1.79,-1.368 0.94,0 2.47,0.204 4.6,0.61 2.47,0.445 5.84,0.668 10.11,0.668 3.45,0 7.95,-0.313 13.49,-0.942 2.21,-0.222 3.92,-0.336 5.11,-0.336 2.77,0 4.16,0.629 4.16,1.883 0,1.305 -1.05,1.953 -3.13,1.953 -3.2,0 -5.79,0.871 -7.77,2.621 -1.99,1.747 -3.23,4.258 -3.74,7.539 l -0.52,6.387 z m -109.03,4.41 c 0,3.11 1.57,4.942 4.73,5.493 1.79,0.347 2.68,1.019 2.68,2.015 0,1.176 -0.59,1.758 -1.78,1.758 -0.86,0 -2.71,-0.086 -5.56,-0.254 l -6.7,-0.32 -10.72,0.32 c -2.902,0 -5.43,0.125 -7.601,0.383 -0.942,0.086 -1.571,0.129 -1.911,0.129 -1.199,0 -1.789,-0.586 -1.789,-1.758 0,-1.082 0.852,-1.797 2.559,-2.145 2.98,-0.636 5.34,-2.214 7.062,-4.726 1.731,-2.516 4.059,-7.691 7,-15.527 2.48,-6.692 5.57,-14.25 9.28,-22.684 l 15.15,-34.375 1.6,-3.902 1.47,-3.258 c 0.47,-1.02 1.12,-1.531 1.94,-1.531 1.21,0 2.23,0.957 3.05,2.875 0.3,0.722 1.6,3.449 3.9,8.179 0.3,0.551 2.21,4.77 5.75,12.649 l 10.94,24.09 9.53,22.046 c 2.89,6.516 5.12,10.809 6.68,12.875 1.55,2.067 3.57,3.332 6.04,3.801 1.28,0.262 1.92,0.891 1.92,1.891 0,1.082 -0.38,1.629 -1.15,1.629 -0.6,0 -1.45,-0.086 -2.55,-0.258 -2.85,-0.512 -6.21,-0.766 -10.09,-0.766 -1.27,0 -3.42,0.082 -6.44,0.254 l -6.7,0.383 c -1.83,0.086 -3.02,0.129 -3.58,0.129 -1.06,0 -1.59,-0.5 -1.59,-1.5 0,-1 0.74,-1.586 2.24,-1.762 3.45,-0.512 6.1,-1.605 7.96,-3.289 1.85,-1.683 2.78,-3.844 2.78,-6.484 0,-4.645 -2.37,-12.203 -7.12,-22.68 l -14.44,-31.941 c -0.55,-1.235 -1.07,-1.832 -1.54,-1.789 -0.51,0.043 -1.09,0.832 -1.73,2.367 l -14.27,34.941 c -4.67,11.328 -7,18.91 -7,22.742 z m -79.983,7.321 c -0.089,-1.129 0.641,-1.801 2.172,-2.02 l 2.879,-0.445 c 3.539,-0.469 5.313,-2.106 5.313,-4.918 0,-1.488 -0.442,-2.934 -1.321,-4.34 -0.882,-1.406 -3.07,-4.129 -6.57,-8.172 l -6.672,-7.918 -2.949,-3.445 c -0.68,-0.77 -1.238,-1.172 -1.668,-1.215 -0.723,-0.043 -1.75,0.895 -3.082,2.809 l -4.621,6.703 -4.438,6.066 c -2.91,4.598 -4.472,8.129 -4.691,10.598 -0.078,1.066 0.391,2.066 1.41,3.004 1.02,0.933 2.281,1.508 3.77,1.722 1.539,0.172 2.308,0.844 2.308,2.016 0,1.129 -0.656,1.691 -1.976,1.691 -0.942,0 -2.301,-0.086 -4.09,-0.253 l -5.942,-0.641 c -2.339,-0.254 -5.101,-0.383 -8.3,-0.383 -3.36,0 -8.532,0.258 -15.508,0.766 -1.66,0.129 -2.852,0.191 -3.582,0.191 -1.36,0 -2.039,-0.625 -2.039,-1.883 0,-1.125 0.808,-1.84 2.429,-2.144 4.008,-0.766 7.25,-2.364 9.719,-4.789 2.473,-2.426 7.692,-9.192 15.652,-20.301 2.809,-3.957 5.25,-7.301 7.34,-10.024 3.188,-4.171 4.789,-6.703 4.789,-7.597 0,-0.895 -1.582,-3.043 -4.73,-6.449 -2.078,-2.211 -5.57,-6.258 -10.469,-12.129 -5.621,-6.77 -10.07,-11.516 -13.351,-14.239 -3.282,-2.722 -6.579,-4.425 -9.911,-5.105 -1.148,-0.262 -1.699,-0.828 -1.66,-1.699 0.039,-0.567 0.231,-0.934 0.571,-1.11 l 1.73,-0.324 2.891,0.125 5.699,0.195 c 2.43,0.125 4.379,0.192 5.832,0.192 5.207,0 10.398,-0.258 15.559,-0.77 1.16,-0.129 1.968,-0.191 2.441,-0.191 0.887,0 1.34,0.543 1.34,1.629 0,1.086 -0.703,1.672 -2.113,1.762 -6.649,0.507 -9.969,2.507 -9.969,6 0,3.234 4.859,10.363 14.582,21.386 1.527,1.789 2.84,3.301 3.949,4.535 0.68,0.766 1.188,1.149 1.527,1.149 0.301,0 0.723,-0.383 1.282,-1.149 l 3.211,-4.152 c 5.441,-7.023 9.21,-12.172 11.308,-15.449 2.09,-3.278 3.141,-5.68 3.141,-7.215 0,-2.937 -1.719,-4.531 -5.18,-4.785 -1.57,-0.133 -2.359,-0.805 -2.359,-2.02 0,-1.043 0.718,-1.562 2.168,-1.562 1.062,0 2.793,0.062 5.172,0.191 l 7.031,0.449 c 1.777,0.125 3.66,0.192 5.609,0.192 2.848,0 6.219,-0.152 10.09,-0.449 l 8.051,-0.641 c 1.187,-0.082 2.117,-0.125 2.808,-0.125 1.532,0 2.301,0.586 2.301,1.754 0,1.301 -0.75,2.016 -2.242,2.144 -4.688,0.34 -8.59,2.043 -11.699,5.11 -4.949,4.894 -10.93,12.363 -17.961,22.406 -4.43,6.387 -7.219,10.301 -8.367,11.746 -2.473,3.153 -3.703,5.11 -3.703,5.875 0,0.727 0.96,2.129 2.871,4.215 0.468,0.512 3.261,3.809 8.371,9.895 6.898,8.257 13.078,14.535 18.531,18.835 1.867,1.489 4.707,2.532 8.5,3.129 1.406,0.215 2.109,0.887 2.109,2.016 0,1.129 -0.59,1.691 -1.781,1.691 -1.07,0 -2.41,-0.062 -4.019,-0.191 l -7.852,-0.574 c -2.051,-0.129 -3.98,-0.192 -5.809,-0.192 -3.492,0 -7.261,0.149 -11.3,0.446 -1.071,0.086 -1.829,0.129 -2.301,0.129 -1.36,0 -2.11,-0.586 -2.231,-1.754 z m -95.808,-9.95 c 4.051,-3.75 7.289,-8.812 9.719,-15.183 2.429,-6.375 3.64,-12.906 3.64,-19.602 0,-11.593 -2.617,-20.855 -7.867,-27.785 -5.242,-6.926 -12.231,-10.39 -20.973,-10.39 -9.679,0 -17.539,4.191 -23.59,12.566 -6.058,8.379 -9.078,19.258 -9.078,32.644 0,11.34 2.399,20.184 7.219,26.536 4.82,6.351 11.512,9.531 20.078,9.531 8.012,0 14.961,-2.774 20.852,-8.317 z m -36.551,9.239 c -6.367,-2.582 -11.629,-6.153 -15.758,-10.715 -3.582,-3.887 -6.422,-8.695 -8.512,-14.434 -2.078,-5.734 -3.128,-11.507 -3.128,-17.308 0,-13.524 4.14,-24.328 12.41,-32.41 8.269,-8.086 19.308,-12.125 33.121,-12.125 14.449,0 25.789,4.648 34.019,13.949 8.438,9.511 12.66,21.117 12.66,34.808 0,12.586 -4.089,22.75 -12.281,30.493 -8.179,7.742 -18.929,11.613 -32.23,11.613 -7.16,0 -13.93,-1.289 -20.301,-3.871 z m -105.141,-8.66 -4.398,5.179 c -2.469,2.942 -4.09,4.699 -4.852,5.274 -0.769,0.578 -1.808,0.863 -3.129,0.863 -0.937,0 -2.121,-0.062 -3.531,-0.191 -3.797,-0.383 -7.367,-0.575 -10.699,-0.575 l -2.699,-0.062 -4.418,0.191 c -1.453,0 -2.184,-0.609 -2.184,-1.828 0,-0.996 0.66,-1.543 1.981,-1.625 9.679,-0.683 14.519,-7.57 14.519,-20.672 v -27.683 l -0.449,-15.188 c 0,-5.23 -0.719,-9.238 -2.141,-12.023 -1.429,-2.785 -3.699,-4.625 -6.808,-5.516 -1.239,-0.348 -1.86,-0.957 -1.86,-1.824 0,-1.043 0.579,-1.566 1.731,-1.566 0.687,0 1.769,0.121 3.269,0.367 3.371,0.605 7.219,0.91 11.532,0.91 4.359,0 8.328,-0.297 11.918,-0.895 1.152,-0.168 1.98,-0.254 2.5,-0.254 1.32,0 1.98,0.649 1.98,1.95 0,0.957 -0.641,1.5 -1.91,1.629 -6.91,0.64 -11.07,3.343 -12.469,8.113 -1.332,4.472 -1.992,13.332 -1.992,26.574 v 24.789 l 0.07,1.852 c 0,1.918 0.512,2.875 1.532,2.875 0.378,0 1.089,-0.555 2.109,-1.664 l 58.172,-64.649 c 0.808,-0.894 1.597,-1.363 2.359,-1.406 0.86,-0.043 1.301,0.531 1.301,1.726 l -0.262,7.989 -0.07,4.855 0.07,7.094 0.262,5.492 0.898,39.934 v 3.133 c 0,8.734 2.75,13.609 8.25,14.632 1.371,0.215 2.051,0.868 2.051,1.95 0,1.214 -0.691,1.824 -2.051,1.824 -0.39,0 -1.011,-0.043 -1.859,-0.129 -6.41,-0.809 -11.082,-1.215 -14.031,-1.215 -1.449,0 -3.289,0.129 -5.508,0.383 -3.422,0.426 -5.902,0.641 -7.434,0.641 -1.238,0 -1.859,-0.567 -1.859,-1.696 0,-0.914 0.699,-1.414 2.109,-1.504 5.922,-0.426 9.903,-2.402 11.922,-5.937 2.031,-3.535 3.039,-10.305 3.039,-20.313 0,-8.515 -0.187,-17.48 -0.57,-26.89 -0.09,-2.598 -0.578,-3.899 -1.469,-3.899 -0.98,0 -2.91,1.621 -5.808,4.863 l -2.172,2.43 -33.809,37.981 c -0.34,0.425 -1.39,1.664 -3.133,3.711 z m -114.949,-5.629 c 0,4.945 0.442,8.156 1.34,9.625 0.891,1.468 3.172,2.695 6.84,3.675 1.07,0.262 1.601,0.782 1.601,1.567 0,1.172 -0.621,1.738 -1.851,1.695 -0.77,-0.043 -1.707,-0.129 -2.82,-0.254 -4.008,-0.429 -8.5,-0.64 -13.489,-0.64 -5.84,0 -10.98,0.234 -15.41,0.703 -1.07,0.129 -2.129,0.191 -3.199,0.191 -1.192,0 -1.789,-0.5 -1.789,-1.492 0,-1 0.117,-1.629 0.347,-1.887 0.243,-0.261 0.872,-0.457 1.891,-0.586 3.32,-0.34 5.871,-1.105 7.641,-2.297 1.769,-1.195 2.968,-2.937 3.609,-5.238 l 0.578,-3.637 -0.058,-2.488 v -51.269 c 0,-5.407 -0.59,-9.227 -1.758,-11.457 -1.184,-2.235 -3.301,-3.586 -6.371,-4.055 -1.102,-0.223 -1.66,-0.746 -1.66,-1.578 0,-1.25 0.828,-1.875 2.5,-1.875 1.66,0 3.847,0.129 6.578,0.383 4.261,0.425 8.781,0.64 13.562,0.64 3.578,0 6.52,-0.191 8.82,-0.578 1.879,-0.34 3.219,-0.512 4.028,-0.512 1.41,0 2.109,0.653 2.109,1.954 0,1.125 -1.168,1.777 -3.519,1.949 -3.528,0.254 -6.02,1.84 -7.45,4.754 -1.418,2.914 -2.14,7.82 -2.14,14.711 v 2.746 c 0,3.699 0.14,6.136 0.422,7.304 0.281,1.172 0.968,2.309 2.078,3.414 l 2.75,2.688 1.91,1.855 c 0.77,0.766 1.41,1.153 1.922,1.153 0.769,0 1.75,-0.985 2.937,-2.946 1.371,-2.343 4.953,-7.363 10.743,-15.058 5.789,-7.695 10.531,-13.738 14.199,-18.125 1.449,-1.793 2.261,-2.793 2.429,-3.008 1.782,-2.219 3.782,-3.324 6,-3.324 0.629,0 2.34,0.172 5.102,0.512 1.488,0.168 2.918,0.253 4.277,0.253 2.891,0 6.422,-0.211 10.59,-0.636 0.774,-0.086 1.383,-0.129 1.852,-0.129 1.281,0 1.941,0.519 1.98,1.558 0.039,1.082 -0.469,1.778 -1.531,2.079 l -1.348,0.39 c -6.14,1.703 -10.89,4.258 -14.261,7.66 -4.782,4.856 -12.508,14.602 -23.192,29.243 L 604,401.691 c -1.922,2.684 -2.883,4.536 -2.883,5.559 0,1.445 1.801,3.68 5.391,6.703 1.191,1.02 3.422,3.063 6.672,6.129 7.008,6.594 12.41,11.234 16.199,13.918 3.801,2.68 7.191,4.254 10.172,4.723 1.879,0.304 2.808,0.933 2.808,1.886 0,1.258 -0.742,1.887 -2.242,1.887 -1.707,0 -4.738,-0.258 -9.09,-0.769 -2.007,-0.211 -3.699,-0.321 -5.066,-0.321 -1.832,0 -5.043,0.258 -9.613,0.77 -1.828,0.211 -3.629,0.32 -5.379,0.32 -1.578,0 -2.371,-0.543 -2.371,-1.629 0,-1.176 0.679,-1.762 2.05,-1.762 1.832,0 3.301,-0.382 4.411,-1.152 1.109,-0.765 1.66,-1.789 1.66,-3.066 0,-3.836 -5.871,-11.024 -17.621,-21.551 l -8.93,-7.93 -6.258,-5.625 c -1.66,-1.281 -2.68,-1.918 -3.062,-1.918 -0.731,0.039 -1.09,0.852 -1.09,2.43 v 23.211 l 0.07,2.301 v 0" /><path
             id="path30"
             style="fill:#f68712;fill-opacity:1;fill-rule:nonzero;stroke:none"
             d="M 472.477,355.551 V 821.387 H 6.64062 V 355.551 H 472.477 v 0" /><path
             id="path32"
             style="fill:#ffffff;fill-opacity:1;fill-rule:nonzero;stroke:none"
             d="M 413.68,762.637 V 645.098 h -43.528 c 0,21.644 -21.433,39.179 -47.879,39.179 -19.328,0 -35.968,-9.371 -43.535,-22.859 V 514.516 c 0,-31.207 24.289,-56.516 54.278,-56.586 h 0.132 V 414.398 H 145.973 v 43.532 h 0.125 c 29.992,0.07 54.289,25.379 54.289,56.586 v 146.902 c -7.571,13.488 -24.207,22.859 -43.535,22.859 -26.442,0 -47.883,-17.535 -47.883,-39.179 H 65.4336 V 762.637 H 413.68 v 0" /><path
             id="path34"
             style="fill:#545051;fill-opacity:1;fill-rule:nonzero;stroke:none"
             d="m 85.0586,168.613 v 0.254 c 0,21.68 -15.7813,39.473 -37.457,39.473 -21.668,0 -37.2071,-17.539 -37.2071,-39.219 v -0.254 c 0,-21.66 15.7852,-39.453 37.461,-39.453 21.6718,0 37.2031,17.539 37.2031,39.199 z m -81.42579,0 v 0.254 c 0,23.926 17.66019,45.352 44.22269,45.352 26.5586,0 43.9726,-21.172 43.9726,-45.098 v -0.254 c 0,-23.926 -17.6679,-45.351 -44.2265,-45.351 -26.5586,0 -43.96879,21.172 -43.96879,45.097" /><path
             id="path36"
             style="fill:#545051;fill-opacity:1;fill-rule:nonzero;stroke:none"
             d="m 113.637,212.715 h 61.761 v -6.016 h -55.246 v -35.957 h 49.61 v -5.996 h -49.61 V 125.02 h -6.515 v 87.695" /><path
             id="path38"
             style="fill:#545051;fill-opacity:1;fill-rule:nonzero;stroke:none"
             d="m 193.453,212.715 h 61.762 v -6.016 h -55.25 v -35.957 h 49.609 v -5.996 H 199.965 V 125.02 h -6.512 v 87.695" /><path
             id="path40"
             style="fill:#545051;fill-opacity:1;fill-rule:nonzero;stroke:none"
             d="m 273.77,125.02 h 6.51172 v 87.6953 H 273.77 Z" /><path
             id="path42"
             style="fill:#545051;fill-opacity:1;fill-rule:nonzero;stroke:none"
             d="m 302.539,168.613 v 0.254 c 0,24.805 18.539,45.352 43.848,45.352 15.66,0 25.054,-5.762 34.074,-14.024 l -4.637,-4.765 c -7.64,7.382 -16.41,12.91 -29.562,12.91 -21.047,0 -36.961,-17.168 -36.961,-39.219 v -0.254 c 0,-22.168 16.164,-39.453 37.086,-39.453 12.652,0 21.293,4.883 30.191,13.652 l 4.383,-4.257 c -9.273,-9.141 -19.289,-15.293 -34.828,-15.293 -25.055,0 -43.594,19.922 -43.594,45.097" /><path
             id="path44"
             style="fill:#545051;fill-opacity:1;fill-rule:nonzero;stroke:none"
             d="m 398.512,212.715 h 62.386 v -6.016 h -55.875 v -34.453 h 50.243 v -6.016 h -50.243 v -35.195 h 56.5 v -6.015 h -63.011 v 87.695" /><path
             id="path46"
             style="fill:#545051;fill-opacity:1;fill-rule:nonzero;stroke:none"
             d="m 592.48,168.613 v 0.254 c 0,21.68 -15.781,39.473 -37.457,39.473 -21.668,0 -37.207,-17.539 -37.207,-39.219 v -0.254 c 0,-21.66 15.789,-39.453 37.461,-39.453 21.672,0 37.203,17.539 37.203,39.199 z m -81.425,0 v 0.254 c 0,23.926 17.66,45.352 44.222,45.352 26.559,0 43.969,-21.172 43.969,-45.098 v -0.254 c 0,-23.926 -17.664,-45.351 -44.223,-45.351 -26.554,0 -43.968,21.172 -43.968,45.097" /><path
             id="path48"
             style="fill:#545051;fill-opacity:1;fill-rule:nonzero;stroke:none"
             d="m 621.059,212.715 h 61.761 v -6.016 h -55.246 v -35.957 h 49.61 v -5.996 h -49.61 V 125.02 h -6.515 v 87.695" /><path
             id="path50"
             style="fill:#545051;fill-opacity:1;fill-rule:nonzero;stroke:none"
             d="m 771.875,167.246 c 14.656,0 25.559,7.383 25.559,20.039 v 0.254 c 0,11.777 -9.27,19.16 -25.184,19.16 h -29.941 v -39.453 z m -36.078,45.469 h 36.832 c 10.773,0 19.418,-3.379 24.676,-8.633 4.136,-4.141 6.64,-10.039 6.64,-16.289 v -0.254 c 0,-14.668 -10.898,-23.047 -25.679,-25.059 l 28.937,-37.46 h -8.265 L 771,161.348 H 742.309 V 125.02 h -6.512 v 87.695" /><path
             id="path52"
             style="fill:#545051;fill-opacity:1;fill-rule:nonzero;stroke:none"
             d="m 825.758,212.715 h 62.387 v -6.016 H 832.27 v -34.453 h 50.242 V 166.23 H 832.27 v -35.195 h 56.5 v -6.015 h -63.012 v 87.695" /><path
             id="path54"
             style="fill:#545051;fill-opacity:1;fill-rule:nonzero;stroke:none"
             d="m 901.898,137.793 4.258,4.902 c 9.649,-8.906 18.539,-13.027 31.446,-13.027 13.156,0 22.171,7.383 22.171,17.402 v 0.254 c 0,9.278 -4.886,14.649 -24.8,18.672 -21.047,4.258 -29.567,11.387 -29.567,24.668 v 0.254 c 0,13.027 11.899,23.047 28.188,23.047 12.777,0 21.172,-3.496 30.062,-10.645 l -4.129,-5.136 c -8.273,7.148 -16.539,9.902 -26.187,9.902 -12.902,0 -21.422,-7.402 -21.422,-16.543 v -0.254 c 0,-9.258 4.762,-14.902 25.559,-19.16 20.293,-4.141 28.812,-11.406 28.812,-24.18 v -0.254 c 0,-14.16 -12.152,-23.925 -29.062,-23.925 -14.036,0 -24.805,4.628 -35.329,14.023" /><path
             id="path56"
             style="fill:#545051;fill-opacity:1;fill-rule:nonzero;stroke:none"
             d="m 986.848,212.715 h 62.382 v -6.016 h -55.871 v -34.453 h 50.241 v -6.016 h -50.241 v -35.195 h 56.501 v -6.015 h -63.012 v 87.695" /><path
             id="path58"
             style="fill:#545051;fill-opacity:1;fill-rule:nonzero;stroke:none"
             d="m 1131.27,155.469 -23.05,50.742 -23.18,-50.742 z m -26.06,57.871 h 6.27 l 40.84,-88.32 h -7.14 l -11.15,24.55 h -51.74 l -11.15,-24.55 h -6.77 l 40.84,88.32" /><path
             id="path60"
             style="fill:#545051;fill-opacity:1;fill-rule:nonzero;stroke:none"
             d="m 1206.08,167.246 c 14.66,0 25.56,7.383 25.56,20.039 v 0.254 c 0,11.777 -9.28,19.16 -25.19,19.16 h -29.94 V 167.246 Z M 1170,212.715 h 36.83 c 10.77,0 19.42,-3.379 24.68,-8.633 4.13,-4.141 6.64,-10.039 6.64,-16.289 v -0.254 c 0,-14.668 -10.9,-23.047 -25.68,-25.059 l 28.93,-37.46 h -8.26 l -27.94,36.328 h -28.69 V 125.02 H 1170 v 87.695" /><path
             id="path62"
             style="fill:#545051;fill-opacity:1;fill-rule:nonzero;stroke:none"
             d="m 1255.82,168.613 v 0.254 c 0,24.805 18.54,45.352 43.84,45.352 15.67,0 25.06,-5.762 34.09,-14.024 l -4.64,-4.765 c -7.65,7.382 -16.42,12.91 -29.57,12.91 -21.05,0 -36.96,-17.168 -36.96,-39.219 v -0.254 c 0,-22.168 16.17,-39.453 37.08,-39.453 12.66,0 21.3,4.883 30.2,13.652 l 4.38,-4.257 c -9.26,-9.141 -19.29,-15.293 -34.82,-15.293 -25.06,0 -43.6,19.922 -43.6,45.097" /><path
             id="path64"
             style="fill:#545051;fill-opacity:1;fill-rule:nonzero;stroke:none"
             d="m 1351.29,212.715 h 6.52 v -40.586 h 56.12 v 40.586 h 6.51 V 125.02 h -6.51 v 41.093 h -56.12 V 125.02 h -6.52 v 87.695" /><path
             id="path66"
             style="fill:#545051;fill-opacity:1;fill-rule:nonzero;stroke:none"
             d="M 66.8945,31.9531 43.8477,82.6953 20.668,31.9531 Z M 40.8398,89.8242 h 6.2657 L 87.9453,1.50391 H 80.8008 L 69.6523,26.0547 H 17.9141 L 6.76172,1.50391 H 0 L 40.8398,89.8242" /><path
             id="path68"
             style="fill:#545051;fill-opacity:1;fill-rule:nonzero;stroke:none"
             d="m 105.117,89.1992 h 6.137 l 60.508,-76.289 v 76.289 h 6.265 V 1.50391 h -4.882 L 111.383,79.4336 V 1.50391 h -6.266 V 89.1992" /><path
             id="path70"
             style="fill:#545051;fill-opacity:1;fill-rule:nonzero;stroke:none"
             d="M 210.668,83.1836 V 7.51953 h 22.676 c 24.429,0 39.84,16.66017 39.84,37.57817 v 0.2539 c 0,20.8007 -15.411,37.832 -39.84,37.832 z m -6.512,6.0156 h 29.188 c 27.562,0 46.601,-18.9062 46.601,-43.5937 v -0.2539 c 0,-24.668 -19.039,-43.84769 -46.601,-43.84769 H 204.156 V 89.1992" /><path
             id="path72"
             style="fill:#545051;fill-opacity:1;fill-rule:nonzero;stroke:none"
             d="m 334.711,89.1992 h 62.391 V 83.1836 H 341.227 V 48.7305 h 50.238 V 42.7148 H 341.227 V 7.51953 h 56.5 V 1.50391 H 334.711 V 89.1992" /><path
             id="path74"
             style="fill:#545051;fill-opacity:1;fill-rule:nonzero;stroke:none"
             d="m 416.152,89.1992 h 6.137 l 60.508,-76.289 v 76.289 h 6.265 V 1.50391 H 484.18 L 422.418,79.4336 V 1.50391 h -6.266 V 89.1992" /><path
             id="path76"
             style="fill:#545051;fill-opacity:1;fill-rule:nonzero;stroke:none"
             d="m 510.82,45.0977 v 0.2539 c 0,23.6718 17.164,45.3515 43.344,45.3515 14.281,0 23.301,-4.2578 32.07,-11.5234 l -4.257,-4.8828 c -6.887,6.0156 -14.907,10.5273 -28.188,10.5273 -21.301,0 -36.207,-18.0469 -36.207,-39.2187 v -0.2539 c 0,-22.6758 14.16,-39.58988 37.586,-39.58988 11.148,0 21.547,4.64848 27.937,10.01948 v 25.1954 h -29.316 v 6.0156 h 35.574 V 13.1641 C 581.477,6.15234 569.199,0 554.918,0 527.23,0 510.82,20.4297 510.82,45.0977" /><path
             id="path78"
             style="fill:#545051;fill-opacity:1;fill-rule:nonzero;stroke:none"
             d="m 669.934,31.9531 -23.047,50.7422 -23.18,-50.7422 z m -26.055,57.8711 h 6.262 L 690.98,1.50391 h -7.14 L 672.691,26.0547 H 620.953 L 609.801,1.50391 h -6.766 l 40.844,88.32029" /><path
             id="path80"
             style="fill:#545051;fill-opacity:1;fill-rule:nonzero;stroke:none"
             d="m 699.492,45.0977 v 0.2539 c 0,23.6718 17.164,45.3515 43.344,45.3515 14.281,0 23.301,-4.2578 32.07,-11.5234 l -4.258,-4.8828 c -6.886,6.0156 -14.906,10.5273 -28.187,10.5273 -21.301,0 -36.207,-18.0469 -36.207,-39.2187 v -0.2539 c 0,-22.6758 14.16,-39.58988 37.586,-39.58988 11.148,0 21.547,4.64848 27.937,10.01948 v 25.1954 h -29.316 v 6.0156 h 35.574 V 13.1641 C 770.145,6.15234 757.871,0 743.59,0 715.902,0 699.492,20.4297 699.492,45.0977" /><path
             id="path82"
             style="fill:#545051;fill-opacity:1;fill-rule:nonzero;stroke:none"
             d="m 801.73,89.1992 h 62.387 V 83.1836 H 808.242 V 48.7305 H 858.48 V 42.7148 H 808.242 V 7.51953 h 56.5 V 1.50391 H 801.73 V 89.1992" /><path
             id="path84"
             style="fill:#545051;fill-opacity:1;fill-rule:nonzero;stroke:none"
             d="m 883.141,89.1992 h 6.136 l 35.203,-51.8554 35.204,51.8554 h 6.136 V 1.50391 h -6.511 V 77.6758 L 924.605,27.1875 h -0.5 L 889.402,77.6758 V 1.50391 h -6.261 V 89.1992" /><path
             id="path86"
             style="fill:#545051;fill-opacity:1;fill-rule:nonzero;stroke:none"
             d="m 992.02,89.1992 h 62.39 V 83.1836 H 998.535 V 48.7305 h 50.235 V 42.7148 H 998.535 V 7.51953 h 56.495 V 1.50391 H 992.02 V 89.1992" /><path
             id="path88"
             style="fill:#545051;fill-opacity:1;fill-rule:nonzero;stroke:none"
             d="m 1073.37,89.1992 h 6.15 l 60.5,-76.289 v 76.289 h 6.26 V 1.50391 h -4.88 L 1079.64,79.4336 V 1.50391 h -6.27 V 89.1992" /><path
             id="path90"
             style="fill:#545051;fill-opacity:1;fill-rule:nonzero;stroke:none"
             d="m 1194.66,83.1836 h -30.56 v 6.0156 h 67.64 v -6.0156 h -30.56 V 1.50391 h -6.52 V 83.1836" /></g></g></g></g></svg>